<svg xmlns="http://www.w3.org/2000/svg" xmlns:xlink="http://www.w3.org/1999/xlink" contentStyleType="text/css" data-diagram-type="SEQUENCE" height="1581px" preserveAspectRatio="none" style="width:971px;height:1581px;background:#FFFFFF;" version="1.1" viewBox="0 0 971 1581" width="971px" zoomAndPan="magnify"><?plantuml 1.2026.3beta6?><defs/><g><g class="title" data-source-line="1"><text fill="#000000" font-family="sans-serif" font-size="14" font-weight="700" lengthAdjust="spacing" textLength="179.5388" x="392.6718" y="27.9951">GitHub OAuth2 登录流程</text></g><g class="participant-lifeline" data-entity-uid="part1" data-qualified-name="User" data-source-line="3" id="part1-lifeline"><g><title>.. .....</title><rect fill="#000000" fill-opacity="0.00000" height="1380.9063" width="8" x="46.6869" y="118.5938"/><line style="stroke:#181818;stroke-width:0.5;stroke-dasharray:5,5;" x1="50" x2="50" y1="118.5938" y2="1499.5"/></g></g><g class="participant-lifeline" data-entity-uid="part2" data-qualified-name="Frontend" data-source-line="4" id="part2-lifeline"><g><title>....</title><rect fill="#000000" fill-opacity="0.00000" height="1380.9063" width="8" x="218.0922" y="118.5938"/><line style="stroke:#181818;stroke-width:0.5;stroke-dasharray:5,5;" x1="221.0923" x2="221.0923" y1="118.5938" y2="1499.5"/></g></g><g class="participant-lifeline" data-entity-uid="part3" data-qualified-name="Backend" data-source-line="5" id="part3-lifeline"><g><title>Spring Security</title><rect fill="#000000" fill-opacity="0.00000" height="1380.9063" width="8" x="490.4824" y="118.5938"/><line style="stroke:#181818;stroke-width:0.5;stroke-dasharray:5,5;" x1="493.9228" x2="493.9228" y1="118.5938" y2="1499.5"/></g></g><g class="participant-lifeline" data-entity-uid="part4" data-qualified-name="GitHub" data-source-line="6" id="part4-lifeline"><g><title>GitHub</title><rect fill="#000000" fill-opacity="0.00000" height="1380.9063" width="8" x="761.4316" y="118.5938"/><line style="stroke:#181818;stroke-width:0.5;stroke-dasharray:5,5;" x1="765.3671" x2="765.3671" y1="118.5938" y2="1499.5"/></g></g><g class="participant participant-head" data-entity-uid="part1" data-qualified-name="User" data-source-line="3" id="part1-head"><text fill="#000000" font-family="sans-serif" font-size="14" lengthAdjust="spacing" textLength="85.3737" x="5" y="115.292">用户 (浏览器)</text><ellipse cx="50.6869" cy="50.7969" fill="#E2E2F0" rx="8" ry="8" style="stroke:#181818;stroke-width:0.5;"/><path d="M50.6869,58.7969 L50.6869,85.7969 M37.6869,66.7969 L63.6869,66.7969 M50.6869,85.7969 L37.6869,100.7969 M50.6869,85.7969 L63.6869,100.7969" fill="none" style="stroke:#181818;stroke-width:0.5;"/></g><g class="participant participant-tail" data-entity-uid="part1" data-qualified-name="User" data-source-line="3" id="part1-tail"><text fill="#000000" font-family="sans-serif" font-size="14" lengthAdjust="spacing" textLength="85.3737" x="5" y="1511.4951">用户 (浏览器)</text><ellipse cx="50.6869" cy="1523.2969" fill="#E2E2F0" rx="8" ry="8" style="stroke:#181818;stroke-width:0.5;"/><path d="M50.6869,1531.2969 L50.6869,1558.2969 M37.6869,1539.2969 L63.6869,1539.2969 M50.6869,1558.2969 L37.6869,1573.2969 M50.6869,1558.2969 L63.6869,1573.2969" fill="none" style="stroke:#181818;stroke-width:0.5;"/></g><g class="participant participant-head" data-entity-uid="part2" data-qualified-name="Frontend" data-source-line="4" id="part2-head"><rect fill="#E2E2F0" height="30.2969" rx="2.5" ry="2.5" style="stroke:#181818;stroke-width:0.5;" width="69.9998" x="187.0923" y="87.2969"/><text fill="#000000" font-family="sans-serif" font-size="14" lengthAdjust="spacing" textLength="55.9998" x="194.0923" y="107.292">前端页面</text></g><g class="participant participant-tail" data-entity-uid="part2" data-qualified-name="Frontend" data-source-line="4" id="part2-tail"><rect fill="#E2E2F0" height="30.2969" rx="2.5" ry="2.5" style="stroke:#181818;stroke-width:0.5;" width="69.9998" x="187.0923" y="1498.5"/><text fill="#000000" font-family="sans-serif" font-size="14" lengthAdjust="spacing" textLength="55.9998" x="194.0923" y="1518.4951">前端页面</text></g><g class="participant participant-head" data-entity-uid="part3" data-qualified-name="Backend" data-source-line="5" id="part3-head"><rect fill="#E2E2F0" height="46.5938" rx="2.5" ry="2.5" style="stroke:#181818;stroke-width:0.5;" width="121.1191" x="433.9228" y="71"/><text fill="#000000" font-family="sans-serif" font-size="14" lengthAdjust="spacing" textLength="107.1191" x="440.9228" y="90.9951">Spring Security</text><text fill="#000000" font-family="sans-serif" font-size="14" lengthAdjust="spacing" textLength="38.9237" x="475.0205" y="107.292">(后端)</text></g><g class="participant participant-tail" data-entity-uid="part3" data-qualified-name="Backend" data-source-line="5" id="part3-tail"><rect fill="#E2E2F0" height="46.5938" rx="2.5" ry="2.5" style="stroke:#181818;stroke-width:0.5;" width="121.1191" x="433.9228" y="1498.5"/><text fill="#000000" font-family="sans-serif" font-size="14" lengthAdjust="spacing" textLength="107.1191" x="440.9228" y="1518.4951">Spring Security</text><text fill="#000000" font-family="sans-serif" font-size="14" lengthAdjust="spacing" textLength="38.9237" x="475.0205" y="1534.792">(后端)</text></g><g class="participant participant-head" data-entity-uid="part4" data-qualified-name="GitHub" data-source-line="6" id="part4-head"><rect fill="#E2E2F0" height="46.5938" rx="2.5" ry="2.5" style="stroke:#181818;stroke-width:0.5;" width="158.1289" x="686.3671" y="71"/><text fill="#000000" font-family="sans-serif" font-size="14" lengthAdjust="spacing" textLength="48.5146" x="741.1743" y="90.9951">GitHub</text><text fill="#000000" font-family="sans-serif" font-size="14" lengthAdjust="spacing" textLength="144.1289" x="693.3671" y="107.292">Authorization Server</text></g><g class="participant participant-tail" data-entity-uid="part4" data-qualified-name="GitHub" data-source-line="6" id="part4-tail"><rect fill="#E2E2F0" height="46.5938" rx="2.5" ry="2.5" style="stroke:#181818;stroke-width:0.5;" width="158.1289" x="686.3671" y="1498.5"/><text fill="#000000" font-family="sans-serif" font-size="14" lengthAdjust="spacing" textLength="48.5146" x="741.1743" y="1518.4951">GitHub</text><text fill="#000000" font-family="sans-serif" font-size="14" lengthAdjust="spacing" textLength="144.1289" x="693.3671" y="1534.792">Authorization Server</text></g><rect fill="#EEEEEE" height="3" style="stroke:#EEEEEE;stroke-width:1;" width="965.8824" x="0" y="149.1602"/><line style="stroke:#000000;stroke-width:1;" x1="0" x2="965.8824" y1="149.1602" y2="149.1602"/><line style="stroke:#000000;stroke-width:1;" x1="0" x2="965.8824" y1="152.1602" y2="152.1602"/><rect fill="#EEEEEE" height="23.1328" style="stroke:#000000;stroke-width:2;" width="89.0357" x="438.4233" y="138.5938"/><text fill="#000000" font-family="sans-serif" font-size="13" font-weight="700" lengthAdjust="spacing" textLength="70.5098" x="444.4233" y="154.6606">1. 发起登录</text><g class="message" data-entity-1="part1" data-entity-2="part2" data-source-line="10" id="msg1"><polygon fill="#181818" points="210.0922,188.8594,220.0922,192.8594,210.0922,196.8594,214.0922,192.8594" style="stroke:#181818;stroke-width:1;"/><line style="stroke:#181818;stroke-width:1;" x1="50.6869" x2="216.0922" y1="192.8594" y2="192.8594"/><text fill="#000000" font-family="sans-serif" font-size="13" lengthAdjust="spacing" textLength="147.4054" x="57.6869" y="187.7935">点击 "GitHub 登录" 按钮</text></g><g class="message" data-entity-1="part2" data-entity-2="part3" data-source-line="11" id="msg2"><polygon fill="#181818" points="482.4824,217.9922,492.4824,221.9922,482.4824,225.9922,486.4824,221.9922" style="stroke:#181818;stroke-width:1;"/><line style="stroke:#181818;stroke-width:1;" x1="222.0922" x2="488.4824" y1="221.9922" y2="221.9922"/><text fill="#000000" font-family="sans-serif" font-size="13" lengthAdjust="spacing" textLength="217.1025" x="229.0922" y="216.9263">GET /oauth2/authorization/github</text></g><path d="M499,234.9922 L499,289.9922 L672,289.9922 L672,244.9922 L662,234.9922 L499,234.9922" fill="#FEFFDD" style="stroke:#181818;stroke-width:0.5;"/><path d="M662,234.9922 L662,244.9922 L672,244.9922 L662,234.9922" fill="#FEFFDD" style="stroke:#181818;stroke-width:0.5;"/><text fill="#000000" font-family="sans-serif" font-size="13" lengthAdjust="spacing" textLength="152.5723" x="505" y="252.0591">Spring Security OAuth2</text><text fill="#000000" font-family="sans-serif" font-size="13" lengthAdjust="spacing" textLength="91.0001" x="505" y="267.1919">自动拦截并生成</text><text fill="#000000" font-family="sans-serif" font-size="13" lengthAdjust="spacing" textLength="78.0001" x="505" y="282.3247">授权请求参数</text><g class="message" data-entity-1="part3" data-entity-2="part4" data-source-line="13" id="msg3"><polygon fill="#181818" points="753.4316,327.6563,763.4316,331.6563,753.4316,335.6563,757.4316,331.6563" style="stroke:#181818;stroke-width:1;"/><line style="stroke:#181818;stroke-width:1;" x1="494.4824" x2="759.4316" y1="331.6563" y2="331.6563"/><text fill="#000000" font-family="sans-serif" font-size="13" lengthAdjust="spacing" textLength="144.3141" x="501.4824" y="311.4575">重定向至 GitHub 授权页</text><text fill="#000000" font-family="sans-serif" font-size="13" lengthAdjust="spacing" textLength="234.5522" x="501.4824" y="326.5903">(client_id, redirect_uri, scope, state)</text></g><rect fill="#EEEEEE" height="3" style="stroke:#EEEEEE;stroke-width:1;" width="965.8824" x="0" y="360.2227"/><line style="stroke:#000000;stroke-width:1;" x1="0" x2="965.8824" y1="360.2227" y2="360.2227"/><line style="stroke:#000000;stroke-width:1;" x1="0" x2="965.8824" y1="363.2227" y2="363.2227"/><rect fill="#EEEEEE" height="23.1328" style="stroke:#000000;stroke-width:2;" width="118.3428" x="423.7698" y="349.6563"/><text fill="#000000" font-family="sans-serif" font-size="13" font-weight="700" lengthAdjust="spacing" textLength="99.8169" x="429.7698" y="365.7231">2. GitHub 授权</text><g class="message" data-entity-1="part4" data-entity-2="part1" data-source-line="17" id="msg4"><polygon fill="#181818" points="61.6869,399.9219,51.6869,403.9219,61.6869,407.9219,57.6869,403.9219" style="stroke:#181818;stroke-width:1;"/><line style="stroke:#181818;stroke-width:1;" x1="55.6869" x2="764.4316" y1="403.9219" y2="403.9219"/><text fill="#000000" font-family="sans-serif" font-size="13" lengthAdjust="spacing" textLength="104.0001" x="67.6869" y="398.856">展示授权确认页面</text></g><g class="message" data-entity-1="part1" data-entity-2="part4" data-source-line="18" id="msg5"><polygon fill="#181818" points="753.4316,429.0547,763.4316,433.0547,753.4316,437.0547,757.4316,433.0547" style="stroke:#181818;stroke-width:1;"/><line style="stroke:#181818;stroke-width:1;" x1="50.6869" x2="759.4316" y1="433.0547" y2="433.0547"/><text fill="#000000" font-family="sans-serif" font-size="13" lengthAdjust="spacing" textLength="52.0001" x="57.6869" y="427.9888">确认授权</text></g><path d="M770,446.0547 L770,471.0547 L960,471.0547 L960,456.0547 L950,446.0547 L770,446.0547" fill="#FEFFDD" style="stroke:#181818;stroke-width:0.5;"/><path d="M950,446.0547 L950,456.0547 L960,456.0547 L950,446.0547" fill="#FEFFDD" style="stroke:#181818;stroke-width:0.5;"/><text fill="#000000" font-family="sans-serif" font-size="13" lengthAdjust="spacing" textLength="26" x="776" y="463.1216">生成</text><text fill="#000000" font-family="sans-serif" font-size="13" font-weight="700" lengthAdjust="spacing" textLength="139.75" x="806.1324" y="463.1216">authorization_code</text><g class="message" data-entity-1="part4" data-entity-2="part3" data-source-line="20" id="msg6"><polygon fill="#181818" points="505.4824,508.4531,495.4824,512.4531,505.4824,516.4531,501.4824,512.4531" style="stroke:#181818;stroke-width:1;"/><line style="stroke:#181818;stroke-width:1;" x1="499.4824" x2="764.4316" y1="512.4531" y2="512.4531"/><text fill="#000000" font-family="sans-serif" font-size="13" lengthAdjust="spacing" textLength="138.3091" x="511.4824" y="492.2544">302 重定向回 callback</text><text fill="#000000" font-family="sans-serif" font-size="13" lengthAdjust="spacing" textLength="149.2651" x="511.4824" y="507.3872">?code=xxx&amp;state=yyy</text></g><path d="M499,525.4531 L499,565.4531 L614,565.4531 L614,535.4531 L604,525.4531 L499,525.4531" fill="#FEFFDD" style="stroke:#181818;stroke-width:0.5;"/><path d="M604,525.4531 L604,535.4531 L614,535.4531 L604,525.4531" fill="#FEFFDD" style="stroke:#181818;stroke-width:0.5;"/><text fill="#000000" font-family="sans-serif" font-size="13" lengthAdjust="spacing" textLength="93.1964" x="505" y="542.52">校验 state 参数</text><text fill="#000000" font-family="sans-serif" font-size="13" lengthAdjust="spacing" textLength="94.1041" x="505" y="557.6528">防止 CSRF 攻击</text><rect fill="#EEEEEE" height="3" style="stroke:#EEEEEE;stroke-width:1;" width="965.8824" x="0" y="591.2852"/><line style="stroke:#000000;stroke-width:1;" x1="0" x2="965.8824" y1="591.2852" y2="591.2852"/><line style="stroke:#000000;stroke-width:1;" x1="0" x2="965.8824" y1="594.2852" y2="594.2852"/><rect fill="#EEEEEE" height="23.1328" style="stroke:#000000;stroke-width:2;" width="112.0777" x="426.9023" y="580.7188"/><text fill="#000000" font-family="sans-serif" font-size="13" font-weight="700" lengthAdjust="spacing" textLength="93.5518" x="432.9023" y="596.7856">3. 换取 Token</text><g class="message" data-entity-1="part3" data-entity-2="part4" data-source-line="25" id="msg7"><polygon fill="#181818" points="753.4316,646.1172,763.4316,650.1172,753.4316,654.1172,757.4316,650.1172" style="stroke:#181818;stroke-width:1;"/><line style="stroke:#181818;stroke-width:1;" x1="494.4824" x2="759.4316" y1="650.1172" y2="650.1172"/><text fill="#000000" font-family="sans-serif" font-size="13" lengthAdjust="spacing" textLength="207.8223" x="501.4824" y="629.9185">POST /login/oauth/access_token</text><text fill="#000000" font-family="sans-serif" font-size="13" lengthAdjust="spacing" textLength="206.2988" x="501.4824" y="645.0513">client_id + client_secret + code</text></g><g class="message" data-entity-1="part4" data-entity-2="part3" data-source-line="26" id="msg8"><polygon fill="#181818" points="505.4824,675.25,495.4824,679.25,505.4824,683.25,501.4824,679.25" style="stroke:#181818;stroke-width:1;"/><line style="stroke:#181818;stroke-width:1;" x1="499.4824" x2="764.4316" y1="679.25" y2="679.25"/><text fill="#000000" font-family="sans-serif" font-size="13" lengthAdjust="spacing" textLength="26" x="511.4824" y="674.1841">返回</text><text fill="#000000" font-family="sans-serif" font-size="13" font-weight="700" lengthAdjust="spacing" textLength="96.8398" x="541.6147" y="674.1841">access_token</text></g><path d="M499,692.25 L499,732.25 L654,732.25 L654,702.25 L644,692.25 L499,692.25" fill="#FEFFDD" style="stroke:#181818;stroke-width:0.5;"/><path d="M644,692.25 L644,702.25 L654,702.25 L644,692.25" fill="#FEFFDD" style="stroke:#181818;stroke-width:0.5;"/><text fill="#000000" font-family="sans-serif" font-size="13" lengthAdjust="spacing" textLength="134.3863" x="505" y="709.3169">持有 access_token 后</text><text fill="#000000" font-family="sans-serif" font-size="13" lengthAdjust="spacing" textLength="104.0001" x="505" y="724.4497">自动请求用户信息</text><g class="message" data-entity-1="part3" data-entity-2="part4" data-source-line="29" id="msg9"><polygon fill="#181818" points="753.4316,769.7813,763.4316,773.7813,753.4316,777.7813,757.4316,773.7813" style="stroke:#181818;stroke-width:1;"/><line style="stroke:#181818;stroke-width:1;" x1="494.4824" x2="759.4316" y1="773.7813" y2="773.7813"/><text fill="#000000" font-family="sans-serif" font-size="13" lengthAdjust="spacing" textLength="63.0957" x="501.4824" y="753.5825">GET /user</text><text fill="#000000" font-family="sans-serif" font-size="13" lengthAdjust="spacing" textLength="246.9492" x="501.4824" y="768.7153">Authorization: Bearer {access_token}</text></g><g class="message" data-entity-1="part4" data-entity-2="part3" data-source-line="30" id="msg10"><polygon fill="#181818" points="505.4824,814.0469,495.4824,818.0469,505.4824,822.0469,501.4824,818.0469" style="stroke:#181818;stroke-width:1;"/><line style="stroke:#181818;stroke-width:1;" x1="499.4824" x2="764.4316" y1="818.0469" y2="818.0469"/><text fill="#000000" font-family="sans-serif" font-size="13" lengthAdjust="spacing" textLength="78.0001" x="511.4824" y="797.8481">返回用户信息</text><text fill="#000000" font-family="sans-serif" font-size="13" lengthAdjust="spacing" textLength="148.624" x="511.4824" y="812.981">(login, avatar, email...)</text></g><rect fill="#EEEEEE" height="3" style="stroke:#EEEEEE;stroke-width:1;" width="965.8824" x="0" y="846.6133"/><line style="stroke:#000000;stroke-width:1;" x1="0" x2="965.8824" y1="846.6133" y2="846.6133"/><line style="stroke:#000000;stroke-width:1;" x1="0" x2="965.8824" y1="849.6133" y2="849.6133"/><rect fill="#EEEEEE" height="23.1328" style="stroke:#000000;stroke-width:2;" width="89.0357" x="438.4233" y="836.0469"/><text fill="#000000" font-family="sans-serif" font-size="13" font-weight="700" lengthAdjust="spacing" textLength="70.5098" x="444.4233" y="852.1138">4. 建立会话</text><path d="M409,874.1797 L409,929.1797 L578,929.1797 L578,884.1797 L568,874.1797 L409,874.1797" fill="#FEFFDD" style="stroke:#181818;stroke-width:0.5;"/><path d="M568,874.1797 L568,884.1797 L578,884.1797 L568,874.1797" fill="#FEFFDD" style="stroke:#181818;stroke-width:0.5;"/><text fill="#000000" font-family="sans-serif" font-size="13" lengthAdjust="spacing" textLength="26" x="415" y="891.2466">封装</text><text fill="#000000" font-family="sans-serif" font-size="13" font-weight="700" lengthAdjust="spacing" textLength="88.4038" x="445.1324" y="891.2466">OAuth2User</text><text fill="#000000" font-family="sans-serif" font-size="13" lengthAdjust="spacing" textLength="26" x="537.6685" y="891.2466">对象</text><text fill="#000000" font-family="sans-serif" font-size="13" lengthAdjust="spacing" textLength="26" x="415" y="906.3794">创建</text><text fill="#000000" font-family="sans-serif" font-size="13" font-weight="700" lengthAdjust="spacing" textLength="88.9116" x="445.1324" y="906.3794">HttpSession</text><text fill="#000000" font-family="sans-serif" font-size="13" lengthAdjust="spacing" textLength="26" x="415" y="921.5122">生成</text><text fill="#000000" font-family="sans-serif" font-size="13" font-weight="700" lengthAdjust="spacing" textLength="84.2017" x="445.1324" y="921.5122">JSESSIONID</text><g class="message" data-entity-1="part3" data-entity-2="part2" data-source-line="35" id="msg11"><polygon fill="#181818" points="233.0922,966.8438,223.0922,970.8438,233.0922,974.8438,229.0922,970.8438" style="stroke:#181818;stroke-width:1;"/><line style="stroke:#181818;stroke-width:1;" x1="227.0922" x2="493.4824" y1="970.8438" y2="970.8438"/><text fill="#000000" font-family="sans-serif" font-size="13" lengthAdjust="spacing" textLength="106.9454" x="239.0922" y="950.645">302 重定向至首页</text><text fill="#000000" font-family="sans-serif" font-size="13" lengthAdjust="spacing" textLength="187.0845" x="239.0922" y="965.7778">Set-Cookie: JSESSIONID=xxx</text></g><rect fill="#EEEEEE" height="3" style="stroke:#EEEEEE;stroke-width:1;" width="965.8824" x="0" y="999.4102"/><line style="stroke:#000000;stroke-width:1;" x1="0" x2="965.8824" y1="999.4102" y2="999.4102"/><line style="stroke:#000000;stroke-width:1;" x1="0" x2="965.8824" y1="1002.4102" y2="1002.4102"/><rect fill="#EEEEEE" height="23.1328" style="stroke:#000000;stroke-width:2;" width="115.0357" x="425.4233" y="988.8438"/><text fill="#000000" font-family="sans-serif" font-size="13" font-weight="700" lengthAdjust="spacing" textLength="96.5099" x="431.4233" y="1004.9106">5. 获取用户信息</text><g class="message" data-entity-1="part1" data-entity-2="part2" data-source-line="39" id="msg12"><polygon fill="#181818" points="210.0922,1039.1094,220.0922,1043.1094,210.0922,1047.1094,214.0922,1043.1094" style="stroke:#181818;stroke-width:1;"/><line style="stroke:#181818;stroke-width:1;" x1="50.6869" x2="216.0922" y1="1043.1094" y2="1043.1094"/><text fill="#000000" font-family="sans-serif" font-size="13" lengthAdjust="spacing" textLength="78.0001" x="57.6869" y="1038.0435">访问前端页面</text></g><g class="message" data-entity-1="part2" data-entity-2="part3" data-source-line="40" id="msg13"><polygon fill="#181818" points="482.4824,1083.375,492.4824,1087.375,482.4824,1091.375,486.4824,1087.375" style="stroke:#181818;stroke-width:1;"/><line style="stroke:#181818;stroke-width:1;" x1="222.0922" x2="488.4824" y1="1087.375" y2="1087.375"/><text fill="#000000" font-family="sans-serif" font-size="13" lengthAdjust="spacing" textLength="111.687" x="229.0922" y="1067.1763">GET /api/userinfo</text><text fill="#000000" font-family="sans-serif" font-size="13" lengthAdjust="spacing" textLength="161.0464" x="229.0922" y="1082.3091">Cookie: JSESSIONID=xxx</text></g><path d="M499,1100.375 L499,1155.375 L632,1155.375 L632,1110.375 L622,1100.375 L499,1100.375" fill="#FEFFDD" style="stroke:#181818;stroke-width:0.5;"/><path d="M622,1100.375 L622,1110.375 L632,1110.375 L622,1100.375" fill="#FEFFDD" style="stroke:#181818;stroke-width:0.5;"/><text fill="#000000" font-family="sans-serif" font-size="13" lengthAdjust="spacing" textLength="104.5713" x="505" y="1117.4419">通过 JSESSIONID</text><text fill="#000000" font-family="sans-serif" font-size="13" lengthAdjust="spacing" textLength="112.0869" x="505" y="1132.5747">从 HttpSession 中</text><text fill="#000000" font-family="sans-serif" font-size="13" lengthAdjust="spacing" textLength="108.7354" x="505" y="1147.7075">提取 OAuth2User</text><g class="message" data-entity-1="part3" data-entity-2="part2" data-source-line="42" id="msg14"><polygon fill="#181818" points="233.0922,1193.0391,223.0922,1197.0391,233.0922,1201.0391,229.0922,1197.0391" style="stroke:#181818;stroke-width:1;"/><line style="stroke:#181818;stroke-width:1;" x1="227.0922" x2="493.4824" y1="1197.0391" y2="1197.0391"/><text fill="#000000" font-family="sans-serif" font-size="13" lengthAdjust="spacing" textLength="47.7026" x="239.0922" y="1176.8403">200 OK</text><text fill="#000000" font-family="sans-serif" font-size="13" lengthAdjust="spacing" textLength="174.5859" x="239.0922" y="1191.9731">{ login, avatar_url, email }</text></g><g class="message" data-entity-1="part2" data-entity-2="part1" data-source-line="43" id="msg15"><polygon fill="#181818" points="61.6869,1222.1719,51.6869,1226.1719,61.6869,1230.1719,57.6869,1226.1719" style="stroke:#181818;stroke-width:1;"/><line style="stroke:#181818;stroke-width:1;" x1="55.6869" x2="221.0922" y1="1226.1719" y2="1226.1719"/><text fill="#000000" font-family="sans-serif" font-size="13" lengthAdjust="spacing" textLength="135.402" x="67.6869" y="1221.106">展示用户头像 &amp; 用户名</text></g><rect fill="#EEEEEE" height="3" style="stroke:#EEEEEE;stroke-width:1;" width="965.8824" x="0" y="1254.7383"/><line style="stroke:#000000;stroke-width:1;" x1="0" x2="965.8824" y1="1254.7383" y2="1254.7383"/><line style="stroke:#000000;stroke-width:1;" x1="0" x2="965.8824" y1="1257.7383" y2="1257.7383"/><rect fill="#EEEEEE" height="23.1328" style="stroke:#000000;stroke-width:2;" width="89.0357" x="438.4233" y="1244.1719"/><text fill="#000000" font-family="sans-serif" font-size="13" font-weight="700" lengthAdjust="spacing" textLength="70.5098" x="444.4233" y="1260.2388">6. 退出登录</text><g class="message" data-entity-1="part1" data-entity-2="part2" data-source-line="47" id="msg16"><polygon fill="#181818" points="210.0922,1294.4375,220.0922,1298.4375,210.0922,1302.4375,214.0922,1298.4375" style="stroke:#181818;stroke-width:1;"/><line style="stroke:#181818;stroke-width:1;" x1="50.6869" x2="216.0922" y1="1298.4375" y2="1298.4375"/><text fill="#000000" font-family="sans-serif" font-size="13" lengthAdjust="spacing" textLength="94.0914" x="57.6869" y="1293.3716">点击 "退出登录"</text></g><g class="message" data-entity-1="part2" data-entity-2="part3" data-source-line="48" id="msg17"><polygon fill="#181818" points="482.4824,1338.7031,492.4824,1342.7031,482.4824,1346.7031,486.4824,1342.7031" style="stroke:#181818;stroke-width:1;"/><line style="stroke:#181818;stroke-width:1;" x1="222.0922" x2="488.4824" y1="1342.7031" y2="1342.7031"/><text fill="#000000" font-family="sans-serif" font-size="13" lengthAdjust="spacing" textLength="83.8843" x="229.0922" y="1322.5044">POST /logout</text><text fill="#000000" font-family="sans-serif" font-size="13" lengthAdjust="spacing" textLength="161.0464" x="229.0922" y="1337.6372">Cookie: JSESSIONID=xxx</text></g><path d="M499,1355.7031 L499,1395.7031 L661,1395.7031 L661,1365.7031 L651,1355.7031 L499,1355.7031" fill="#FEFFDD" style="stroke:#181818;stroke-width:0.5;"/><path d="M651,1355.7031 L651,1365.7031 L661,1365.7031 L651,1355.7031" fill="#FEFFDD" style="stroke:#181818;stroke-width:0.5;"/><text fill="#000000" font-family="sans-serif" font-size="13" lengthAdjust="spacing" textLength="141.6226" x="505" y="1372.77">1. 使 HttpSession 失效</text><text fill="#000000" font-family="sans-serif" font-size="13" lengthAdjust="spacing" textLength="121.107" x="505" y="1387.9028">2. 清除 JSESSIONID</text><g class="message" data-entity-1="part3" data-entity-2="part2" data-source-line="50" id="msg18"><polygon fill="#181818" points="233.0922,1433.2344,223.0922,1437.2344,233.0922,1441.2344,229.0922,1437.2344" style="stroke:#181818;stroke-width:1;"/><line style="stroke:#181818;stroke-width:1;" x1="227.0922" x2="493.4824" y1="1437.2344" y2="1437.2344"/><text fill="#000000" font-family="sans-serif" font-size="13" lengthAdjust="spacing" textLength="47.7026" x="239.0922" y="1417.0356">200 OK</text><text fill="#000000" font-family="sans-serif" font-size="13" lengthAdjust="spacing" textLength="248.3901" x="239.0922" y="1432.1685">Set-Cookie: JSESSIONID=; Max-Age=0</text></g><g class="message" data-entity-1="part2" data-entity-2="part1" data-source-line="51" id="msg19"><polygon fill="#181818" points="61.6869,1477.5,51.6869,1481.5,61.6869,1485.5,57.6869,1481.5" style="stroke:#181818;stroke-width:1;"/><line style="stroke:#181818;stroke-width:1;" x1="55.6869" x2="221.0922" y1="1481.5" y2="1481.5"/><text fill="#000000" font-family="sans-serif" font-size="13" lengthAdjust="spacing" textLength="78.0001" x="67.6869" y="1461.3013">跳转至登录页</text><text fill="#000000" font-family="sans-serif" font-size="13" lengthAdjust="spacing" textLength="104.0001" x="67.6869" y="1476.4341">清除前端本地状态</text></g><?plantuml-src bLLTJnj757tthxZoGnGSC9IaVN3bLacQhrOjLJTzMmbjbeaPnPsrrkC86aN2H95D-B1JGLe8j3MrKaGI6veI1rpaF-EPtVqNlRjZx3N5QUiNUtVklNFEkUTUSyhJ16An6vJVpDs1YSivFZqEpdfJ7A_9WxopinYBHIA6oIqRr2VghEx8OWFEouEI-tjHhEyCHOC38mlVPeaToHWsfoRD68n3L2miEo_hNkN0szgEGlU3iTTjYt72flhZjOnDMGeqOkPiocTrTbwKLx32K3IKUiKmx_qZKp7GcS_0ikdt1gSMmqBsVM97LPuAYKIIIVWW3gBqr3reAAgGJ4OYFdeO-QIB31BWp1-AGlEaU4UNACYb1U-7MgGRY4aTJ9Xpuzfj6BKCNyXH8mncD4NvDDxFB4x0fgbf3jRTKE8fxfrcwCmjx8edEtBnXIpkYiEtpkelibZMcLmfogr7RhqXz-T5QLwkxKLEQY6U3k84U8LbKTiGvQTkuSt9MvMANK5zpJGbZ4_IgM6moHIrYSadyVvXo9fMXk0NDpWP2aGRZ_SN25JhlC4h0_qI8FRNdEgHYd0gDRTMLUtlwjk5favLv2bLUZ41MtHedvIJfZL5q9czotioNXmRxv4Mpty6qqYdx-2npZxrqv8pCpFd0bR9sTdPWTsGlrQytIL57vI-ElD--aE-teQhsZVNGQusqHk1C1VZ89UtHUaPtBOmFT3bh5vyFQ6XDz9MYZBba573D4asEydzD9rrUm4NeFCxIqoRSFyPeP_9rssj-YnHeL0jr6OWiQMyt5o0S3JWa9tuJ1bA3NcxLP7v-jbS0fldiAMdHYu1LuXXOwSVX6zu-1xeuRlGa84yms3SDxXX3mFvpg3fU3okB7W9vxPvvBnSRF-ruTQt0gK3eXQEUQYosCkxlpr6KTGG-TQBnK3K3ztzYiv4yJbMmTERd6Sq18cuOp6TTStskNPDqsvDV7NhCnGon3wq6lfiXhFblNWM39H6-CXLoxf7IG9wPNpJ1GG-Z8Exqa2hX5aFMZzkhUNzM0llqFVj72D3WuPGTjVIsG0CWrpXpMsuhK8eMcVjvWg418BskzUuTKfbt-SzMGV8Cpus1XDVwEm1zFKJLqkwqrDus4UcRtieSKJrJ_6e1EUWyrXU3YJyA8vevqJXwB_jxd1iT81-tS6qSln_IuV_9UtZLfzKehelruewmuqftptsrgkXMlyYs03_V0nV6ZCZbrCaENQMR6xZZNly2cseU0PEL3ShzyZDLs9pptdoLixb_mO0?></g></svg>