<svg xmlns="http://www.w3.org/2000/svg" xmlns:xlink="http://www.w3.org/1999/xlink" contentStyleType="text/css" data-diagram-type="SEQUENCE" height="1110px" preserveAspectRatio="none" style="width:1084px;height:1110px;background:#FEFEFE;" version="1.1" viewBox="0 0 1084 1110" width="1084px" zoomAndPan="magnify"><title>&#30701;&#20449;&#39564;&#35777;&#30721;&#30331;&#24405;&#24037;&#20316;&#27969;&#31243;</title><defs/><g><rect fill="#FEFEFE" height="1110" style="stroke:#FFFFFF00;stroke-width:1;" width="1084" x="0" y="0"/><text fill="#000000" font-family="sans-serif" font-size="14" font-weight="bold" lengthAdjust="spacing" textLength="154" x="461.1787" y="29.8135">&#30701;&#20449;&#39564;&#35777;&#30721;&#30331;&#24405;&#24037;&#20316;&#27969;&#31243;</text><g><title>&lt;u&gt;&#29992;&#25143;</title><rect fill="#FFFFFF" fill-opacity="0.00000" height="904.9429" width="8" x="18" y="122.9551"/><line style="stroke:#181818;stroke-width:0.5;stroke-dasharray:5.0,5.0;" x1="22" x2="22" y1="122.9551" y2="1027.8979"/></g><g><title>&lt;u&gt;SmsAuthenticationFilter</title><rect fill="#FFFFFF" fill-opacity="0.00000" height="904.9429" width="8" x="146.2539" y="122.9551"/><line style="stroke:#181818;stroke-width:0.5;stroke-dasharray:5.0,5.0;" x1="150.1914" x2="150.1914" y1="122.9551" y2="1027.8979"/></g><g><title>&lt;u&gt;AuthenticationManager</title><rect fill="#FFFFFF" fill-opacity="0.00000" height="904.9429" width="8" x="345.9609" y="122.9551"/><line style="stroke:#181818;stroke-width:0.5;stroke-dasharray:5.0,5.0;" x1="349.4214" x2="349.4214" y1="122.9551" y2="1027.8979"/></g><g><title>&lt;u&gt;SmsAuthenticationProvider</title><rect fill="#FFFFFF" fill-opacity="0.00000" height="904.9429" width="8" x="540.9312" y="122.9551"/><line style="stroke:#181818;stroke-width:0.5;stroke-dasharray:5.0,5.0;" x1="544.5005" x2="544.5005" y1="122.9551" y2="1027.8979"/></g><g><title>&lt;u&gt;Redis</title><rect fill="#FFFFFF" fill-opacity="0.00000" height="904.9429" width="8" x="674.4839" y="122.9551"/><line style="stroke:#181818;stroke-width:0.5;stroke-dasharray:5.0,5.0;" x1="678.3618" x2="678.3618" y1="122.9551" y2="1027.8979"/></g><g><title>&lt;u&gt;UserDetailsService</title><rect fill="#FFFFFF" fill-opacity="0.00000" height="904.9429" width="8" x="778.167" y="122.9551"/><line style="stroke:#181818;stroke-width:0.5;stroke-dasharray:5.0,5.0;" x1="781.606" x2="781.606" y1="122.9551" y2="1027.8979"/></g><g><title>&lt;u&gt;JwtFilter</title><rect fill="#FFFFFF" fill-opacity="0.00000" height="904.9429" width="8" x="891.3315" y="122.9551"/><line style="stroke:#181818;stroke-width:0.5;stroke-dasharray:5.0,5.0;" x1="894.728" x2="894.728" y1="122.9551" y2="1027.8979"/></g><g><title>&lt;u&gt;&#39564;&#30721;&#26381;&#21153;</title><rect fill="#FFFFFF" fill-opacity="0.00000" height="904.9429" width="8" x="1033.3574" y="122.9551"/><line style="stroke:#181818;stroke-width:0.5;stroke-dasharray:5.0,5.0;" x1="1037.3574" x2="1037.3574" y1="122.9551" y2="1027.8979"/></g><g><text fill="#000000" font-family="sans-serif" font-size="14" lengthAdjust="spacing" text-decoration="underline" textLength="28" x="5" y="119.291">&#29992;&#25143;</text><ellipse cx="22" cy="52.9775" fill="#E2E2F0" rx="8" ry="8" style="stroke:#181818;stroke-width:0.5;"/><path d="M22,60.9775 L22,87.9775 M9,68.9775 L35,68.9775 M22,87.9775 L9,102.9775 M22,87.9775 L35,102.9775 " fill="#FFFFFF" fill-opacity="0.00000" style="stroke:#181818;stroke-width:0.5;"/></g><g><text fill="#000000" font-family="sans-serif" font-size="14" lengthAdjust="spacing" text-decoration="underline" textLength="28" x="5" y="1041.7114">&#29992;&#25143;</text><ellipse cx="22" cy="1053.8755" fill="#E2E2F0" rx="8" ry="8" style="stroke:#181818;stroke-width:0.5;"/><path d="M22,1061.8755 L22,1088.8755 M9,1069.8755 L35,1069.8755 M22,1088.8755 L9,1103.8755 M22,1088.8755 L35,1103.8755 " fill="#FFFFFF" fill-opacity="0.00000" style="stroke:#181818;stroke-width:0.5;"/></g><g><rect fill="#E2E2F0" height="32.4775" rx="4" ry="4" style="stroke:#181818;stroke-width:0.5;" width="174.125" x="63.1914" y="89.4775"/><text fill="#000000" font-family="sans-serif" font-size="14" lengthAdjust="spacing" text-decoration="underline" textLength="160.125" x="70.1914" y="111.291">SmsAuthenticationFilter</text></g><g><rect fill="#E2E2F0" height="32.4775" rx="4" ry="4" style="stroke:#181818;stroke-width:0.5;" width="174.125" x="63.1914" y="1026.8979"/><text fill="#000000" font-family="sans-serif" font-size="14" lengthAdjust="spacing" text-decoration="underline" textLength="160.125" x="70.1914" y="1048.7114">SmsAuthenticationFilter</text></g><g><rect fill="#E2E2F0" height="32.4775" rx="4" ry="4" style="stroke:#181818;stroke-width:0.5;" width="173.0791" x="263.4214" y="89.4775"/><text fill="#000000" font-family="sans-serif" font-size="14" lengthAdjust="spacing" text-decoration="underline" textLength="159.0791" x="270.4214" y="111.291">AuthenticationManager</text></g><g><rect fill="#E2E2F0" height="32.4775" rx="4" ry="4" style="stroke:#181818;stroke-width:0.5;" width="173.0791" x="263.4214" y="1026.8979"/><text fill="#000000" font-family="sans-serif" font-size="14" lengthAdjust="spacing" text-decoration="underline" textLength="159.0791" x="270.4214" y="1048.7114">AuthenticationManager</text></g><g><rect fill="#E2E2F0" height="32.4775" rx="4" ry="4" style="stroke:#181818;stroke-width:0.5;" width="196.8613" x="446.5005" y="89.4775"/><text fill="#000000" font-family="sans-serif" font-size="14" lengthAdjust="spacing" text-decoration="underline" textLength="182.8613" x="453.5005" y="111.291">SmsAuthenticationProvider</text></g><g><rect fill="#E2E2F0" height="32.4775" rx="4" ry="4" style="stroke:#181818;stroke-width:0.5;" width="196.8613" x="446.5005" y="1026.8979"/><text fill="#000000" font-family="sans-serif" font-size="14" lengthAdjust="spacing" text-decoration="underline" textLength="182.8613" x="453.5005" y="1048.7114">SmsAuthenticationProvider</text></g><g><rect fill="#E2E2F0" height="32.4775" rx="4" ry="4" style="stroke:#181818;stroke-width:0.5;" width="50.2441" x="653.3618" y="89.4775"/><text fill="#000000" font-family="sans-serif" font-size="14" lengthAdjust="spacing" text-decoration="underline" textLength="36.2441" x="660.3618" y="111.291">Redis</text></g><g><rect fill="#E2E2F0" height="32.4775" rx="4" ry="4" style="stroke:#181818;stroke-width:0.5;" width="50.2441" x="653.3618" y="1026.8979"/><text fill="#000000" font-family="sans-serif" font-size="14" lengthAdjust="spacing" text-decoration="underline" textLength="36.2441" x="660.3618" y="1048.7114">Redis</text></g><g><rect fill="#E2E2F0" height="32.4775" rx="4" ry="4" style="stroke:#181818;stroke-width:0.5;" width="137.1221" x="713.606" y="89.4775"/><text fill="#000000" font-family="sans-serif" font-size="14" lengthAdjust="spacing" text-decoration="underline" textLength="123.1221" x="720.606" y="111.291">UserDetailsService</text></g><g><rect fill="#E2E2F0" height="32.4775" rx="4" ry="4" style="stroke:#181818;stroke-width:0.5;" width="137.1221" x="713.606" y="1026.8979"/><text fill="#000000" font-family="sans-serif" font-size="14" lengthAdjust="spacing" text-decoration="underline" textLength="123.1221" x="720.606" y="1048.7114">UserDetailsService</text></g><g><rect fill="#E2E2F0" height="32.4775" rx="4" ry="4" style="stroke:#181818;stroke-width:0.5;" width="69.207" x="860.728" y="89.4775"/><text fill="#000000" font-family="sans-serif" font-size="14" lengthAdjust="spacing" text-decoration="underline" textLength="55.207" x="867.728" y="111.291">JwtFilter</text></g><g><rect fill="#E2E2F0" height="32.4775" rx="4" ry="4" style="stroke:#181818;stroke-width:0.5;" width="69.207" x="860.728" y="1026.8979"/><text fill="#000000" font-family="sans-serif" font-size="14" lengthAdjust="spacing" text-decoration="underline" textLength="55.207" x="867.728" y="1048.7114">JwtFilter</text></g><g><rect fill="#E2E2F0" height="32.4775" rx="4" ry="4" style="stroke:#181818;stroke-width:0.5;" width="70" x="1002.3574" y="89.4775"/><text fill="#000000" font-family="sans-serif" font-size="14" lengthAdjust="spacing" text-decoration="underline" textLength="56" x="1009.3574" y="111.291">&#39564;&#30721;&#26381;&#21153;</text></g><g><rect fill="#E2E2F0" height="32.4775" rx="4" ry="4" style="stroke:#181818;stroke-width:0.5;" width="70" x="1002.3574" y="1026.8979"/><text fill="#000000" font-family="sans-serif" font-size="14" lengthAdjust="spacing" text-decoration="underline" textLength="56" x="1009.3574" y="1048.7114">&#39564;&#30721;&#26381;&#21153;</text></g><rect fill="#EEEEEE" height="3" rx="4" ry="4" style="stroke:#EEEEEE;stroke-width:1;" width="1077.3574" x="0" y="154.5339"/><line style="stroke:#000000;stroke-width:1;" x1="0" x2="1077.3574" y1="154.5339" y2="154.5339"/><line style="stroke:#000000;stroke-width:1;" x1="0" x2="1077.3574" y1="157.5339" y2="157.5339"/><rect fill="#EEEEEE" height="25.1577" rx="4" ry="4" style="stroke:#000000;stroke-width:2;" width="157" x="460.1787" y="142.9551"/><text fill="#000000" font-family="sans-serif" font-size="13" font-weight="bold" lengthAdjust="spacing" textLength="143" x="466.1787" y="160.7104">&#21457;&#36865;&#39564;&#35777;&#30721;&#65288;&#21069;&#32622;&#27493;&#39588;&#65289;</text><g><polygon fill="#181818" points="1025.3574,197.2705,1035.3574,201.2705,1025.3574,205.2705,1029.3574,201.2705" style="stroke:#181818;stroke-width:1;"/><line style="stroke:#181818;stroke-width:1.5;" x1="22" x2="1031.3574" y1="201.2705" y2="201.2705"/><text fill="#000000" font-family="sans-serif" font-size="13" lengthAdjust="spacing" textLength="91" x="29" y="195.8682">&#35831;&#27714;&#21457;&#36865;&#39564;&#35777;&#30721;</text></g><g><polygon fill="#181818" points="689.4839,228.4282,679.4839,232.4282,689.4839,236.4282,685.4839,232.4282" style="stroke:#181818;stroke-width:1;"/><line style="stroke:#181818;stroke-width:1.5;" x1="683.4839" x2="1036.3574" y1="232.4282" y2="232.4282"/><text fill="#000000" font-family="sans-serif" font-size="13" lengthAdjust="spacing" textLength="139.7056" x="695.4839" y="227.0259">&#23384;&#20648;&#39564;&#35777;&#30721; (TTL: 5&#20998;&#38047;)</text></g><g><polygon fill="#181818" points="33,259.5859,23,263.5859,33,267.5859,29,263.5859" style="stroke:#181818;stroke-width:1;"/><line style="stroke:#181818;stroke-width:1.5;stroke-dasharray:2.0,2.0;" x1="27" x2="1036.3574" y1="263.5859" y2="263.5859"/><text fill="#000000" font-family="sans-serif" font-size="13" lengthAdjust="spacing" textLength="65" x="39" y="258.1836">&#30701;&#20449;&#24050;&#21457;&#36865;</text></g><rect fill="#EEEEEE" height="3" rx="4" ry="4" style="stroke:#EEEEEE;stroke-width:1;" width="1077.3574" x="0" y="293.1648"/><line style="stroke:#000000;stroke-width:1;" x1="0" x2="1077.3574" y1="293.1648" y2="293.1648"/><line style="stroke:#000000;stroke-width:1;" x1="0" x2="1077.3574" y1="296.1648" y2="296.1648"/><rect fill="#EEEEEE" height="25.1577" rx="4" ry="4" style="stroke:#000000;stroke-width:2;" width="69.8721" x="503.7427" y="281.5859"/><text fill="#000000" font-family="sans-serif" font-size="13" font-weight="bold" lengthAdjust="spacing" textLength="52" x="509.7427" y="299.3413">&#30331;&#24405;&#35748;&#35777;</text><g><polygon fill="#181818" points="138.2539,353.0591,148.2539,357.0591,138.2539,361.0591,142.2539,357.0591" style="stroke:#181818;stroke-width:1;"/><line style="stroke:#181818;stroke-width:1.5;" x1="22" x2="144.2539" y1="357.0591" y2="357.0591"/><text fill="#000000" font-family="sans-serif" font-size="13" lengthAdjust="spacing" textLength="104.2539" x="29" y="334.499">POST /sms-login</text><text fill="#000000" font-family="sans-serif" font-size="13" lengthAdjust="spacing" textLength="86.0933" x="29" y="351.6567">(phone, code)</text></g><g><line style="stroke:#181818;stroke-width:1.5;" x1="150.2539" x2="192.2539" y1="388.2168" y2="388.2168"/><line style="stroke:#181818;stroke-width:1.5;" x1="192.2539" x2="192.2539" y1="388.2168" y2="401.2168"/><line style="stroke:#181818;stroke-width:1.5;" x1="151.2539" x2="192.2539" y1="401.2168" y2="401.2168"/><polygon fill="#181818" points="161.2539,397.2168,151.2539,401.2168,161.2539,405.2168,157.2539,401.2168" style="stroke:#181818;stroke-width:1;"/><text fill="#000000" font-family="sans-serif" font-size="13" lengthAdjust="spacing" textLength="185.707" x="157.2539" y="382.8145">&#26500;&#24314; SmsAuthenticationToken</text></g><g><polygon fill="#181818" points="337.9609,428.3745,347.9609,432.3745,337.9609,436.3745,341.9609,432.3745" style="stroke:#181818;stroke-width:1;"/><line style="stroke:#181818;stroke-width:1.5;" x1="150.2539" x2="343.9609" y1="432.3745" y2="432.3745"/><text fill="#000000" font-family="sans-serif" font-size="13" lengthAdjust="spacing" textLength="86.3408" x="157.2539" y="426.9722">authenticate()</text></g><g><polygon fill="#181818" points="532.9312,459.5322,542.9312,463.5322,532.9312,467.5322,536.9312,463.5322" style="stroke:#181818;stroke-width:1;"/><line style="stroke:#181818;stroke-width:1.5;" x1="349.9609" x2="538.9312" y1="463.5322" y2="463.5322"/><text fill="#000000" font-family="sans-serif" font-size="13" lengthAdjust="spacing" textLength="86.3408" x="356.9609" y="458.1299">authenticate()</text></g><g><polygon fill="#181818" points="666.4839,490.6899,676.4839,494.6899,666.4839,498.6899,670.4839,494.6899" style="stroke:#181818;stroke-width:1;"/><line style="stroke:#181818;stroke-width:1.5;" x1="544.9312" x2="672.4839" y1="494.6899" y2="494.6899"/><text fill="#000000" font-family="sans-serif" font-size="13" lengthAdjust="spacing" textLength="91" x="551.9312" y="489.2876">&#33719;&#21462;&#32531;&#23384;&#39564;&#35777;&#30721;</text></g><g><polygon fill="#181818" points="555.9312,521.8477,545.9312,525.8477,555.9312,529.8477,551.9312,525.8477" style="stroke:#181818;stroke-width:1;"/><line style="stroke:#181818;stroke-width:1.5;stroke-dasharray:2.0,2.0;" x1="549.9312" x2="677.4839" y1="525.8477" y2="525.8477"/><text fill="#000000" font-family="sans-serif" font-size="13" lengthAdjust="spacing" textLength="65" x="561.9312" y="520.4453">&#36820;&#22238;&#39564;&#35777;&#30721;</text></g><g><line style="stroke:#181818;stroke-width:1.5;" x1="544.9312" x2="586.9312" y1="557.0054" y2="557.0054"/><line style="stroke:#181818;stroke-width:1.5;" x1="586.9312" x2="586.9312" y1="557.0054" y2="570.0054"/><line style="stroke:#181818;stroke-width:1.5;" x1="545.9312" x2="586.9312" y1="570.0054" y2="570.0054"/><polygon fill="#181818" points="555.9312,566.0054,545.9312,570.0054,555.9312,574.0054,551.9312,570.0054" style="stroke:#181818;stroke-width:1;"/><text fill="#000000" font-family="sans-serif" font-size="13" lengthAdjust="spacing" textLength="65" x="551.9312" y="551.603">&#27604;&#23545;&#39564;&#35777;&#30721;</text></g><g><polygon fill="#181818" points="770.167,597.1631,780.167,601.1631,770.167,605.1631,774.167,601.1631" style="stroke:#181818;stroke-width:1;"/><line style="stroke:#181818;stroke-width:1.5;" x1="544.9312" x2="776.167" y1="601.1631" y2="601.1631"/><text fill="#000000" font-family="sans-serif" font-size="13" lengthAdjust="spacing" textLength="181.7842" x="551.9312" y="595.7607">loadUserByUsername(phone)</text></g><g><polygon fill="#181818" points="555.9312,628.3208,545.9312,632.3208,555.9312,636.3208,551.9312,632.3208" style="stroke:#181818;stroke-width:1;"/><line style="stroke:#181818;stroke-width:1.5;stroke-dasharray:2.0,2.0;" x1="549.9312" x2="781.167" y1="632.3208" y2="632.3208"/><text fill="#000000" font-family="sans-serif" font-size="13" lengthAdjust="spacing" textLength="78" x="561.9312" y="626.9185">&#36820;&#22238;&#29992;&#25143;&#20449;&#24687;</text></g><g><line style="stroke:#181818;stroke-width:1.5;" x1="544.9312" x2="586.9312" y1="663.4785" y2="663.4785"/><line style="stroke:#181818;stroke-width:1.5;" x1="586.9312" x2="586.9312" y1="663.4785" y2="676.4785"/><line style="stroke:#181818;stroke-width:1.5;" x1="545.9312" x2="586.9312" y1="676.4785" y2="676.4785"/><polygon fill="#181818" points="555.9312,672.4785,545.9312,676.4785,555.9312,680.4785,551.9312,676.4785" style="stroke:#181818;stroke-width:1;"/><text fill="#000000" font-family="sans-serif" font-size="13" lengthAdjust="spacing" textLength="107.0278" x="551.9312" y="658.0762">&#26500;&#24314;&#24050;&#35748;&#35777; Token</text></g><g><polygon fill="#181818" points="360.9609,703.6362,350.9609,707.6362,360.9609,711.6362,356.9609,707.6362" style="stroke:#181818;stroke-width:1;"/><line style="stroke:#181818;stroke-width:1.5;stroke-dasharray:2.0,2.0;" x1="354.9609" x2="543.9312" y1="707.6362" y2="707.6362"/><text fill="#000000" font-family="sans-serif" font-size="13" lengthAdjust="spacing" textLength="52" x="366.9609" y="702.2339">&#35748;&#35777;&#25104;&#21151;</text></g><g><polygon fill="#181818" points="161.2539,734.7939,151.2539,738.7939,161.2539,742.7939,157.2539,738.7939" style="stroke:#181818;stroke-width:1;"/><line style="stroke:#181818;stroke-width:1.5;stroke-dasharray:2.0,2.0;" x1="155.2539" x2="348.9609" y1="738.7939" y2="738.7939"/><text fill="#000000" font-family="sans-serif" font-size="13" lengthAdjust="spacing" textLength="121.8242" x="167.2539" y="733.3916">&#36820;&#22238; Authentication</text></g><g><line style="stroke:#181818;stroke-width:1.5;" x1="150.2539" x2="192.2539" y1="769.9517" y2="769.9517"/><line style="stroke:#181818;stroke-width:1.5;" x1="192.2539" x2="192.2539" y1="769.9517" y2="782.9517"/><line style="stroke:#181818;stroke-width:1.5;" x1="151.2539" x2="192.2539" y1="782.9517" y2="782.9517"/><polygon fill="#181818" points="161.2539,778.9517,151.2539,782.9517,161.2539,786.9517,157.2539,782.9517" style="stroke:#181818;stroke-width:1;"/><text fill="#000000" font-family="sans-serif" font-size="13" lengthAdjust="spacing" textLength="128.0259" x="157.2539" y="764.5493">&#35774;&#32622; SecurityContext</text></g><g><polygon fill="#181818" points="33,810.1094,23,814.1094,33,818.1094,29,814.1094" style="stroke:#181818;stroke-width:1;"/><line style="stroke:#181818;stroke-width:1.5;stroke-dasharray:2.0,2.0;" x1="27" x2="149.2539" y1="814.1094" y2="814.1094"/><text fill="#000000" font-family="sans-serif" font-size="13" lengthAdjust="spacing" textLength="52" x="39" y="808.707">&#30331;&#24405;&#25104;&#21151;</text></g><rect fill="#EEEEEE" height="3" rx="4" ry="4" style="stroke:#EEEEEE;stroke-width:1;" width="1077.3574" x="0" y="843.6882"/><line style="stroke:#000000;stroke-width:1;" x1="0" x2="1077.3574" y1="843.6882" y2="843.6882"/><line style="stroke:#000000;stroke-width:1;" x1="0" x2="1077.3574" y1="846.6882" y2="846.6882"/><rect fill="#EEEEEE" height="25.1577" rx="4" ry="4" style="stroke:#000000;stroke-width:2;" width="108.8721" x="484.2427" y="832.1094"/><text fill="#000000" font-family="sans-serif" font-size="13" font-weight="bold" lengthAdjust="spacing" textLength="91" x="490.2427" y="849.8647">&#35775;&#38382;&#21463;&#20445;&#25252;&#36164;&#28304;</text><g><polygon fill="#181818" points="883.3315,886.4248,893.3315,890.4248,883.3315,894.4248,887.3315,890.4248" style="stroke:#181818;stroke-width:1;"/><line style="stroke:#181818;stroke-width:1.5;" x1="22" x2="889.3315" y1="890.4248" y2="890.4248"/><text fill="#000000" font-family="sans-serif" font-size="13" lengthAdjust="spacing" textLength="182.3745" x="29" y="885.0225">GET /api (Header: token=xxx)</text></g><g><line style="stroke:#181818;stroke-width:1.5;" x1="895.3315" x2="937.3315" y1="921.5825" y2="921.5825"/><line style="stroke:#181818;stroke-width:1.5;" x1="937.3315" x2="937.3315" y1="921.5825" y2="934.5825"/><line style="stroke:#181818;stroke-width:1.5;" x1="896.3315" x2="937.3315" y1="934.5825" y2="934.5825"/><polygon fill="#181818" points="906.3315,930.5825,896.3315,934.5825,906.3315,938.5825,902.3315,934.5825" style="stroke:#181818;stroke-width:1;"/><text fill="#000000" font-family="sans-serif" font-size="13" lengthAdjust="spacing" textLength="85.522" x="902.3315" y="916.1802">&#39564;&#35777; JWT &#31614;&#21517;</text></g><g><line style="stroke:#181818;stroke-width:1.5;" x1="895.3315" x2="937.3315" y1="965.7402" y2="965.7402"/><line style="stroke:#181818;stroke-width:1.5;" x1="937.3315" x2="937.3315" y1="965.7402" y2="978.7402"/><line style="stroke:#181818;stroke-width:1.5;" x1="896.3315" x2="937.3315" y1="978.7402" y2="978.7402"/><polygon fill="#181818" points="906.3315,974.7402,896.3315,978.7402,906.3315,982.7402,902.3315,978.7402" style="stroke:#181818;stroke-width:1;"/><text fill="#000000" font-family="sans-serif" font-size="13" lengthAdjust="spacing" textLength="128.0259" x="902.3315" y="960.3379">&#35774;&#32622; SecurityContext</text></g><g><polygon fill="#181818" points="33,1005.8979,23,1009.8979,33,1013.8979,29,1009.8979" style="stroke:#181818;stroke-width:1;"/><line style="stroke:#181818;stroke-width:1.5;stroke-dasharray:2.0,2.0;" x1="27" x2="894.3315" y1="1009.8979" y2="1009.8979"/><text fill="#000000" font-family="sans-serif" font-size="13" lengthAdjust="spacing" textLength="52" x="39" y="1004.4956">&#36820;&#22238;&#36164;&#28304;</text></g><!--SRC=[XPDFQnD16CRlyoc6Uad0AXuA4eWG-qSf5eD9yU9bt0pfaCrCd9sqwSsK8ccqjcgqYhMrq48f946X1FilNwQpkpdrApWxaswpgKKMmcQUtpplEyyxwnG8BI6EYl0biWfvpieqDyvink6jgSdW0Kv8QD5Yd68Exm-iE_XL6LCBfpXd2zavOXKeTXnuxyxOFw0que9Of8IeWCeESvjG380WmiRGsswUTtTw1-_yTjNxMVM-7SlJpxApTtwwwHvMlVst021BgEQynhvRwu3IWDb8fkYaoc8EKxM4165qYjW2yn6879X9JKNXA3c3AChtqTJCVspJdCsJN6YSZkBFS8uuMj9lKN7MmNm22qHi9uFvFB6m9cSdCb5kUa4CD3_zF0j0CWdbseVUwsgOpiL9JQwiUgSjjxdNEzYzE5b99e491eu-W8fJaBkvAkixC07zTiVzjJHa0IAGsgHxLhHiVfLB-o47OzdiamGSaxKtlO_RyQ5jQb-_RA8_GTdvRIhfliqO_TQkCeEH7jLOr9xqqqmMtdMApgZDyeI-eB7I7AFuDhHO3iT108MikxKiZu_WjQ5aMG7JIpGreqXqfUDO7AWrRPA-BWMB0sVtttVasXVlv9CAuIefeuw67dwt8RzlNUbz4oEwxOPi_xacgZahqMOe5ro4Xul1BqL5RCuR1u4-NC64fJ9rg-sX8ZeA5NK_sSi8qjf3Ps0KjxOkwziwWJ17OmwZ8KQZzbjdwdB13BRAd8Z5SKO5hWZ3H4Qknzil4ipRRtLx6osvjd7U_U7MT_t3PVTeFJfuTQNLpaUJQkweH63iCKRgYqf04PmXMQbKuY10Gj94gVzupJEvlXgLRsXLCuEjcbERXi1V]--></g></svg>