<svg xmlns="http://www.w3.org/2000/svg" xmlns:xlink="http://www.w3.org/1999/xlink" contentStyleType="text/css" data-diagram-type="SEQUENCE" height="596px" preserveAspectRatio="none" style="width:547px;height:596px;background:#FFFFFF;" version="1.1" viewBox="0 0 547 596" width="547px" zoomAndPan="magnify"><?plantuml 1.2026.3beta6?><defs/><g><rect fill="none" height="248.8672" style="stroke:#000000;stroke-width:1.5;" width="521.0846" x="10" y="261.9609"/><g class="participant-lifeline" data-entity-uid="part1" data-qualified-name="U" data-source-line="3" id="part1-lifeline"><g><title>..</title><rect fill="#000000" fill-opacity="0.00000" height="460.5313" width="8" x="36.9999" y="67.2969"/><line style="stroke:#181818;stroke-width:0.5;stroke-dasharray:5,5;" x1="40" x2="40" y1="67.2969" y2="527.8281"/></g></g><g class="participant-lifeline" data-entity-uid="part2" data-qualified-name="C" data-source-line="4" id="part2-lifeline"><g><title>...</title><rect fill="#000000" fill-opacity="0.00000" height="460.5313" width="8" x="165.0455" y="67.2969"/><line style="stroke:#181818;stroke-width:0.5;stroke-dasharray:5,5;" x1="168.0455" x2="168.0455" y1="67.2969" y2="527.8281"/></g></g><g class="participant-lifeline" data-entity-uid="part3" data-qualified-name="RS" data-source-line="5" id="part3-lifeline"><g><title>....</title><rect fill="#000000" fill-opacity="0.00000" height="460.5313" width="8" x="350.0612" y="67.2969"/><line style="stroke:#181818;stroke-width:0.5;stroke-dasharray:5,5;" x1="353.0613" x2="353.0613" y1="67.2969" y2="527.8281"/></g></g><g class="participant-lifeline" data-entity-uid="part4" data-qualified-name="DB" data-source-line="6" id="part4-lifeline"><g><title>...</title><rect fill="#000000" fill-opacity="0.00000" height="460.5313" width="8" x="493.0847" y="67.2969"/><line style="stroke:#181818;stroke-width:0.5;stroke-dasharray:5,5;" x1="496.0848" x2="496.0848" y1="67.2969" y2="527.8281"/></g></g><g class="participant participant-head" data-entity-uid="part1" data-qualified-name="U" data-source-line="3" id="part1-head"><rect fill="#E2E2F0" height="30.2969" rx="2.5" ry="2.5" style="stroke:#181818;stroke-width:0.5;" width="41.9999" x="20" y="36"/><text fill="#000000" font-family="sans-serif" font-size="14" lengthAdjust="spacing" textLength="27.9999" x="27" y="55.9951">用户</text></g><g class="participant participant-tail" data-entity-uid="part1" data-qualified-name="U" data-source-line="3" id="part1-tail"><rect fill="#E2E2F0" height="30.2969" rx="2.5" ry="2.5" style="stroke:#181818;stroke-width:0.5;" width="41.9999" x="20" y="526.8281"/><text fill="#000000" font-family="sans-serif" font-size="14" lengthAdjust="spacing" textLength="27.9999" x="27" y="546.8232">用户</text></g><g class="participant participant-head" data-entity-uid="part2" data-qualified-name="C" data-source-line="4" id="part2-head"><rect fill="#E2E2F0" height="30.2969" rx="2.5" ry="2.5" style="stroke:#181818;stroke-width:0.5;" width="55.9998" x="141.0455" y="36"/><text fill="#000000" font-family="sans-serif" font-size="14" lengthAdjust="spacing" textLength="41.9998" x="148.0455" y="55.9951">客户端</text></g><g class="participant participant-tail" data-entity-uid="part2" data-qualified-name="C" data-source-line="4" id="part2-tail"><rect fill="#E2E2F0" height="30.2969" rx="2.5" ry="2.5" style="stroke:#181818;stroke-width:0.5;" width="55.9998" x="141.0455" y="526.8281"/><text fill="#000000" font-family="sans-serif" font-size="14" lengthAdjust="spacing" textLength="41.9998" x="148.0455" y="546.8232">客户端</text></g><g class="participant participant-head" data-entity-uid="part3" data-qualified-name="RS" data-source-line="5" id="part3-head"><rect fill="#E2E2F0" height="30.2969" rx="2.5" ry="2.5" style="stroke:#181818;stroke-width:0.5;" width="69.9998" x="319.0613" y="36"/><text fill="#000000" font-family="sans-serif" font-size="14" lengthAdjust="spacing" textLength="55.9998" x="326.0613" y="55.9951">资源服务</text></g><g class="participant participant-tail" data-entity-uid="part3" data-qualified-name="RS" data-source-line="5" id="part3-tail"><rect fill="#E2E2F0" height="30.2969" rx="2.5" ry="2.5" style="stroke:#181818;stroke-width:0.5;" width="69.9998" x="319.0613" y="526.8281"/><text fill="#000000" font-family="sans-serif" font-size="14" lengthAdjust="spacing" textLength="55.9998" x="326.0613" y="546.8232">资源服务</text></g><g class="participant participant-head" data-entity-uid="part4" data-qualified-name="DB" data-source-line="6" id="part4-head"><text fill="#000000" font-family="sans-serif" font-size="14" lengthAdjust="spacing" textLength="41.9998" x="473.0848" y="63.9951">权限库</text><path d="M479.0847,15 C479.0847,5 497.0847,5 497.0847,5 C497.0847,5 515.0847,5 515.0847,15 L515.0847,41 C515.0847,51 497.0847,51 497.0847,51 C497.0847,51 479.0847,51 479.0847,41 L479.0847,15" fill="#E2E2F0" style="stroke:#181818;stroke-width:0.5;"/><path d="M479.0847,15 C479.0847,25 497.0847,25 497.0847,25 C497.0847,25 515.0847,25 515.0847,15" fill="none" style="stroke:#181818;stroke-width:0.5;"/></g><g class="participant participant-tail" data-entity-uid="part4" data-qualified-name="DB" data-source-line="6" id="part4-tail"><text fill="#000000" font-family="sans-serif" font-size="14" lengthAdjust="spacing" textLength="41.9998" x="473.0848" y="539.8232">权限库</text><path d="M479.0847,553.125 C479.0847,543.125 497.0847,543.125 497.0847,543.125 C497.0847,543.125 515.0847,543.125 515.0847,553.125 L515.0847,579.125 C515.0847,589.125 497.0847,589.125 497.0847,589.125 C497.0847,589.125 479.0847,589.125 479.0847,579.125 L479.0847,553.125" fill="#E2E2F0" style="stroke:#181818;stroke-width:0.5;"/><path d="M479.0847,553.125 C479.0847,563.125 497.0847,563.125 497.0847,563.125 C497.0847,563.125 515.0847,563.125 515.0847,553.125" fill="none" style="stroke:#181818;stroke-width:0.5;"/></g><g class="message" data-entity-1="part1" data-entity-2="part2" data-source-line="8" id="msg1"><polygon fill="#181818" points="157.0455,94.4297,167.0455,98.4297,157.0455,102.4297,161.0455,98.4297" style="stroke:#181818;stroke-width:1;"/><line style="stroke:#181818;stroke-width:1;" x1="40.9999" x2="163.0455" y1="98.4297" y2="98.4297"/><text fill="#000000" font-family="sans-serif" font-size="13" font-weight="700" lengthAdjust="spacing" textLength="9.0454" x="47.9999" y="93.3638">1</text><text fill="#000000" font-family="sans-serif" font-size="13" lengthAdjust="spacing" textLength="91.0001" x="61.0453" y="93.3638">请求受保护页面</text></g><g class="message" data-entity-1="part2" data-entity-2="part3" data-source-line="9" id="msg2"><polygon fill="#181818" points="342.0612,123.5625,352.0612,127.5625,342.0612,131.5625,346.0612,127.5625" style="stroke:#181818;stroke-width:1;"/><line style="stroke:#181818;stroke-width:1;" x1="169.0455" x2="348.0612" y1="127.5625" y2="127.5625"/><text fill="#000000" font-family="sans-serif" font-size="13" font-weight="700" lengthAdjust="spacing" textLength="9.0454" x="176.0455" y="122.4966">2</text><text fill="#000000" font-family="sans-serif" font-size="13" lengthAdjust="spacing" textLength="122.0908" x="189.0909" y="122.4966">GET /api/protected</text></g><path d="M174,140.5625 L174,165.5625 L453,165.5625 L453,150.5625 L443,140.5625 L174,140.5625" fill="#FEFFDD" style="stroke:#181818;stroke-width:0.5;"/><path d="M443,140.5625 L443,150.5625 L453,150.5625 L443,140.5625" fill="#FEFFDD" style="stroke:#181818;stroke-width:0.5;"/><text fill="#000000" font-family="sans-serif" font-size="13" lengthAdjust="spacing" textLength="258.1021" x="180" y="157.6294">请求头添加：Authorization: Bearer token</text><g class="message" data-entity-1="part3" data-entity-2="part3" data-source-line="14" id="msg3"><line style="stroke:#181818;stroke-width:1;" x1="354.0612" x2="396.0612" y1="191.8281" y2="191.8281"/><line style="stroke:#181818;stroke-width:1;" x1="396.0612" x2="396.0612" y1="191.8281" y2="204.8281"/><line style="stroke:#181818;stroke-width:1;" x1="355.0612" x2="396.0612" y1="204.8281" y2="204.8281"/><polygon fill="#181818" points="365.0612,200.8281,355.0612,204.8281,365.0612,208.8281,361.0612,204.8281" style="stroke:#181818;stroke-width:1;"/><text fill="#000000" font-family="sans-serif" font-size="13" font-weight="700" lengthAdjust="spacing" textLength="9.0454" x="361.0612" y="186.7622">3</text><text fill="#000000" font-family="sans-serif" font-size="13" lengthAdjust="spacing" textLength="104.0001" x="374.1066" y="186.7622">校验签名和有效期</text></g><g class="message" data-entity-1="part3" data-entity-2="part3" data-source-line="15" id="msg4"><line style="stroke:#181818;stroke-width:1;stroke-dasharray:2,2;" x1="354.0612" x2="396.0612" y1="233.9609" y2="233.9609"/><line style="stroke:#181818;stroke-width:1;stroke-dasharray:2,2;" x1="396.0612" x2="396.0612" y1="233.9609" y2="246.9609"/><line style="stroke:#181818;stroke-width:1;stroke-dasharray:2,2;" x1="355.0612" x2="396.0612" y1="246.9609" y2="246.9609"/><polygon fill="#181818" points="365.0612,242.9609,355.0612,246.9609,365.0612,250.9609,361.0612,246.9609" style="stroke:#181818;stroke-width:1;"/><text fill="#000000" font-family="sans-serif" font-size="13" font-weight="700" lengthAdjust="spacing" textLength="9.0454" x="361.0612" y="228.895">4</text><text fill="#000000" font-family="sans-serif" font-size="13" lengthAdjust="spacing" textLength="115.9781" x="374.1066" y="228.895">通过/失败 + userId</text></g><path d="M10,261.9609 L74.4429,261.9609 L74.4429,269.0938 L64.4429,279.0938 L10,279.0938 L10,261.9609" fill="#EEEEEE" style="stroke:#000000;stroke-width:1.5;"/><rect fill="none" height="248.8672" style="stroke:#000000;stroke-width:1.5;" width="521.0846" x="10" y="261.9609"/><text fill="#000000" font-family="sans-serif" font-size="13" font-weight="700" lengthAdjust="spacing" textLength="19.4429" x="25" y="275.0278">alt</text><text fill="#000000" font-family="sans-serif" font-size="11" font-weight="700" lengthAdjust="spacing" textLength="69.722" x="89.4429" y="274.1714">[Token有效]</text><g class="message" data-entity-1="part3" data-entity-2="part4" data-source-line="18" id="msg5"><polygon fill="#181818" points="485.0847,296.2266,495.0847,300.2266,485.0847,304.2266,489.0847,300.2266" style="stroke:#181818;stroke-width:1;"/><line style="stroke:#181818;stroke-width:1;" x1="354.0612" x2="491.0847" y1="300.2266" y2="300.2266"/><text fill="#000000" font-family="sans-serif" font-size="13" font-weight="700" lengthAdjust="spacing" textLength="9.0454" x="361.0612" y="295.1606">5</text><text fill="#000000" font-family="sans-serif" font-size="13" lengthAdjust="spacing" textLength="52.0001" x="374.1066" y="295.1606">查询权限</text></g><g class="message" data-entity-1="part4" data-entity-2="part3" data-source-line="19" id="msg6"><polygon fill="#181818" points="365.0612,325.3594,355.0612,329.3594,365.0612,333.3594,361.0612,329.3594" style="stroke:#181818;stroke-width:1;"/><line style="stroke:#181818;stroke-width:1;stroke-dasharray:2,2;" x1="359.0612" x2="496.0847" y1="329.3594" y2="329.3594"/><text fill="#000000" font-family="sans-serif" font-size="13" font-weight="700" lengthAdjust="spacing" textLength="9.0454" x="371.0612" y="324.2935">6</text><text fill="#000000" font-family="sans-serif" font-size="13" lengthAdjust="spacing" textLength="78.0001" x="384.1066" y="324.2935">返回权限信息</text></g><g class="message" data-entity-1="part3" data-entity-2="part2" data-source-line="20" id="msg7"><polygon fill="#181818" points="180.0455,354.4922,170.0455,358.4922,180.0455,362.4922,176.0455,358.4922" style="stroke:#181818;stroke-width:1;"/><line style="stroke:#181818;stroke-width:1;stroke-dasharray:2,2;" x1="174.0455" x2="353.0612" y1="358.4922" y2="358.4922"/><text fill="#000000" font-family="sans-serif" font-size="13" font-weight="700" lengthAdjust="spacing" textLength="9.0454" x="186.0455" y="353.4263">7</text><text fill="#000000" font-family="sans-serif" font-size="13" lengthAdjust="spacing" textLength="147.9703" x="199.0909" y="353.4263">响应码200 + 受保护资源</text></g><g class="message" data-entity-1="part2" data-entity-2="part1" data-source-line="21" id="msg8"><polygon fill="#181818" points="51.9999,383.625,41.9999,387.625,51.9999,391.625,47.9999,387.625" style="stroke:#181818;stroke-width:1;"/><line style="stroke:#181818;stroke-width:1;stroke-dasharray:2,2;" x1="45.9999" x2="168.0455" y1="387.625" y2="387.625"/><text fill="#000000" font-family="sans-serif" font-size="13" font-weight="700" lengthAdjust="spacing" textLength="9.0454" x="57.9999" y="382.5591">8</text><text fill="#000000" font-family="sans-serif" font-size="13" lengthAdjust="spacing" textLength="52.0001" x="71.0453" y="382.5591">渲染内容</text></g><line style="stroke:#000000;stroke-width:1;stroke-dasharray:2,2;" x1="10" x2="531.0846" y1="396.625" y2="396.625"/><text fill="#000000" font-family="sans-serif" font-size="11" font-weight="700" lengthAdjust="spacing" textLength="102.7218" x="15" y="406.8354">[Token无效或过期]</text><g class="message" data-entity-1="part3" data-entity-2="part2" data-source-line="23" id="msg9"><polygon fill="#181818" points="180.0455,427.5625,170.0455,431.5625,180.0455,435.5625,176.0455,431.5625" style="stroke:#181818;stroke-width:1;"/><line style="stroke:#181818;stroke-width:1;stroke-dasharray:2,2;" x1="174.0455" x2="353.0612" y1="431.5625" y2="431.5625"/><text fill="#000000" font-family="sans-serif" font-size="13" font-weight="700" lengthAdjust="spacing" textLength="9.0454" x="186.0455" y="426.4966">9</text><text fill="#000000" font-family="sans-serif" font-size="13" lengthAdjust="spacing" textLength="63.813" x="199.0909" y="426.4966">响应码401</text></g><g class="message" data-entity-1="part2" data-entity-2="part2" data-source-line="24" id="msg10"><line style="stroke:#181818;stroke-width:1;" x1="169.0455" x2="211.0455" y1="460.6953" y2="460.6953"/><line style="stroke:#181818;stroke-width:1;" x1="211.0455" x2="211.0455" y1="460.6953" y2="473.6953"/><line style="stroke:#181818;stroke-width:1;" x1="170.0455" x2="211.0455" y1="473.6953" y2="473.6953"/><polygon fill="#181818" points="180.0455,469.6953,170.0455,473.6953,180.0455,477.6953,176.0455,473.6953" style="stroke:#181818;stroke-width:1;"/><text fill="#000000" font-family="sans-serif" font-size="13" font-weight="700" lengthAdjust="spacing" textLength="18.0908" x="176.0455" y="455.6294">10</text><text fill="#000000" font-family="sans-serif" font-size="13" lengthAdjust="spacing" textLength="91.6602" x="198.1363" y="455.6294">清理本地Token</text></g><g class="message" data-entity-1="part2" data-entity-2="part1" data-source-line="25" id="msg11"><polygon fill="#181818" points="51.9999,498.8281,41.9999,502.8281,51.9999,506.8281,47.9999,502.8281" style="stroke:#181818;stroke-width:1;"/><line style="stroke:#181818;stroke-width:1;stroke-dasharray:2,2;" x1="45.9999" x2="168.0455" y1="502.8281" y2="502.8281"/><text fill="#000000" font-family="sans-serif" font-size="13" font-weight="700" lengthAdjust="spacing" textLength="18.0908" x="57.9999" y="497.7622">11</text><text fill="#000000" font-family="sans-serif" font-size="13" lengthAdjust="spacing" textLength="65.0001" x="80.0908" y="497.7622">跳转登录页</text></g><?plantuml-src TP7BJW8n68NtFiM_DmOqhbYO21ZZbii3LAWw4MV8K3Qkl28IY4HGemvo2IJ66ru3WihBqCxCobUmfICgYLrD-fqvv_zFKP9eQd9j4UjZOm1nf1CbeiIHIi0iNh9q2r02mYE4tjKuCQ-R0lf6eFMompfvPkHefYfu8CW5KKJG8afWOALj-pHFEmM1_5wH6OQ96V1vm6gssCCMFJZfzqeiKxUhBtQfnhbFy43G0_Dp8N2XkEAAwnh14OAZdAhy4tHbUOM0jZGOnl6fFxDMbsOgdszdiqcoekdAEYAAfdh0Yv6ETI3QAbQv7glHWOkO9H3y3cELgdsLDMy_Q3v73xFCs6T7QMQK7P6ZiZVEhDwUYzOVhES6Z4CoWVM5g712CG8XaI3_v3VYI7-_b_kN6rQp9kjmeDyxzBLwHNf-8Mc_LsMRpLy6iYvQoD5EqQniJhdTF7dOc-pVaVi6wZ2FQp-oSe6cTkdTgzWvnjz2ZdTI4OkbZ_aUShr_OgRTap-c0yJQksO-nOmRQjo7d3B_X5gj9-lznZpjqlSZ_foowoy0?></g></svg>