<svg xmlns="http://www.w3.org/2000/svg" xmlns:xlink="http://www.w3.org/1999/xlink" contentStyleType="text/css" data-diagram-type="SEQUENCE" height="561px" preserveAspectRatio="none" style="width:575px;height:561px;background:#FFFFFF;" version="1.1" viewBox="0 0 575 561" width="575px" zoomAndPan="magnify"><?plantuml 1.2026.3beta6?><defs/><g><rect fill="none" height="232.7344" style="stroke:#000000;stroke-width:1.5;" width="464.0968" x="10" y="229.9609"/><g class="participant-lifeline" data-entity-uid="part1" data-qualified-name="U" data-source-line="3" id="part1-lifeline"><g><title>..</title><rect fill="#000000" fill-opacity="0.00000" height="398.3984" width="8" x="32.9999" y="81.2969"/><line style="stroke:#181818;stroke-width:0.5;stroke-dasharray:5,5;" x1="36" x2="36" y1="81.2969" y2="479.6953"/></g></g><g class="participant-lifeline" data-entity-uid="part2" data-qualified-name="C" data-source-line="4" id="part2-lifeline"><g><title>...</title><rect fill="#000000" fill-opacity="0.00000" height="398.3984" width="8" x="161.0455" y="81.2969"/><line style="stroke:#181818;stroke-width:0.5;stroke-dasharray:5,5;" x1="164.0455" x2="164.0455" y1="81.2969" y2="479.6953"/></g></g><g class="participant-lifeline" data-entity-uid="part3" data-qualified-name="AS" data-source-line="5" id="part3-lifeline"><g><title>....</title><rect fill="#000000" fill-opacity="0.00000" height="398.3984" width="8" x="383.2902" y="81.2969"/><line style="stroke:#181818;stroke-width:0.5;stroke-dasharray:5,5;" x1="386.2903" x2="386.2903" y1="81.2969" y2="479.6953"/></g></g><g class="participant-lifeline" data-entity-uid="part4" data-qualified-name="DB" data-source-line="6" id="part4-lifeline"><g><title>...</title><rect fill="#000000" fill-opacity="0.00000" height="398.3984" width="8" x="536.9802" y="81.2969"/><line style="stroke:#181818;stroke-width:0.5;stroke-dasharray:5,5;" x1="539.9803" x2="539.9803" y1="81.2969" y2="479.6953"/></g></g><g class="participant participant-head" data-entity-uid="part1" data-qualified-name="U" data-source-line="3" id="part1-head"><text fill="#000000" font-family="sans-serif" font-size="14" lengthAdjust="spacing" textLength="27.9999" x="20" y="77.9951">用户</text><ellipse cx="36.9999" cy="13.5" fill="#E2E2F0" rx="8" ry="8" style="stroke:#181818;stroke-width:0.5;"/><path d="M36.9999,21.5 L36.9999,48.5 M23.9999,29.5 L49.9999,29.5 M36.9999,48.5 L23.9999,63.5 M36.9999,48.5 L49.9999,63.5" fill="none" style="stroke:#181818;stroke-width:0.5;"/></g><g class="participant participant-tail" data-entity-uid="part1" data-qualified-name="U" data-source-line="3" id="part1-tail"><text fill="#000000" font-family="sans-serif" font-size="14" lengthAdjust="spacing" textLength="27.9999" x="20" y="491.6904">用户</text><ellipse cx="36.9999" cy="503.4922" fill="#E2E2F0" rx="8" ry="8" style="stroke:#181818;stroke-width:0.5;"/><path d="M36.9999,511.4922 L36.9999,538.4922 M23.9999,519.4922 L49.9999,519.4922 M36.9999,538.4922 L23.9999,553.4922 M36.9999,538.4922 L49.9999,553.4922" fill="none" style="stroke:#181818;stroke-width:0.5;"/></g><g class="participant participant-head" data-entity-uid="part2" data-qualified-name="C" data-source-line="4" id="part2-head"><rect fill="#E2E2F0" height="30.2969" rx="2.5" ry="2.5" style="stroke:#181818;stroke-width:0.5;" width="55.9998" x="137.0455" y="50"/><text fill="#000000" font-family="sans-serif" font-size="14" lengthAdjust="spacing" textLength="41.9998" x="144.0455" y="69.9951">客户端</text></g><g class="participant participant-tail" data-entity-uid="part2" data-qualified-name="C" data-source-line="4" id="part2-tail"><rect fill="#E2E2F0" height="30.2969" rx="2.5" ry="2.5" style="stroke:#181818;stroke-width:0.5;" width="55.9998" x="137.0455" y="478.6953"/><text fill="#000000" font-family="sans-serif" font-size="14" lengthAdjust="spacing" textLength="41.9998" x="144.0455" y="498.6904">客户端</text></g><g class="participant participant-head" data-entity-uid="part3" data-qualified-name="AS" data-source-line="5" id="part3-head"><rect fill="#E2E2F0" height="30.2969" rx="2.5" ry="2.5" style="stroke:#181818;stroke-width:0.5;" width="69.9998" x="352.2903" y="50"/><text fill="#000000" font-family="sans-serif" font-size="14" lengthAdjust="spacing" textLength="55.9998" x="359.2903" y="69.9951">认证服务</text></g><g class="participant participant-tail" data-entity-uid="part3" data-qualified-name="AS" data-source-line="5" id="part3-tail"><rect fill="#E2E2F0" height="30.2969" rx="2.5" ry="2.5" style="stroke:#181818;stroke-width:0.5;" width="69.9998" x="352.2903" y="478.6953"/><text fill="#000000" font-family="sans-serif" font-size="14" lengthAdjust="spacing" textLength="55.9998" x="359.2903" y="498.6904">认证服务</text></g><g class="participant participant-head" data-entity-uid="part4" data-qualified-name="DB" data-source-line="6" id="part4-head"><text fill="#000000" font-family="sans-serif" font-size="14" lengthAdjust="spacing" textLength="41.9998" x="516.9803" y="77.9951">用户库</text><path d="M522.9802,29 C522.9802,19 540.9802,19 540.9802,19 C540.9802,19 558.9802,19 558.9802,29 L558.9802,55 C558.9802,65 540.9802,65 540.9802,65 C540.9802,65 522.9802,65 522.9802,55 L522.9802,29" fill="#E2E2F0" style="stroke:#181818;stroke-width:0.5;"/><path d="M522.9802,29 C522.9802,39 540.9802,39 540.9802,39 C540.9802,39 558.9802,39 558.9802,29" fill="none" style="stroke:#181818;stroke-width:0.5;"/></g><g class="participant participant-tail" data-entity-uid="part4" data-qualified-name="DB" data-source-line="6" id="part4-tail"><text fill="#000000" font-family="sans-serif" font-size="14" lengthAdjust="spacing" textLength="41.9998" x="516.9803" y="491.6904">用户库</text><path d="M522.9802,504.9922 C522.9802,494.9922 540.9802,494.9922 540.9802,494.9922 C540.9802,494.9922 558.9802,494.9922 558.9802,504.9922 L558.9802,530.9922 C558.9802,540.9922 540.9802,540.9922 540.9802,540.9922 C540.9802,540.9922 522.9802,540.9922 522.9802,530.9922 L522.9802,504.9922" fill="#E2E2F0" style="stroke:#181818;stroke-width:0.5;"/><path d="M522.9802,504.9922 C522.9802,514.9922 540.9802,514.9922 540.9802,514.9922 C540.9802,514.9922 558.9802,514.9922 558.9802,504.9922" fill="none" style="stroke:#181818;stroke-width:0.5;"/></g><g class="message" data-entity-1="part1" data-entity-2="part2" data-source-line="8" id="msg1"><polygon fill="#181818" points="153.0455,108.4297,163.0455,112.4297,153.0455,116.4297,157.0455,112.4297" style="stroke:#181818;stroke-width:1;"/><line style="stroke:#181818;stroke-width:1;" x1="36.9999" x2="159.0455" y1="112.4297" y2="112.4297"/><text fill="#000000" font-family="sans-serif" font-size="13" font-weight="700" lengthAdjust="spacing" textLength="9.0454" x="43.9999" y="107.3638">1</text><text fill="#000000" font-family="sans-serif" font-size="13" lengthAdjust="spacing" textLength="91.0001" x="57.0453" y="107.3638">输入账号和密码</text></g><g class="message" data-entity-1="part2" data-entity-2="part3" data-source-line="9" id="msg2"><polygon fill="#181818" points="375.2902,152.6953,385.2902,156.6953,375.2902,160.6953,379.2902,156.6953" style="stroke:#181818;stroke-width:1;"/><line style="stroke:#181818;stroke-width:1;" x1="165.0455" x2="381.2902" y1="156.6953" y2="156.6953"/><text fill="#000000" font-family="sans-serif" font-size="13" font-weight="700" lengthAdjust="spacing" textLength="9.0454" x="172.0455" y="144.063">2</text><text fill="#000000" font-family="sans-serif" font-size="13" lengthAdjust="spacing" textLength="98.6553" x="185.0909" y="136.4966">POST /api/login</text><text fill="#000000" font-family="sans-serif" font-size="13" lengthAdjust="spacing" textLength="147.8433" x="185.0909" y="151.6294">{username,password}</text></g><g class="message" data-entity-1="part3" data-entity-2="part4" data-source-line="10" id="msg3"><polygon fill="#181818" points="528.9802,181.8281,538.9802,185.8281,528.9802,189.8281,532.9802,185.8281" style="stroke:#181818;stroke-width:1;"/><line style="stroke:#181818;stroke-width:1;" x1="387.2902" x2="534.9802" y1="185.8281" y2="185.8281"/><text fill="#000000" font-family="sans-serif" font-size="13" font-weight="700" lengthAdjust="spacing" textLength="9.0454" x="394.2902" y="180.7622">3</text><text fill="#000000" font-family="sans-serif" font-size="13" lengthAdjust="spacing" textLength="52.0001" x="407.3356" y="180.7622">校验凭据</text></g><g class="message" data-entity-1="part4" data-entity-2="part3" data-source-line="11" id="msg4"><polygon fill="#181818" points="398.2902,210.9609,388.2902,214.9609,398.2902,218.9609,394.2902,214.9609" style="stroke:#181818;stroke-width:1;"/><line style="stroke:#181818;stroke-width:1;stroke-dasharray:2,2;" x1="392.2902" x2="539.9802" y1="214.9609" y2="214.9609"/><text fill="#000000" font-family="sans-serif" font-size="13" font-weight="700" lengthAdjust="spacing" textLength="9.0454" x="404.2902" y="209.895">4</text><text fill="#000000" font-family="sans-serif" font-size="13" lengthAdjust="spacing" textLength="116.6447" x="417.3356" y="209.895">用户信息 / 失败原因</text></g><path d="M10,229.9609 L74.4429,229.9609 L74.4429,237.0938 L64.4429,247.0938 L10,247.0938 L10,229.9609" fill="#EEEEEE" style="stroke:#000000;stroke-width:1.5;"/><rect fill="none" height="232.7344" style="stroke:#000000;stroke-width:1.5;" width="464.0968" x="10" y="229.9609"/><text fill="#000000" font-family="sans-serif" font-size="13" font-weight="700" lengthAdjust="spacing" textLength="19.4429" x="25" y="243.0278">alt</text><text fill="#000000" font-family="sans-serif" font-size="11" font-weight="700" lengthAdjust="spacing" textLength="54.0544" x="89.4429" y="242.1714">[登录成功]</text><g class="message" data-entity-1="part3" data-entity-2="part3" data-source-line="14" id="msg5"><line style="stroke:#181818;stroke-width:1;" x1="387.2902" x2="429.2902" y1="268.2266" y2="268.2266"/><line style="stroke:#181818;stroke-width:1;" x1="429.2902" x2="429.2902" y1="268.2266" y2="281.2266"/><line style="stroke:#181818;stroke-width:1;" x1="388.2902" x2="429.2902" y1="281.2266" y2="281.2266"/><polygon fill="#181818" points="398.2902,277.2266,388.2902,281.2266,398.2902,285.2266,394.2902,281.2266" style="stroke:#181818;stroke-width:1;"/><text fill="#000000" font-family="sans-serif" font-size="13" font-weight="700" lengthAdjust="spacing" textLength="9.0454" x="394.2902" y="263.1606">5</text><text fill="#000000" font-family="sans-serif" font-size="13" lengthAdjust="spacing" textLength="54.7613" x="407.3356" y="263.1606">生成 JWT</text></g><g class="message" data-entity-1="part3" data-entity-2="part2" data-source-line="15" id="msg6"><polygon fill="#181818" points="176.0455,306.3594,166.0455,310.3594,176.0455,314.3594,172.0455,310.3594" style="stroke:#181818;stroke-width:1;"/><line style="stroke:#181818;stroke-width:1;stroke-dasharray:2,2;" x1="170.0455" x2="386.2902" y1="310.3594" y2="310.3594"/><text fill="#000000" font-family="sans-serif" font-size="13" font-weight="700" lengthAdjust="spacing" textLength="9.0454" x="182.0455" y="305.2935">6</text><text fill="#000000" font-family="sans-serif" font-size="13" lengthAdjust="spacing" textLength="185.1993" x="195.0909" y="305.2935">响应码200, 返回access_token</text></g><g class="message" data-entity-1="part2" data-entity-2="part2" data-source-line="16" id="msg7"><line style="stroke:#181818;stroke-width:1;" x1="165.0455" x2="207.0455" y1="339.4922" y2="339.4922"/><line style="stroke:#181818;stroke-width:1;" x1="207.0455" x2="207.0455" y1="339.4922" y2="352.4922"/><line style="stroke:#181818;stroke-width:1;" x1="166.0455" x2="207.0455" y1="352.4922" y2="352.4922"/><polygon fill="#181818" points="176.0455,348.4922,166.0455,352.4922,176.0455,356.4922,172.0455,352.4922" style="stroke:#181818;stroke-width:1;"/><text fill="#000000" font-family="sans-serif" font-size="13" font-weight="700" lengthAdjust="spacing" textLength="9.0454" x="172.0455" y="334.4263">7</text><text fill="#000000" font-family="sans-serif" font-size="13" lengthAdjust="spacing" textLength="69.7925" x="185.0909" y="334.4263">保存 Token</text></g><g class="message" data-entity-1="part2" data-entity-2="part1" data-source-line="17" id="msg8"><polygon fill="#181818" points="47.9999,377.625,37.9999,381.625,47.9999,385.625,43.9999,381.625" style="stroke:#181818;stroke-width:1;"/><line style="stroke:#181818;stroke-width:1;stroke-dasharray:2,2;" x1="41.9999" x2="164.0455" y1="381.625" y2="381.625"/><text fill="#000000" font-family="sans-serif" font-size="13" font-weight="700" lengthAdjust="spacing" textLength="9.0454" x="53.9999" y="376.5591">8</text><text fill="#000000" font-family="sans-serif" font-size="13" lengthAdjust="spacing" textLength="52.0001" x="67.0453" y="376.5591">跳转首页</text></g><line style="stroke:#000000;stroke-width:1;stroke-dasharray:2,2;" x1="10" x2="474.0968" y1="390.625" y2="390.625"/><text fill="#000000" font-family="sans-serif" font-size="11" font-weight="700" lengthAdjust="spacing" textLength="54.0544" x="15" y="400.8354">[登录失败]</text><g class="message" data-entity-1="part3" data-entity-2="part2" data-source-line="19" id="msg9"><polygon fill="#181818" points="176.0455,421.5625,166.0455,425.5625,176.0455,429.5625,172.0455,425.5625" style="stroke:#181818;stroke-width:1;"/><line style="stroke:#181818;stroke-width:1;stroke-dasharray:2,2;" x1="170.0455" x2="386.2902" y1="425.5625" y2="425.5625"/><text fill="#000000" font-family="sans-serif" font-size="13" font-weight="700" lengthAdjust="spacing" textLength="9.0454" x="182.0455" y="420.4966">9</text><text fill="#000000" font-family="sans-serif" font-size="13" lengthAdjust="spacing" textLength="63.813" x="195.0909" y="420.4966">响应码401</text></g><g class="message" data-entity-1="part2" data-entity-2="part1" data-source-line="20" id="msg10"><polygon fill="#181818" points="47.9999,450.6953,37.9999,454.6953,47.9999,458.6953,43.9999,454.6953" style="stroke:#181818;stroke-width:1;"/><line style="stroke:#181818;stroke-width:1;stroke-dasharray:2,2;" x1="41.9999" x2="164.0455" y1="454.6953" y2="454.6953"/><text fill="#000000" font-family="sans-serif" font-size="13" font-weight="700" lengthAdjust="spacing" textLength="18.0908" x="53.9999" y="449.6294">10</text><text fill="#000000" font-family="sans-serif" font-size="13" lengthAdjust="spacing" textLength="78.0001" x="76.0908" y="449.6294">显示错误提示</text></g><?plantuml-src TP31IW9H58RtFiLv04MBLYu27LTj2bJQ174TXnZI6PaPQH4jN5GYcf8MYfKQAb7f41c2eRwCP-REMtIlCuiIkglB-Sxvptz-aZTK9PzDIPhF1q14GzN0RhnOnIaG7PAibYEQ8OjoZYW6uFYP4VlDv53OW7JSfsR1UgXWgSTv9CuQqiGWAQ9BdYZEwXp5ednR4WAx88I1BkfuEQ2J8LQdU5j6yyhk5XWNE8_4mt2m7qz0aEJaO4OzaPKZvJolIvf2if8_HtJzJDNI5wm_4kS3iMWOh6xFUItZzSYgZ1c8HI7WIRasLikULJ0X2DZ_e9C1tdImtLq7a370RdtZ_Cugrh3KOIN-N6LtliC8x1qcVY7t3AnNSDPWrhT38J_GPGFRJqGK9Lq_DjHJIV461E_grV8HHqr8_4MC9LaYqqywVtU6zqxlYp4fmmDSst8D_xzx9xIrAMOr5tP_vZHQr3IjQetzkQII_W40?></g></svg>