<svg xmlns="http://www.w3.org/2000/svg" xmlns:xlink="http://www.w3.org/1999/xlink" contentStyleType="text/css" data-diagram-type="SEQUENCE" height="1016px" preserveAspectRatio="none" style="width:970px;height:1016px;background:#FFFFFF;" version="1.1" viewBox="0 0 970 1016" width="970px" zoomAndPan="magnify"><?plantuml 1.2026.3beta6?><defs/><g><rect fill="none" height="711.5313" style="stroke:#000000;stroke-width:1.5;" width="944.343" x="10" y="219.8281"/><rect fill="none" height="433.5313" style="stroke:#000000;stroke-width:1.5;" width="924.343" x="20" y="490.8281"/><g class="participant-lifeline" data-entity-uid="part1" data-qualified-name="U" data-source-line="3" id="part1-lifeline"><g><title>..</title><rect fill="#000000" fill-opacity="0.00000" height="881.0625" width="8" x="46.9999" y="67.2969"/><line style="stroke:#181818;stroke-width:0.5;stroke-dasharray:5,5;" x1="50" x2="50" y1="67.2969" y2="948.3594"/></g></g><g class="participant-lifeline" data-entity-uid="part2" data-qualified-name="C" data-source-line="4" id="part2-lifeline"><g><title>...</title><rect fill="#000000" fill-opacity="0.00000" height="881.0625" width="8" x="175.0455" y="67.2969"/><line style="stroke:#181818;stroke-width:0.5;stroke-dasharray:5,5;" x1="178.0455" x2="178.0455" y1="67.2969" y2="948.3594"/></g></g><g class="participant-lifeline" data-entity-uid="part3" data-qualified-name="RS" data-source-line="5" id="part3-lifeline"><g><title>....</title><rect fill="#000000" fill-opacity="0.00000" height="881.0625" width="8" x="441.9649" y="67.2969"/><line style="stroke:#181818;stroke-width:0.5;stroke-dasharray:5,5;" x1="444.9651" x2="444.9651" y1="67.2969" y2="948.3594"/></g></g><g class="participant-lifeline" data-entity-uid="part4" data-qualified-name="AS" data-source-line="6" id="part4-lifeline"><g><title>....</title><rect fill="#000000" fill-opacity="0.00000" height="881.0625" width="8" x="668.3967" y="67.2969"/><line style="stroke:#181818;stroke-width:0.5;stroke-dasharray:5,5;" x1="671.3968" x2="671.3968" y1="67.2969" y2="948.3594"/></g></g><g class="participant-lifeline" data-entity-uid="part5" data-qualified-name="DB" data-source-line="7" id="part5-lifeline"><g><title>...</title><rect fill="#000000" fill-opacity="0.00000" height="881.0625" width="8" x="906.3431" y="67.2969"/><line style="stroke:#181818;stroke-width:0.5;stroke-dasharray:5,5;" x1="909.3432" x2="909.3432" y1="67.2969" y2="948.3594"/></g></g><g class="participant participant-head" data-entity-uid="part1" data-qualified-name="U" data-source-line="3" id="part1-head"><rect fill="#E2E2F0" height="30.2969" rx="2.5" ry="2.5" style="stroke:#181818;stroke-width:0.5;" width="41.9999" x="30" y="36"/><text fill="#000000" font-family="sans-serif" font-size="14" lengthAdjust="spacing" textLength="27.9999" x="37" y="55.9951">用户</text></g><g class="participant participant-tail" data-entity-uid="part1" data-qualified-name="U" data-source-line="3" id="part1-tail"><rect fill="#E2E2F0" height="30.2969" rx="2.5" ry="2.5" style="stroke:#181818;stroke-width:0.5;" width="41.9999" x="30" y="947.3594"/><text fill="#000000" font-family="sans-serif" font-size="14" lengthAdjust="spacing" textLength="27.9999" x="37" y="967.3545">用户</text></g><g class="participant participant-head" data-entity-uid="part2" data-qualified-name="C" data-source-line="4" id="part2-head"><rect fill="#E2E2F0" height="30.2969" rx="2.5" ry="2.5" style="stroke:#181818;stroke-width:0.5;" width="55.9998" x="151.0455" y="36"/><text fill="#000000" font-family="sans-serif" font-size="14" lengthAdjust="spacing" textLength="41.9998" x="158.0455" y="55.9951">客户端</text></g><g class="participant participant-tail" data-entity-uid="part2" data-qualified-name="C" data-source-line="4" id="part2-tail"><rect fill="#E2E2F0" height="30.2969" rx="2.5" ry="2.5" style="stroke:#181818;stroke-width:0.5;" width="55.9998" x="151.0455" y="947.3594"/><text fill="#000000" font-family="sans-serif" font-size="14" lengthAdjust="spacing" textLength="41.9998" x="158.0455" y="967.3545">客户端</text></g><g class="participant participant-head" data-entity-uid="part3" data-qualified-name="RS" data-source-line="5" id="part3-head"><rect fill="#E2E2F0" height="30.2969" rx="2.5" ry="2.5" style="stroke:#181818;stroke-width:0.5;" width="69.9998" x="410.9651" y="36"/><text fill="#000000" font-family="sans-serif" font-size="14" lengthAdjust="spacing" textLength="55.9998" x="417.9651" y="55.9951">资源服务</text></g><g class="participant participant-tail" data-entity-uid="part3" data-qualified-name="RS" data-source-line="5" id="part3-tail"><rect fill="#E2E2F0" height="30.2969" rx="2.5" ry="2.5" style="stroke:#181818;stroke-width:0.5;" width="69.9998" x="410.9651" y="947.3594"/><text fill="#000000" font-family="sans-serif" font-size="14" lengthAdjust="spacing" textLength="55.9998" x="417.9651" y="967.3545">资源服务</text></g><g class="participant participant-head" data-entity-uid="part4" data-qualified-name="AS" data-source-line="6" id="part4-head"><rect fill="#E2E2F0" height="30.2969" rx="2.5" ry="2.5" style="stroke:#181818;stroke-width:0.5;" width="69.9998" x="637.3968" y="36"/><text fill="#000000" font-family="sans-serif" font-size="14" lengthAdjust="spacing" textLength="55.9998" x="644.3968" y="55.9951">认证服务</text></g><g class="participant participant-tail" data-entity-uid="part4" data-qualified-name="AS" data-source-line="6" id="part4-tail"><rect fill="#E2E2F0" height="30.2969" rx="2.5" ry="2.5" style="stroke:#181818;stroke-width:0.5;" width="69.9998" x="637.3968" y="947.3594"/><text fill="#000000" font-family="sans-serif" font-size="14" lengthAdjust="spacing" textLength="55.9998" x="644.3968" y="967.3545">认证服务</text></g><g class="participant participant-head" data-entity-uid="part5" data-qualified-name="DB" data-source-line="7" id="part5-head"><text fill="#000000" font-family="sans-serif" font-size="14" lengthAdjust="spacing" textLength="41.9998" x="886.3432" y="63.9951">权限库</text><path d="M892.3431,15 C892.3431,5 910.3431,5 910.3431,5 C910.3431,5 928.3431,5 928.3431,15 L928.3431,41 C928.3431,51 910.3431,51 910.3431,51 C910.3431,51 892.3431,51 892.3431,41 L892.3431,15" fill="#E2E2F0" style="stroke:#181818;stroke-width:0.5;"/><path d="M892.3431,15 C892.3431,25 910.3431,25 910.3431,25 C910.3431,25 928.3431,25 928.3431,15" fill="none" style="stroke:#181818;stroke-width:0.5;"/></g><g class="participant participant-tail" data-entity-uid="part5" data-qualified-name="DB" data-source-line="7" id="part5-tail"><text fill="#000000" font-family="sans-serif" font-size="14" lengthAdjust="spacing" textLength="41.9998" x="886.3432" y="960.3545">权限库</text><path d="M892.3431,973.6563 C892.3431,963.6563 910.3431,963.6563 910.3431,963.6563 C910.3431,963.6563 928.3431,963.6563 928.3431,973.6563 L928.3431,999.6563 C928.3431,1009.6563 910.3431,1009.6563 910.3431,1009.6563 C910.3431,1009.6563 892.3431,1009.6563 892.3431,999.6563 L892.3431,973.6563" fill="#E2E2F0" style="stroke:#181818;stroke-width:0.5;"/><path d="M892.3431,973.6563 C892.3431,983.6563 910.3431,983.6563 910.3431,983.6563 C910.3431,983.6563 928.3431,983.6563 928.3431,973.6563" fill="none" style="stroke:#181818;stroke-width:0.5;"/></g><g class="message" data-entity-1="part1" data-entity-2="part2" data-source-line="9" id="msg1"><polygon fill="#181818" points="167.0455,94.4297,177.0455,98.4297,167.0455,102.4297,171.0455,98.4297" style="stroke:#181818;stroke-width:1;"/><line style="stroke:#181818;stroke-width:1;" x1="50.9999" x2="173.0455" y1="98.4297" y2="98.4297"/><text fill="#000000" font-family="sans-serif" font-size="13" font-weight="700" lengthAdjust="spacing" textLength="9.0454" x="57.9999" y="93.3638">1</text><text fill="#000000" font-family="sans-serif" font-size="13" lengthAdjust="spacing" textLength="91.0001" x="71.0453" y="93.3638">请求受保护页面</text></g><g class="message" data-entity-1="part2" data-entity-2="part3" data-source-line="10" id="msg2"><polygon fill="#181818" points="433.9649,123.5625,443.9649,127.5625,433.9649,131.5625,437.9649,127.5625" style="stroke:#181818;stroke-width:1;"/><line style="stroke:#181818;stroke-width:1;" x1="179.0455" x2="439.9649" y1="127.5625" y2="127.5625"/><text fill="#000000" font-family="sans-serif" font-size="13" font-weight="700" lengthAdjust="spacing" textLength="9.0454" x="186.0455" y="122.4966">2</text><text fill="#000000" font-family="sans-serif" font-size="13" lengthAdjust="spacing" textLength="122.0908" x="199.0909" y="122.4966">GET /api/protected</text></g><path d="M184,140.5625 L184,165.5625 L513,165.5625 L513,150.5625 L503,140.5625 L184,140.5625" fill="#FEFFDD" style="stroke:#181818;stroke-width:0.5;"/><path d="M503,140.5625 L503,150.5625 L513,150.5625 L503,140.5625" fill="#FEFFDD" style="stroke:#181818;stroke-width:0.5;"/><text fill="#000000" font-family="sans-serif" font-size="13" lengthAdjust="spacing" textLength="308.4073" x="190" y="157.6294">请求头添加：Authorization: Bearer access_token</text><g class="message" data-entity-1="part3" data-entity-2="part3" data-source-line="15" id="msg3"><line style="stroke:#181818;stroke-width:1;" x1="445.9649" x2="487.9649" y1="191.8281" y2="191.8281"/><line style="stroke:#181818;stroke-width:1;" x1="487.9649" x2="487.9649" y1="191.8281" y2="204.8281"/><line style="stroke:#181818;stroke-width:1;" x1="446.9649" x2="487.9649" y1="204.8281" y2="204.8281"/><polygon fill="#181818" points="456.9649,200.8281,446.9649,204.8281,456.9649,208.8281,452.9649,204.8281" style="stroke:#181818;stroke-width:1;"/><text fill="#000000" font-family="sans-serif" font-size="13" font-weight="700" lengthAdjust="spacing" textLength="9.0454" x="452.9649" y="186.7622">3</text><text fill="#000000" font-family="sans-serif" font-size="13" lengthAdjust="spacing" textLength="199.3864" x="466.0103" y="186.7622">校验 access_token 签名和有效期</text></g><path d="M10,219.8281 L74.4429,219.8281 L74.4429,226.9609 L64.4429,236.9609 L10,236.9609 L10,219.8281" fill="#EEEEEE" style="stroke:#000000;stroke-width:1.5;"/><rect fill="none" height="711.5313" style="stroke:#000000;stroke-width:1.5;" width="944.343" x="10" y="219.8281"/><text fill="#000000" font-family="sans-serif" font-size="13" font-weight="700" lengthAdjust="spacing" textLength="19.4429" x="25" y="232.895">alt</text><text fill="#000000" font-family="sans-serif" font-size="11" font-weight="700" lengthAdjust="spacing" textLength="117.8255" x="89.4429" y="232.0386">[access_token 有效]</text><g class="message" data-entity-1="part3" data-entity-2="part5" data-source-line="17" id="msg4"><polygon fill="#181818" points="898.3431,254.0938,908.3431,258.0938,898.3431,262.0938,902.3431,258.0938" style="stroke:#181818;stroke-width:1;"/><line style="stroke:#181818;stroke-width:1;" x1="445.9649" x2="904.3431" y1="258.0938" y2="258.0938"/><text fill="#000000" font-family="sans-serif" font-size="13" font-weight="700" lengthAdjust="spacing" textLength="9.0454" x="452.9649" y="253.0278">4</text><text fill="#000000" font-family="sans-serif" font-size="13" lengthAdjust="spacing" textLength="52.0001" x="466.0103" y="253.0278">查询权限</text></g><g class="message" data-entity-1="part5" data-entity-2="part3" data-source-line="18" id="msg5"><polygon fill="#181818" points="456.9649,283.2266,446.9649,287.2266,456.9649,291.2266,452.9649,287.2266" style="stroke:#181818;stroke-width:1;"/><line style="stroke:#181818;stroke-width:1;stroke-dasharray:2,2;" x1="450.9649" x2="909.3431" y1="287.2266" y2="287.2266"/><text fill="#000000" font-family="sans-serif" font-size="13" font-weight="700" lengthAdjust="spacing" textLength="9.0454" x="462.9649" y="282.1606">5</text><text fill="#000000" font-family="sans-serif" font-size="13" lengthAdjust="spacing" textLength="78.0001" x="476.0103" y="282.1606">返回权限信息</text></g><g class="message" data-entity-1="part3" data-entity-2="part2" data-source-line="19" id="msg6"><polygon fill="#181818" points="190.0455,312.3594,180.0455,316.3594,190.0455,320.3594,186.0455,316.3594" style="stroke:#181818;stroke-width:1;"/><line style="stroke:#181818;stroke-width:1;stroke-dasharray:2,2;" x1="184.0455" x2="444.9649" y1="316.3594" y2="316.3594"/><text fill="#000000" font-family="sans-serif" font-size="13" font-weight="700" lengthAdjust="spacing" textLength="9.0454" x="196.0455" y="311.2935">6</text><text fill="#000000" font-family="sans-serif" font-size="13" lengthAdjust="spacing" textLength="152.1027" x="209.0909" y="311.2935">响应码 200 + 受保护资源</text></g><g class="message" data-entity-1="part2" data-entity-2="part1" data-source-line="20" id="msg7"><polygon fill="#181818" points="61.9999,341.4922,51.9999,345.4922,61.9999,349.4922,57.9999,345.4922" style="stroke:#181818;stroke-width:1;"/><line style="stroke:#181818;stroke-width:1;stroke-dasharray:2,2;" x1="55.9999" x2="178.0455" y1="345.4922" y2="345.4922"/><text fill="#000000" font-family="sans-serif" font-size="13" font-weight="700" lengthAdjust="spacing" textLength="9.0454" x="67.9999" y="340.4263">7</text><text fill="#000000" font-family="sans-serif" font-size="13" lengthAdjust="spacing" textLength="52.0001" x="81.0453" y="340.4263">渲染内容</text></g><line style="stroke:#000000;stroke-width:1;stroke-dasharray:2,2;" x1="10" x2="954.343" y1="354.4922" y2="354.4922"/><text fill="#000000" font-family="sans-serif" font-size="11" font-weight="700" lengthAdjust="spacing" textLength="150.8253" x="15" y="364.7026">[access_token 无效或过期]</text><g class="message" data-entity-1="part3" data-entity-2="part2" data-source-line="22" id="msg8"><polygon fill="#181818" points="190.0455,385.4297,180.0455,389.4297,190.0455,393.4297,186.0455,389.4297" style="stroke:#181818;stroke-width:1;"/><line style="stroke:#181818;stroke-width:1;stroke-dasharray:2,2;" x1="184.0455" x2="444.9649" y1="389.4297" y2="389.4297"/><text fill="#000000" font-family="sans-serif" font-size="13" font-weight="700" lengthAdjust="spacing" textLength="9.0454" x="196.0455" y="384.3638">8</text><text fill="#000000" font-family="sans-serif" font-size="13" lengthAdjust="spacing" textLength="229.8741" x="209.0909" y="384.3638">响应码 401 + access_token_expired</text></g><g class="message" data-entity-1="part2" data-entity-2="part4" data-source-line="23" id="msg9"><polygon fill="#181818" points="660.3967,429.6953,670.3967,433.6953,660.3967,437.6953,664.3967,433.6953" style="stroke:#181818;stroke-width:1;"/><line style="stroke:#181818;stroke-width:1;" x1="179.0455" x2="666.3967" y1="433.6953" y2="433.6953"/><text fill="#000000" font-family="sans-serif" font-size="13" font-weight="700" lengthAdjust="spacing" textLength="9.0454" x="186.0455" y="421.063">9</text><text fill="#000000" font-family="sans-serif" font-size="13" lengthAdjust="spacing" textLength="154.4575" x="199.0909" y="413.4966">POST /api/token/refresh</text><text fill="#000000" font-family="sans-serif" font-size="13" lengthAdjust="spacing" textLength="106.1328" x="199.0909" y="428.6294">{refresh_token}</text></g><g class="message" data-entity-1="part4" data-entity-2="part4" data-source-line="24" id="msg10"><line style="stroke:#181818;stroke-width:1;" x1="672.3967" x2="714.3967" y1="462.8281" y2="462.8281"/><line style="stroke:#181818;stroke-width:1;" x1="714.3967" x2="714.3967" y1="462.8281" y2="475.8281"/><line style="stroke:#181818;stroke-width:1;" x1="673.3967" x2="714.3967" y1="475.8281" y2="475.8281"/><polygon fill="#181818" points="683.3967,471.8281,673.3967,475.8281,683.3967,479.8281,679.3967,475.8281" style="stroke:#181818;stroke-width:1;"/><text fill="#000000" font-family="sans-serif" font-size="13" font-weight="700" lengthAdjust="spacing" textLength="18.0908" x="679.3967" y="457.7622">10</text><text fill="#000000" font-family="sans-serif" font-size="13" lengthAdjust="spacing" textLength="201.8556" x="701.4875" y="457.7622">校验 refresh_token 有效期和状态</text></g><path d="M20,490.8281 L84.4429,490.8281 L84.4429,497.9609 L74.4429,507.9609 L20,507.9609 L20,490.8281" fill="#EEEEEE" style="stroke:#000000;stroke-width:1.5;"/><rect fill="none" height="433.5313" style="stroke:#000000;stroke-width:1.5;" width="924.343" x="20" y="490.8281"/><text fill="#000000" font-family="sans-serif" font-size="13" font-weight="700" lengthAdjust="spacing" textLength="19.4429" x="35" y="503.895">alt</text><text fill="#000000" font-family="sans-serif" font-size="11" font-weight="700" lengthAdjust="spacing" textLength="121.7411" x="99.4429" y="503.0386">[refresh_token 有效]</text><g class="message" data-entity-1="part4" data-entity-2="part4" data-source-line="26" id="msg11"><line style="stroke:#181818;stroke-width:1;" x1="672.3967" x2="714.3967" y1="529.0938" y2="529.0938"/><line style="stroke:#181818;stroke-width:1;" x1="714.3967" x2="714.3967" y1="529.0938" y2="542.0938"/><line style="stroke:#181818;stroke-width:1;" x1="673.3967" x2="714.3967" y1="542.0938" y2="542.0938"/><polygon fill="#181818" points="683.3967,538.0938,673.3967,542.0938,683.3967,546.0938,679.3967,542.0938" style="stroke:#181818;stroke-width:1;"/><text fill="#000000" font-family="sans-serif" font-size="13" font-weight="700" lengthAdjust="spacing" textLength="18.0908" x="679.3967" y="524.0278">11</text><text fill="#000000" font-family="sans-serif" font-size="13" lengthAdjust="spacing" textLength="130.254" x="701.4875" y="524.0278">签发新 access_token</text></g><g class="message" data-entity-1="part4" data-entity-2="part2" data-source-line="27" id="msg12"><polygon fill="#181818" points="190.0455,567.2266,180.0455,571.2266,190.0455,575.2266,186.0455,571.2266" style="stroke:#181818;stroke-width:1;"/><line style="stroke:#181818;stroke-width:1;stroke-dasharray:2,2;" x1="184.0455" x2="671.3967" y1="571.2266" y2="571.2266"/><text fill="#000000" font-family="sans-serif" font-size="13" font-weight="700" lengthAdjust="spacing" textLength="18.0908" x="196.0455" y="566.1606">12</text><text fill="#000000" font-family="sans-serif" font-size="13" lengthAdjust="spacing" textLength="349.7115" x="218.1363" y="566.1606">响应码 200 + new_access_token + new_refresh_token</text></g><g class="message" data-entity-1="part2" data-entity-2="part2" data-source-line="28" id="msg13"><line style="stroke:#181818;stroke-width:1;" x1="179.0455" x2="221.0455" y1="600.3594" y2="600.3594"/><line style="stroke:#181818;stroke-width:1;" x1="221.0455" x2="221.0455" y1="600.3594" y2="613.3594"/><line style="stroke:#181818;stroke-width:1;" x1="180.0455" x2="221.0455" y1="613.3594" y2="613.3594"/><polygon fill="#181818" points="190.0455,609.3594,180.0455,613.3594,190.0455,617.3594,186.0455,613.3594" style="stroke:#181818;stroke-width:1;"/><text fill="#000000" font-family="sans-serif" font-size="13" font-weight="700" lengthAdjust="spacing" textLength="18.0908" x="186.0455" y="595.2935">13</text><text fill="#000000" font-family="sans-serif" font-size="13" lengthAdjust="spacing" textLength="95.7925" x="208.1363" y="595.2935">更新本地 Token</text></g><g class="message" data-entity-1="part2" data-entity-2="part3" data-source-line="29" id="msg14"><polygon fill="#181818" points="433.9649,638.4922,443.9649,642.4922,433.9649,646.4922,437.9649,642.4922" style="stroke:#181818;stroke-width:1;"/><line style="stroke:#181818;stroke-width:1;" x1="179.0455" x2="439.9649" y1="642.4922" y2="642.4922"/><text fill="#000000" font-family="sans-serif" font-size="13" font-weight="700" lengthAdjust="spacing" textLength="18.0908" x="186.0455" y="637.4263">14</text><text fill="#000000" font-family="sans-serif" font-size="13" lengthAdjust="spacing" textLength="152.2232" x="208.1363" y="637.4263">重试 GET /api/protected</text></g><g class="message" data-entity-1="part3" data-entity-2="part3" data-source-line="30" id="msg15"><line style="stroke:#181818;stroke-width:1;" x1="445.9649" x2="487.9649" y1="671.625" y2="671.625"/><line style="stroke:#181818;stroke-width:1;" x1="487.9649" x2="487.9649" y1="671.625" y2="684.625"/><line style="stroke:#181818;stroke-width:1;" x1="446.9649" x2="487.9649" y1="684.625" y2="684.625"/><polygon fill="#181818" points="456.9649,680.625,446.9649,684.625,456.9649,688.625,452.9649,684.625" style="stroke:#181818;stroke-width:1;"/><text fill="#000000" font-family="sans-serif" font-size="13" font-weight="700" lengthAdjust="spacing" textLength="18.0908" x="452.9649" y="666.5591">15</text><text fill="#000000" font-family="sans-serif" font-size="13" lengthAdjust="spacing" textLength="130.254" x="475.0558" y="666.5591">校验新 access_token</text></g><g class="message" data-entity-1="part3" data-entity-2="part5" data-source-line="31" id="msg16"><polygon fill="#181818" points="898.3431,709.7578,908.3431,713.7578,898.3431,717.7578,902.3431,713.7578" style="stroke:#181818;stroke-width:1;"/><line style="stroke:#181818;stroke-width:1;" x1="445.9649" x2="904.3431" y1="713.7578" y2="713.7578"/><text fill="#000000" font-family="sans-serif" font-size="13" font-weight="700" lengthAdjust="spacing" textLength="18.0908" x="452.9649" y="708.6919">16</text><text fill="#000000" font-family="sans-serif" font-size="13" lengthAdjust="spacing" textLength="52.0001" x="475.0558" y="708.6919">查询权限</text></g><g class="message" data-entity-1="part5" data-entity-2="part3" data-source-line="32" id="msg17"><polygon fill="#181818" points="456.9649,738.8906,446.9649,742.8906,456.9649,746.8906,452.9649,742.8906" style="stroke:#181818;stroke-width:1;"/><line style="stroke:#181818;stroke-width:1;stroke-dasharray:2,2;" x1="450.9649" x2="909.3431" y1="742.8906" y2="742.8906"/><text fill="#000000" font-family="sans-serif" font-size="13" font-weight="700" lengthAdjust="spacing" textLength="18.0908" x="462.9649" y="737.8247">17</text><text fill="#000000" font-family="sans-serif" font-size="13" lengthAdjust="spacing" textLength="78.0001" x="485.0558" y="737.8247">返回权限信息</text></g><g class="message" data-entity-1="part3" data-entity-2="part2" data-source-line="33" id="msg18"><polygon fill="#181818" points="190.0455,768.0234,180.0455,772.0234,190.0455,776.0234,186.0455,772.0234" style="stroke:#181818;stroke-width:1;"/><line style="stroke:#181818;stroke-width:1;stroke-dasharray:2,2;" x1="184.0455" x2="444.9649" y1="772.0234" y2="772.0234"/><text fill="#000000" font-family="sans-serif" font-size="13" font-weight="700" lengthAdjust="spacing" textLength="18.0908" x="196.0455" y="766.9575">18</text><text fill="#000000" font-family="sans-serif" font-size="13" lengthAdjust="spacing" textLength="152.1027" x="218.1363" y="766.9575">响应码 200 + 受保护资源</text></g><g class="message" data-entity-1="part2" data-entity-2="part1" data-source-line="34" id="msg19"><polygon fill="#181818" points="61.9999,797.1563,51.9999,801.1563,61.9999,805.1563,57.9999,801.1563" style="stroke:#181818;stroke-width:1;"/><line style="stroke:#181818;stroke-width:1;stroke-dasharray:2,2;" x1="55.9999" x2="178.0455" y1="801.1563" y2="801.1563"/><text fill="#000000" font-family="sans-serif" font-size="13" font-weight="700" lengthAdjust="spacing" textLength="18.0908" x="67.9999" y="796.0903">19</text><text fill="#000000" font-family="sans-serif" font-size="13" lengthAdjust="spacing" textLength="52.0001" x="90.0908" y="796.0903">渲染内容</text></g><line style="stroke:#000000;stroke-width:1;stroke-dasharray:2,2;" x1="20" x2="944.343" y1="810.1563" y2="810.1563"/><text fill="#000000" font-family="sans-serif" font-size="11" font-weight="700" lengthAdjust="spacing" textLength="154.7408" x="25" y="820.3667">[refresh_token 无效或过期]</text><g class="message" data-entity-1="part4" data-entity-2="part2" data-source-line="36" id="msg20"><polygon fill="#181818" points="190.0455,841.0938,180.0455,845.0938,190.0455,849.0938,186.0455,845.0938" style="stroke:#181818;stroke-width:1;"/><line style="stroke:#181818;stroke-width:1;stroke-dasharray:2,2;" x1="184.0455" x2="671.3967" y1="845.0938" y2="845.0938"/><text fill="#000000" font-family="sans-serif" font-size="13" font-weight="700" lengthAdjust="spacing" textLength="18.0908" x="196.0455" y="840.0278">20</text><text fill="#000000" font-family="sans-serif" font-size="13" lengthAdjust="spacing" textLength="301.628" x="218.1363" y="840.0278">响应码 401 + refresh_token_invalid_or_expired</text></g><g class="message" data-entity-1="part2" data-entity-2="part2" data-source-line="37" id="msg21"><line style="stroke:#181818;stroke-width:1;" x1="179.0455" x2="221.0455" y1="874.2266" y2="874.2266"/><line style="stroke:#181818;stroke-width:1;" x1="221.0455" x2="221.0455" y1="874.2266" y2="887.2266"/><line style="stroke:#181818;stroke-width:1;" x1="180.0455" x2="221.0455" y1="887.2266" y2="887.2266"/><polygon fill="#181818" points="190.0455,883.2266,180.0455,887.2266,190.0455,891.2266,186.0455,887.2266" style="stroke:#181818;stroke-width:1;"/><text fill="#000000" font-family="sans-serif" font-size="13" font-weight="700" lengthAdjust="spacing" textLength="18.0908" x="186.0455" y="869.1606">21</text><text fill="#000000" font-family="sans-serif" font-size="13" lengthAdjust="spacing" textLength="95.7925" x="208.1363" y="869.1606">清理本地 Token</text></g><g class="message" data-entity-1="part2" data-entity-2="part1" data-source-line="38" id="msg22"><polygon fill="#181818" points="61.9999,912.3594,51.9999,916.3594,61.9999,920.3594,57.9999,916.3594" style="stroke:#181818;stroke-width:1;"/><line style="stroke:#181818;stroke-width:1;stroke-dasharray:2,2;" x1="55.9999" x2="178.0455" y1="916.3594" y2="916.3594"/><text fill="#000000" font-family="sans-serif" font-size="13" font-weight="700" lengthAdjust="spacing" textLength="18.0908" x="67.9999" y="911.2935">22</text><text fill="#000000" font-family="sans-serif" font-size="13" lengthAdjust="spacing" textLength="65.0001" x="90.0908" y="911.2935">跳转登录页</text></g><?plantuml-src dLHRRn9167tlh_ZUJGCQdtXemiNug87oPaAcC9MDk4kMHOt6HDIsI4gA0crgGIx1n6XbgxPIgPK_qvbTdlmBpkmCbTq0CSxJPC_vBdFEoQAyeQdv-sjONre2o2BTK99A5ga6MBKFj3W0b8Eu1o7zBaEiJoO7mnxGFdb9XnNQA9DIX-FHc9VGxzbcuIyXo0afPA0rbCD0co_6-nKoh78e4k9BnM5v1S81iCq1_VASxEnTZ9gqr1jtJiRDBiF378_60d3pnYhuK5RnPNNDm4a3fnYgiYleojsq0TgwiwtiqpkcWpDIQl_--JQODzAQhZn6XgAf0GXXf6CTK3A9Sxc4eTt3AYl3QiffnbUAnYOpQRip_hZjueBr-HUfbCcRRTfuHUj5scYn4fGnt2m1CeGVqJ0IOWrRxsspAsIGO2G4otASFQgHWtS2lHXrQC6SQY1a8jKo6TQiTW6k-Vrm1Iu54yv8VjYXnzcyqw-qLIMR6wJ_WxyomqnmxxdNveyexjgZBV6KUVEk-w-oUTF52Vmeg-YE3tBe2lCx0BTlnQHL3isdutKTvz9tr2Vo9igVohfWR58evNQnu59c9hbL-awV5MGTrtmMLSBkrjordTTqzyXh_3HrjiGgVfXmQIO-kKPFDGhBGDE3OpQEDWv9umXMPv6uvUEjictMPuTxShnvNF2AXKdxrxJzJ-8MfOuV9taUjsP6RvuN8dwk3Wb5VO0oIYgXwPuekdmutR0gc_Dz42lRWs_s-Q6rVqREw-pVCzbQJOb_mny0?></g></svg>