<svg xmlns="http://www.w3.org/2000/svg" xmlns:xlink="http://www.w3.org/1999/xlink" contentStyleType="text/css" data-diagram-type="SEQUENCE" height="847px" preserveAspectRatio="none" style="width:816px;height:847px;background:#FEFEFE;" version="1.1" viewBox="0 0 816 847" width="816px" zoomAndPan="magnify"><title>HTTP Basic &#35748;&#35777;&#24037;&#20316;&#27969;&#31243;</title><defs/><g><rect fill="#FEFEFE" height="847" style="stroke:#FFFFFF00;stroke-width:1;" width="816" x="0" y="0"/><text fill="#000000" font-family="sans-serif" font-size="14" font-weight="bold" lengthAdjust="spacing" textLength="166.4961" x="321.042" y="29.8135">HTTP Basic &#35748;&#35777;&#24037;&#20316;&#27969;&#31243;</text><g><title>&lt;u&gt;&#29992;&#25143;</title><rect fill="#FFFFFF" fill-opacity="0.00000" height="641.9966" width="8" x="18" y="122.9551"/><line style="stroke:#181818;stroke-width:0.5;stroke-dasharray:5.0,5.0;" x1="22" x2="22" y1="122.9551" y2="764.9517"/></g><g><title>&lt;u&gt;&#27983;&#35272;&#22120;</title><rect fill="#FFFFFF" fill-opacity="0.00000" height="641.9966" width="8" x="133" y="122.9551"/><line style="stroke:#181818;stroke-width:0.5;stroke-dasharray:5.0,5.0;" x1="137" x2="137" y1="122.9551" y2="764.9517"/></g><g><title>&lt;u&gt;SecurityFilterChain</title><rect fill="#FFFFFF" fill-opacity="0.00000" height="641.9966" width="8" x="393.8438" y="122.9551"/><line style="stroke:#181818;stroke-width:0.5;stroke-dasharray:5.0,5.0;" x1="397.4248" x2="397.4248" y1="122.9551" y2="764.9517"/></g><g><title>&lt;u&gt;BasicAuthenticationFilter</title><rect fill="#FFFFFF" fill-opacity="0.00000" height="641.9966" width="8" x="563.3604" y="122.9551"/><line style="stroke:#181818;stroke-width:0.5;stroke-dasharray:5.0,5.0;" x1="567.2627" x2="567.2627" y1="122.9551" y2="764.9517"/></g><g><title>&lt;u&gt;UserDetailsService</title><rect fill="#FFFFFF" fill-opacity="0.00000" height="641.9966" width="8" x="732.019" y="122.9551"/><line style="stroke:#181818;stroke-width:0.5;stroke-dasharray:5.0,5.0;" x1="735.458" x2="735.458" y1="122.9551" y2="764.9517"/></g><g><text fill="#000000" font-family="sans-serif" font-size="14" lengthAdjust="spacing" text-decoration="underline" textLength="28" x="5" y="119.291">&#29992;&#25143;</text><ellipse cx="22" cy="52.9775" fill="#E2E2F0" rx="8" ry="8" style="stroke:#181818;stroke-width:0.5;"/><path d="M22,60.9775 L22,87.9775 M9,68.9775 L35,68.9775 M22,87.9775 L9,102.9775 M22,87.9775 L35,102.9775 " fill="#FFFFFF" fill-opacity="0.00000" style="stroke:#181818;stroke-width:0.5;"/></g><g><text fill="#000000" font-family="sans-serif" font-size="14" lengthAdjust="spacing" text-decoration="underline" textLength="28" x="5" y="778.7651">&#29992;&#25143;</text><ellipse cx="22" cy="790.9292" fill="#E2E2F0" rx="8" ry="8" style="stroke:#181818;stroke-width:0.5;"/><path d="M22,798.9292 L22,825.9292 M9,806.9292 L35,806.9292 M22,825.9292 L9,840.9292 M22,825.9292 L35,840.9292 " fill="#FFFFFF" fill-opacity="0.00000" style="stroke:#181818;stroke-width:0.5;"/></g><g><rect fill="#E2E2F0" height="32.4775" rx="4" ry="4" style="stroke:#181818;stroke-width:0.5;" width="56" x="109" y="89.4775"/><text fill="#000000" font-family="sans-serif" font-size="14" lengthAdjust="spacing" text-decoration="underline" textLength="42" x="116" y="111.291">&#27983;&#35272;&#22120;</text></g><g><rect fill="#E2E2F0" height="32.4775" rx="4" ry="4" style="stroke:#181818;stroke-width:0.5;" width="56" x="109" y="763.9517"/><text fill="#000000" font-family="sans-serif" font-size="14" lengthAdjust="spacing" text-decoration="underline" textLength="42" x="116" y="785.7651">&#27983;&#35272;&#22120;</text></g><g><rect fill="#E2E2F0" height="32.4775" rx="4" ry="4" style="stroke:#181818;stroke-width:0.5;" width="138.8379" x="328.4248" y="89.4775"/><text fill="#000000" font-family="sans-serif" font-size="14" lengthAdjust="spacing" text-decoration="underline" textLength="124.8379" x="335.4248" y="111.291">SecurityFilterChain</text></g><g><rect fill="#E2E2F0" height="32.4775" rx="4" ry="4" style="stroke:#181818;stroke-width:0.5;" width="138.8379" x="328.4248" y="763.9517"/><text fill="#000000" font-family="sans-serif" font-size="14" lengthAdjust="spacing" text-decoration="underline" textLength="124.8379" x="335.4248" y="785.7651">SecurityFilterChain</text></g><g><rect fill="#E2E2F0" height="32.4775" rx="4" ry="4" style="stroke:#181818;stroke-width:0.5;" width="180.1953" x="477.2627" y="89.4775"/><text fill="#000000" font-family="sans-serif" font-size="14" lengthAdjust="spacing" text-decoration="underline" textLength="166.1953" x="484.2627" y="111.291">BasicAuthenticationFilter</text></g><g><rect fill="#E2E2F0" height="32.4775" rx="4" ry="4" style="stroke:#181818;stroke-width:0.5;" width="180.1953" x="477.2627" y="763.9517"/><text fill="#000000" font-family="sans-serif" font-size="14" lengthAdjust="spacing" text-decoration="underline" textLength="166.1953" x="484.2627" y="785.7651">BasicAuthenticationFilter</text></g><g><rect fill="#E2E2F0" height="32.4775" rx="4" ry="4" style="stroke:#181818;stroke-width:0.5;" width="137.1221" x="667.458" y="89.4775"/><text fill="#000000" font-family="sans-serif" font-size="14" lengthAdjust="spacing" text-decoration="underline" textLength="123.1221" x="674.458" y="111.291">UserDetailsService</text></g><g><rect fill="#E2E2F0" height="32.4775" rx="4" ry="4" style="stroke:#181818;stroke-width:0.5;" width="137.1221" x="667.458" y="763.9517"/><text fill="#000000" font-family="sans-serif" font-size="14" lengthAdjust="spacing" text-decoration="underline" textLength="123.1221" x="674.458" y="785.7651">UserDetailsService</text></g><rect fill="#EEEEEE" height="3" rx="4" ry="4" style="stroke:#EEEEEE;stroke-width:1;" width="809.5801" x="0" y="154.5339"/><line style="stroke:#000000;stroke-width:1;" x1="0" x2="809.5801" y1="154.5339" y2="154.5339"/><line style="stroke:#000000;stroke-width:1;" x1="0" x2="809.5801" y1="157.5339" y2="157.5339"/><rect fill="#EEEEEE" height="25.1577" rx="4" ry="4" style="stroke:#000000;stroke-width:2;" width="81.1201" x="364.23" y="142.9551"/><text fill="#000000" font-family="sans-serif" font-size="13" font-weight="bold" lengthAdjust="spacing" textLength="63.248" x="370.23" y="160.7104">Basic &#35748;&#35777;</text><g><polygon fill="#181818" points="125,197.2705,135,201.2705,125,205.2705,129,201.2705" style="stroke:#181818;stroke-width:1;"/><line style="stroke:#181818;stroke-width:1.5;" x1="22" x2="131" y1="201.2705" y2="201.2705"/><text fill="#000000" font-family="sans-serif" font-size="13" lengthAdjust="spacing" textLength="91" x="29" y="195.8682">&#35775;&#38382;&#21463;&#20445;&#25252;&#36164;&#28304;</text></g><g><polygon fill="#181818" points="385.8438,228.4282,395.8438,232.4282,385.8438,236.4282,389.8438,232.4282" style="stroke:#181818;stroke-width:1;"/><line style="stroke:#181818;stroke-width:1.5;" x1="137" x2="391.8438" y1="232.4282" y2="232.4282"/><text fill="#000000" font-family="sans-serif" font-size="13" lengthAdjust="spacing" textLength="52.6157" x="144" y="227.0259">GET /api</text></g><g><line style="stroke:#181818;stroke-width:1.5;" x1="397.8438" x2="439.8438" y1="263.5859" y2="263.5859"/><line style="stroke:#181818;stroke-width:1.5;" x1="439.8438" x2="439.8438" y1="263.5859" y2="276.5859"/><line style="stroke:#181818;stroke-width:1.5;" x1="398.8438" x2="439.8438" y1="276.5859" y2="276.5859"/><polygon fill="#181818" points="408.8438,272.5859,398.8438,276.5859,408.8438,280.5859,404.8438,276.5859" style="stroke:#181818;stroke-width:1;"/><text fill="#000000" font-family="sans-serif" font-size="13" lengthAdjust="spacing" textLength="91" x="404.8438" y="258.1836">&#26816;&#26597;&#26159;&#21542;&#24050;&#35748;&#35777;</text></g><g><polygon fill="#181818" points="148,320.9014,138,324.9014,148,328.9014,144,324.9014" style="stroke:#181818;stroke-width:1;"/><line style="stroke:#181818;stroke-width:1.5;stroke-dasharray:2.0,2.0;" x1="142" x2="396.8438" y1="324.9014" y2="324.9014"/><text fill="#000000" font-family="sans-serif" font-size="13" lengthAdjust="spacing" textLength="111.249" x="154" y="302.3413">401 Unauthorized</text><text fill="#000000" font-family="sans-serif" font-size="13" lengthAdjust="spacing" textLength="163.2427" x="154" y="319.499">WWW-Authenticate: Basic</text></g><g><line style="stroke:#181818;stroke-width:1.5;" x1="137" x2="179" y1="356.0591" y2="356.0591"/><line style="stroke:#181818;stroke-width:1.5;" x1="179" x2="179" y1="356.0591" y2="369.0591"/><line style="stroke:#181818;stroke-width:1.5;" x1="138" x2="179" y1="369.0591" y2="369.0591"/><polygon fill="#181818" points="148,365.0591,138,369.0591,148,373.0591,144,369.0591" style="stroke:#181818;stroke-width:1;"/><text fill="#000000" font-family="sans-serif" font-size="13" lengthAdjust="spacing" textLength="91" x="144" y="350.6567">&#24377;&#20986;&#30331;&#24405;&#23545;&#35805;&#26694;</text></g><g><polygon fill="#181818" points="125,396.2168,135,400.2168,125,404.2168,129,400.2168" style="stroke:#181818;stroke-width:1;"/><line style="stroke:#181818;stroke-width:1.5;" x1="22" x2="131" y1="400.2168" y2="400.2168"/><text fill="#000000" font-family="sans-serif" font-size="13" lengthAdjust="spacing" textLength="91" x="29" y="394.8145">&#36755;&#20837;&#29992;&#25143;&#21517;&#23494;&#30721;</text></g><g><polygon fill="#181818" points="385.8438,444.5322,395.8438,448.5322,385.8438,452.5322,389.8438,448.5322" style="stroke:#181818;stroke-width:1;"/><line style="stroke:#181818;stroke-width:1.5;" x1="137" x2="391.8438" y1="448.5322" y2="448.5322"/><text fill="#000000" font-family="sans-serif" font-size="13" lengthAdjust="spacing" textLength="52.6157" x="144" y="425.9722">GET /api</text><text fill="#000000" font-family="sans-serif" font-size="13" lengthAdjust="spacing" textLength="236.8438" x="144" y="443.1299">Authorization: Basic base64(user:pass)</text></g><g><polygon fill="#181818" points="555.3604,475.6899,565.3604,479.6899,555.3604,483.6899,559.3604,479.6899" style="stroke:#181818;stroke-width:1;"/><line style="stroke:#181818;stroke-width:1.5;" x1="397.8438" x2="561.3604" y1="479.6899" y2="479.6899"/><text fill="#000000" font-family="sans-serif" font-size="13" lengthAdjust="spacing" textLength="131.5425" x="404.8438" y="474.2876">&#35299;&#26512; Authorization &#22836;</text></g><g><polygon fill="#181818" points="724.019,506.8477,734.019,510.8477,724.019,514.8477,728.019,510.8477" style="stroke:#181818;stroke-width:1;"/><line style="stroke:#181818;stroke-width:1.5;" x1="567.3604" x2="730.019" y1="510.8477" y2="510.8477"/><text fill="#000000" font-family="sans-serif" font-size="13" lengthAdjust="spacing" textLength="141.8257" x="574.3604" y="505.4453">loadUserByUsername()</text></g><g><polygon fill="#181818" points="578.3604,538.0054,568.3604,542.0054,578.3604,546.0054,574.3604,542.0054" style="stroke:#181818;stroke-width:1;"/><line style="stroke:#181818;stroke-width:1.5;stroke-dasharray:2.0,2.0;" x1="572.3604" x2="735.019" y1="542.0054" y2="542.0054"/><text fill="#000000" font-family="sans-serif" font-size="13" lengthAdjust="spacing" textLength="100.1533" x="584.3604" y="536.603">&#36820;&#22238; UserDetails</text></g><g><line style="stroke:#181818;stroke-width:1.5;" x1="567.3604" x2="609.3604" y1="573.1631" y2="573.1631"/><line style="stroke:#181818;stroke-width:1.5;" x1="609.3604" x2="609.3604" y1="573.1631" y2="586.1631"/><line style="stroke:#181818;stroke-width:1.5;" x1="568.3604" x2="609.3604" y1="586.1631" y2="586.1631"/><polygon fill="#181818" points="578.3604,582.1631,568.3604,586.1631,578.3604,590.1631,574.3604,586.1631" style="stroke:#181818;stroke-width:1;"/><text fill="#000000" font-family="sans-serif" font-size="13" lengthAdjust="spacing" textLength="52" x="574.3604" y="567.7607">&#26657;&#39564;&#23494;&#30721;</text></g><g><line style="stroke:#181818;stroke-width:1.5;" x1="567.3604" x2="609.3604" y1="617.3208" y2="617.3208"/><line style="stroke:#181818;stroke-width:1.5;" x1="609.3604" x2="609.3604" y1="617.3208" y2="630.3208"/><line style="stroke:#181818;stroke-width:1.5;" x1="568.3604" x2="609.3604" y1="630.3208" y2="630.3208"/><polygon fill="#181818" points="578.3604,626.3208,568.3604,630.3208,578.3604,634.3208,574.3604,630.3208" style="stroke:#181818;stroke-width:1;"/><text fill="#000000" font-family="sans-serif" font-size="13" lengthAdjust="spacing" textLength="128.0259" x="574.3604" y="611.9185">&#35774;&#32622; SecurityContext</text></g><g><polygon fill="#181818" points="408.8438,657.4785,398.8438,661.4785,408.8438,665.4785,404.8438,661.4785" style="stroke:#181818;stroke-width:1;"/><line style="stroke:#181818;stroke-width:1.5;stroke-dasharray:2.0,2.0;" x1="402.8438" x2="566.3604" y1="661.4785" y2="661.4785"/><text fill="#000000" font-family="sans-serif" font-size="13" lengthAdjust="spacing" textLength="52" x="414.8438" y="656.0762">&#35748;&#35777;&#36890;&#36807;</text></g><g><polygon fill="#181818" points="33,688.6362,23,692.6362,33,696.6362,29,692.6362" style="stroke:#181818;stroke-width:1;"/><line style="stroke:#181818;stroke-width:1.5;stroke-dasharray:2.0,2.0;" x1="27" x2="396.8438" y1="692.6362" y2="692.6362"/><text fill="#000000" font-family="sans-serif" font-size="13" lengthAdjust="spacing" textLength="52" x="39" y="687.2339">&#36820;&#22238;&#36164;&#28304;</text></g><path d="M142,709.6362 L142,745.6362 A4,4 0 0 0 146,749.6362 L263,749.6362 A4,4 0 0 0 267,745.6362 L267,715.6362 L257,705.6362 L146,705.6362 A4,4 0 0 0 142,709.6362 " fill="#FEFFDD" style="stroke:#181818;stroke-width:0.5;"/><path d="M257,705.6362 L257,713.6362 A2,2 0 0 0 259,715.6362 L267,715.6362 L257,705.6362 " fill="#FEFFDD" style="stroke:#181818;stroke-width:0.5;"/><text fill="#000000" font-family="sans-serif" font-size="13" lengthAdjust="spacing" textLength="104" x="148" y="724.3916">&#27599;&#27425;&#35831;&#27714;&#37117;&#20250;&#25658;&#24102;</text><text fill="#000000" font-family="sans-serif" font-size="13" lengthAdjust="spacing" textLength="101.6958" x="148" y="741.5493">Authorization &#22836;</text><!--SRC=[TL9TRn9157sVNp6fB-q3QfDg30acG8i-DW72Ir_6PImJjhCuCwZrgVZHDdu44cjggwqbXPOOmqOZmM8fVuOPbd_XBClI9RRPP9AzvznxpfaxF4ze0J6q1XyX8x_Ah2BDnYtJOl16Oidz09ymHg1XCOePl1UeS_oaYAc1eunPpr8vOkGfvXpEtxnp1MaPCK4CKa1KG3qECvDG380WmiJmOIgr36E84mCwpPfZbsIxtkz-LQtIeF4E06G8RMomqr3RRL0839fHhR9pkYtt6ZCGSHZJFZXcqvGaDegCYFK4CGLcyHmYT4HE9kBJn95-j2XocEeY4iIYNeytEvgOfgUrqY8MY9WyYTbJOk0HBxsO120IcKe38n7WkOUX-xvB6DPeRxZRbENTVkz0lQqvhTUgKm4-hgdQewOzM4h1MwX0WFixgQhZ3VMjhZxRid8Ysxyy9Oyo9R9mUnwcATAvB4PUuEmApMGoeK1E7FRC1eKls-NvcTpg3FR-okudQPyvze6gRbwTvkAZV5Ft45dv8EtDmL7f-ZGhD3hsDBhgiGdz73c-kp1Rr3tX0k9ypa-j5-2Ad1whmmgSQeMozXkui6RfwzSiqq9PTp-nTVUaQ0tFpW4N2bqEwkt8BuSmi4L_X8Uhe-hm-ti_H11ncXU3RXFwxofkKO6V2uypIUcjOxYnx_Is9aiPtvelFjute9R0a97Ld83MuyaZXb3PPVMZwjXjzVFby5MtVxwlAXtvvqH3_-V7D0lTGU0V]--></g></svg>