<svg xmlns="http://www.w3.org/2000/svg" xmlns:xlink="http://www.w3.org/1999/xlink" contentStyleType="text/css" data-diagram-type="SEQUENCE" height="1084px" preserveAspectRatio="none" style="width:1039px;height:1084px;background:#FEFEFE;" version="1.1" viewBox="0 0 1039 1084" width="1039px" zoomAndPan="magnify"><title>&#34920;&#21333;&#35748;&#35777; + JWT &#24037;&#20316;&#27969;&#31243;</title><defs/><g><rect fill="#FEFEFE" height="1084" style="stroke:#FFFFFF00;stroke-width:1;" width="1039" x="0" y="0"/><text fill="#000000" font-family="sans-serif" font-size="14" font-weight="bold" lengthAdjust="spacing" textLength="165.5732" x="432.936" y="29.8135">&#34920;&#21333;&#35748;&#35777; + JWT &#24037;&#20316;&#27969;&#31243;</text><g><title>&lt;u&gt;&#29992;&#25143;</title><rect fill="#FFFFFF" fill-opacity="0.00000" height="878.9429" width="8" x="18" y="122.9551"/><line style="stroke:#181818;stroke-width:0.5;stroke-dasharray:5.0,5.0;" x1="22" x2="22" y1="122.9551" y2="1001.8979"/></g><g><title>&lt;u&gt;SecurityFilterChain</title><rect fill="#FFFFFF" fill-opacity="0.00000" height="878.9429" width="8" x="224.3745" y="122.9551"/><line style="stroke:#181818;stroke-width:0.5;stroke-dasharray:5.0,5.0;" x1="227.9556" x2="227.9556" y1="122.9551" y2="1001.8979"/></g><g><title>&lt;u&gt;JwtFilter</title><rect fill="#FFFFFF" fill-opacity="0.00000" height="878.9429" width="8" x="380.0732" y="122.9551"/><line style="stroke:#181818;stroke-width:0.5;stroke-dasharray:5.0,5.0;" x1="383.4697" x2="383.4697" y1="122.9551" y2="1001.8979"/></g><g><title>&lt;u&gt;AuthenticationManager</title><rect fill="#FFFFFF" fill-opacity="0.00000" height="878.9429" width="8" x="522.0991" y="122.9551"/><line style="stroke:#181818;stroke-width:0.5;stroke-dasharray:5.0,5.0;" x1="525.5596" x2="525.5596" y1="122.9551" y2="1001.8979"/></g><g><title>&lt;u&gt;UserDetailsService</title><rect fill="#FFFFFF" fill-opacity="0.00000" height="878.9429" width="8" x="687.9248" y="122.9551"/><line style="stroke:#181818;stroke-width:0.5;stroke-dasharray:5.0,5.0;" x1="691.3638" x2="691.3638" y1="122.9551" y2="1001.8979"/></g><g><title>&lt;u&gt;LoginSuccessHandler</title><rect fill="#FFFFFF" fill-opacity="0.00000" height="878.9429" width="8" x="844.5898" y="122.9551"/><line style="stroke:#181818;stroke-width:0.5;stroke-dasharray:5.0,5.0;" x1="848.4858" x2="848.4858" y1="122.9551" y2="1001.8979"/></g><g><title>&lt;u&gt;Redis</title><rect fill="#FFFFFF" fill-opacity="0.00000" height="878.9429" width="8" x="998.3232" y="122.9551"/><line style="stroke:#181818;stroke-width:0.5;stroke-dasharray:5.0,5.0;" x1="1002.2012" x2="1002.2012" y1="122.9551" y2="1001.8979"/></g><g><text fill="#000000" font-family="sans-serif" font-size="14" lengthAdjust="spacing" text-decoration="underline" textLength="28" x="5" y="119.291">&#29992;&#25143;</text><ellipse cx="22" cy="52.9775" fill="#E2E2F0" rx="8" ry="8" style="stroke:#181818;stroke-width:0.5;"/><path d="M22,60.9775 L22,87.9775 M9,68.9775 L35,68.9775 M22,87.9775 L9,102.9775 M22,87.9775 L35,102.9775 " fill="#FFFFFF" fill-opacity="0.00000" style="stroke:#181818;stroke-width:0.5;"/></g><g><text fill="#000000" font-family="sans-serif" font-size="14" lengthAdjust="spacing" text-decoration="underline" textLength="28" x="5" y="1015.7114">&#29992;&#25143;</text><ellipse cx="22" cy="1027.8755" fill="#E2E2F0" rx="8" ry="8" style="stroke:#181818;stroke-width:0.5;"/><path d="M22,1035.8755 L22,1062.8755 M9,1043.8755 L35,1043.8755 M22,1062.8755 L9,1077.8755 M22,1062.8755 L35,1077.8755 " fill="#FFFFFF" fill-opacity="0.00000" style="stroke:#181818;stroke-width:0.5;"/></g><g><rect fill="#E2E2F0" height="32.4775" rx="4" ry="4" style="stroke:#181818;stroke-width:0.5;" width="138.8379" x="158.9556" y="89.4775"/><text fill="#000000" font-family="sans-serif" font-size="14" lengthAdjust="spacing" text-decoration="underline" textLength="124.8379" x="165.9556" y="111.291">SecurityFilterChain</text></g><g><rect fill="#E2E2F0" height="32.4775" rx="4" ry="4" style="stroke:#181818;stroke-width:0.5;" width="138.8379" x="158.9556" y="1000.8979"/><text fill="#000000" font-family="sans-serif" font-size="14" lengthAdjust="spacing" text-decoration="underline" textLength="124.8379" x="165.9556" y="1022.7114">SecurityFilterChain</text></g><g><rect fill="#E2E2F0" height="32.4775" rx="4" ry="4" style="stroke:#181818;stroke-width:0.5;" width="69.207" x="349.4697" y="89.4775"/><text fill="#000000" font-family="sans-serif" font-size="14" lengthAdjust="spacing" text-decoration="underline" textLength="55.207" x="356.4697" y="111.291">JwtFilter</text></g><g><rect fill="#E2E2F0" height="32.4775" rx="4" ry="4" style="stroke:#181818;stroke-width:0.5;" width="69.207" x="349.4697" y="1000.8979"/><text fill="#000000" font-family="sans-serif" font-size="14" lengthAdjust="spacing" text-decoration="underline" textLength="55.207" x="356.4697" y="1022.7114">JwtFilter</text></g><g><rect fill="#E2E2F0" height="32.4775" rx="4" ry="4" style="stroke:#181818;stroke-width:0.5;" width="173.0791" x="439.5596" y="89.4775"/><text fill="#000000" font-family="sans-serif" font-size="14" lengthAdjust="spacing" text-decoration="underline" textLength="159.0791" x="446.5596" y="111.291">AuthenticationManager</text></g><g><rect fill="#E2E2F0" height="32.4775" rx="4" ry="4" style="stroke:#181818;stroke-width:0.5;" width="173.0791" x="439.5596" y="1000.8979"/><text fill="#000000" font-family="sans-serif" font-size="14" lengthAdjust="spacing" text-decoration="underline" textLength="159.0791" x="446.5596" y="1022.7114">AuthenticationManager</text></g><g><rect fill="#E2E2F0" height="32.4775" rx="4" ry="4" style="stroke:#181818;stroke-width:0.5;" width="137.1221" x="623.3638" y="89.4775"/><text fill="#000000" font-family="sans-serif" font-size="14" lengthAdjust="spacing" text-decoration="underline" textLength="123.1221" x="630.3638" y="111.291">UserDetailsService</text></g><g><rect fill="#E2E2F0" height="32.4775" rx="4" ry="4" style="stroke:#181818;stroke-width:0.5;" width="137.1221" x="623.3638" y="1000.8979"/><text fill="#000000" font-family="sans-serif" font-size="14" lengthAdjust="spacing" text-decoration="underline" textLength="123.1221" x="630.3638" y="1022.7114">UserDetailsService</text></g><g><rect fill="#E2E2F0" height="32.4775" rx="4" ry="4" style="stroke:#181818;stroke-width:0.5;" width="156.208" x="770.4858" y="89.4775"/><text fill="#000000" font-family="sans-serif" font-size="14" lengthAdjust="spacing" text-decoration="underline" textLength="142.208" x="777.4858" y="111.291">LoginSuccessHandler</text></g><g><rect fill="#E2E2F0" height="32.4775" rx="4" ry="4" style="stroke:#181818;stroke-width:0.5;" width="156.208" x="770.4858" y="1000.8979"/><text fill="#000000" font-family="sans-serif" font-size="14" lengthAdjust="spacing" text-decoration="underline" textLength="142.208" x="777.4858" y="1022.7114">LoginSuccessHandler</text></g><g><rect fill="#E2E2F0" height="32.4775" rx="4" ry="4" style="stroke:#181818;stroke-width:0.5;" width="50.2441" x="977.2012" y="89.4775"/><text fill="#000000" font-family="sans-serif" font-size="14" lengthAdjust="spacing" text-decoration="underline" textLength="36.2441" x="984.2012" y="111.291">Redis</text></g><g><rect fill="#E2E2F0" height="32.4775" rx="4" ry="4" style="stroke:#181818;stroke-width:0.5;" width="50.2441" x="977.2012" y="1000.8979"/><text fill="#000000" font-family="sans-serif" font-size="14" lengthAdjust="spacing" text-decoration="underline" textLength="36.2441" x="984.2012" y="1022.7114">Redis</text></g><rect fill="#EEEEEE" height="3" rx="4" ry="4" style="stroke:#EEEEEE;stroke-width:1;" width="1032.4453" x="0" y="154.5339"/><line style="stroke:#000000;stroke-width:1;" x1="0" x2="1032.4453" y1="154.5339" y2="154.5339"/><line style="stroke:#000000;stroke-width:1;" x1="0" x2="1032.4453" y1="157.5339" y2="157.5339"/><rect fill="#EEEEEE" height="25.1577" rx="4" ry="4" style="stroke:#000000;stroke-width:2;" width="69.8721" x="481.2866" y="142.9551"/><text fill="#000000" font-family="sans-serif" font-size="13" font-weight="bold" lengthAdjust="spacing" textLength="52" x="487.2866" y="160.7104">&#30331;&#24405;&#38454;&#27573;</text><g><polygon fill="#181818" points="216.3745,214.4282,226.3745,218.4282,216.3745,222.4282,220.3745,218.4282" style="stroke:#181818;stroke-width:1;"/><line style="stroke:#181818;stroke-width:1.5;" x1="22" x2="222.3745" y1="218.4282" y2="218.4282"/><text fill="#000000" font-family="sans-serif" font-size="13" lengthAdjust="spacing" textLength="74.4136" x="29" y="195.8682">POST /login</text><text fill="#000000" font-family="sans-serif" font-size="13" lengthAdjust="spacing" textLength="136.1128" x="29" y="213.0259">(username, password)</text></g><g><polygon fill="#181818" points="514.0991,245.5859,524.0991,249.5859,514.0991,253.5859,518.0991,249.5859" style="stroke:#181818;stroke-width:1;"/><line style="stroke:#181818;stroke-width:1.5;" x1="228.3745" x2="520.0991" y1="249.5859" y2="249.5859"/><text fill="#000000" font-family="sans-serif" font-size="13" lengthAdjust="spacing" textLength="78" x="235.3745" y="244.1836">&#25552;&#20132;&#35748;&#35777;&#20973;&#35777;</text></g><g><polygon fill="#181818" points="679.9248,276.7437,689.9248,280.7437,679.9248,284.7437,683.9248,280.7437" style="stroke:#181818;stroke-width:1;"/><line style="stroke:#181818;stroke-width:1.5;" x1="526.0991" x2="685.9248" y1="280.7437" y2="280.7437"/><text fill="#000000" font-family="sans-serif" font-size="13" lengthAdjust="spacing" textLength="141.8257" x="533.0991" y="275.3413">loadUserByUsername()</text></g><g><polygon fill="#181818" points="537.0991,307.9014,527.0991,311.9014,537.0991,315.9014,533.0991,311.9014" style="stroke:#181818;stroke-width:1;"/><line style="stroke:#181818;stroke-width:1.5;stroke-dasharray:2.0,2.0;" x1="531.0991" x2="690.9248" y1="311.9014" y2="311.9014"/><text fill="#000000" font-family="sans-serif" font-size="13" lengthAdjust="spacing" textLength="100.1533" x="543.0991" y="306.499">&#36820;&#22238; UserDetails</text></g><g><polygon fill="#181818" points="239.3745,339.0591,229.3745,343.0591,239.3745,347.0591,235.3745,343.0591" style="stroke:#181818;stroke-width:1;"/><line style="stroke:#181818;stroke-width:1.5;stroke-dasharray:2.0,2.0;" x1="233.3745" x2="525.0991" y1="343.0591" y2="343.0591"/><text fill="#000000" font-family="sans-serif" font-size="13" lengthAdjust="spacing" textLength="52" x="245.3745" y="337.6567">&#35748;&#35777;&#25104;&#21151;</text></g><g><polygon fill="#181818" points="836.5898,370.2168,846.5898,374.2168,836.5898,378.2168,840.5898,374.2168" style="stroke:#181818;stroke-width:1;"/><line style="stroke:#181818;stroke-width:1.5;" x1="228.3745" x2="842.5898" y1="374.2168" y2="374.2168"/><text fill="#000000" font-family="sans-serif" font-size="13" lengthAdjust="spacing" textLength="164.8994" x="235.3745" y="368.8145">onAuthenticationSuccess()</text></g><g><line style="stroke:#181818;stroke-width:1.5;" x1="848.5898" x2="890.5898" y1="405.3745" y2="405.3745"/><line style="stroke:#181818;stroke-width:1.5;" x1="890.5898" x2="890.5898" y1="405.3745" y2="418.3745"/><line style="stroke:#181818;stroke-width:1.5;" x1="849.5898" x2="890.5898" y1="418.3745" y2="418.3745"/><polygon fill="#181818" points="859.5898,414.3745,849.5898,418.3745,859.5898,422.3745,855.5898,418.3745" style="stroke:#181818;stroke-width:1;"/><text fill="#000000" font-family="sans-serif" font-size="13" lengthAdjust="spacing" textLength="97.7031" x="855.5898" y="399.9722">&#31614;&#21457; JWT Token</text></g><g><polygon fill="#181818" points="990.3232,445.5322,1000.3232,449.5322,990.3232,453.5322,994.3232,449.5322" style="stroke:#181818;stroke-width:1;"/><line style="stroke:#181818;stroke-width:1.5;" x1="848.5898" x2="996.3232" y1="449.5322" y2="449.5322"/><text fill="#000000" font-family="sans-serif" font-size="13" lengthAdjust="spacing" textLength="129.7334" x="855.5898" y="444.1299">&#23384;&#20648; Token (TTL: 1&#22825;)</text></g><g><polygon fill="#181818" points="33,476.6899,23,480.6899,33,484.6899,29,480.6899" style="stroke:#181818;stroke-width:1;"/><line style="stroke:#181818;stroke-width:1.5;stroke-dasharray:2.0,2.0;" x1="27" x2="847.5898" y1="480.6899" y2="480.6899"/><text fill="#000000" font-family="sans-serif" font-size="13" lengthAdjust="spacing" textLength="97.7031" x="39" y="475.2876">&#36820;&#22238; JWT Token</text></g><rect fill="#EEEEEE" height="3" rx="4" ry="4" style="stroke:#EEEEEE;stroke-width:1;" width="1032.4453" x="0" y="510.2688"/><line style="stroke:#000000;stroke-width:1;" x1="0" x2="1032.4453" y1="510.2688" y2="510.2688"/><line style="stroke:#000000;stroke-width:1;" x1="0" x2="1032.4453" y1="513.2688" y2="513.2688"/><rect fill="#EEEEEE" height="25.1577" rx="4" ry="4" style="stroke:#000000;stroke-width:2;" width="108.8721" x="461.7866" y="498.6899"/><text fill="#000000" font-family="sans-serif" font-size="13" font-weight="bold" lengthAdjust="spacing" textLength="91" x="467.7866" y="516.4453">&#35775;&#38382;&#21463;&#20445;&#25252;&#36164;&#28304;</text><g><polygon fill="#181818" points="216.3745,553.0054,226.3745,557.0054,216.3745,561.0054,220.3745,557.0054" style="stroke:#181818;stroke-width:1;"/><line style="stroke:#181818;stroke-width:1.5;" x1="22" x2="222.3745" y1="557.0054" y2="557.0054"/><text fill="#000000" font-family="sans-serif" font-size="13" lengthAdjust="spacing" textLength="182.3745" x="29" y="551.603">GET /api (Header: token=xxx)</text></g><g><polygon fill="#181818" points="372.0732,584.1631,382.0732,588.1631,372.0732,592.1631,376.0732,588.1631" style="stroke:#181818;stroke-width:1;"/><line style="stroke:#181818;stroke-width:1.5;" x1="228.3745" x2="378.0732" y1="588.1631" y2="588.1631"/><text fill="#000000" font-family="sans-serif" font-size="13" lengthAdjust="spacing" textLength="52" x="235.3745" y="582.7607">&#25318;&#25130;&#35831;&#27714;</text></g><g><line style="stroke:#181818;stroke-width:1.5;" x1="384.0732" x2="426.0732" y1="619.3208" y2="619.3208"/><line style="stroke:#181818;stroke-width:1.5;" x1="426.0732" x2="426.0732" y1="619.3208" y2="632.3208"/><line style="stroke:#181818;stroke-width:1.5;" x1="385.0732" x2="426.0732" y1="632.3208" y2="632.3208"/><polygon fill="#181818" points="395.0732,628.3208,385.0732,632.3208,395.0732,636.3208,391.0732,632.3208" style="stroke:#181818;stroke-width:1;"/><text fill="#000000" font-family="sans-serif" font-size="13" lengthAdjust="spacing" textLength="85.522" x="391.0732" y="613.9185">&#39564;&#35777; JWT &#31614;&#21517;</text></g><g><polygon fill="#181818" points="990.3232,659.4785,1000.3232,663.4785,990.3232,667.4785,994.3232,663.4785" style="stroke:#181818;stroke-width:1;"/><line style="stroke:#181818;stroke-width:1.5;" x1="384.0732" x2="996.3232" y1="663.4785" y2="663.4785"/><text fill="#000000" font-family="sans-serif" font-size="13" lengthAdjust="spacing" textLength="123.8745" x="391.0732" y="658.0762">&#26657;&#39564; Token &#26159;&#21542;&#21305;&#37197;</text></g><g><polygon fill="#181818" points="395.0732,690.6362,385.0732,694.6362,395.0732,698.6362,391.0732,694.6362" style="stroke:#181818;stroke-width:1;"/><line style="stroke:#181818;stroke-width:1.5;stroke-dasharray:2.0,2.0;" x1="389.0732" x2="1001.3232" y1="694.6362" y2="694.6362"/><text fill="#000000" font-family="sans-serif" font-size="13" lengthAdjust="spacing" textLength="52" x="401.0732" y="689.2339">&#39564;&#35777;&#36890;&#36807;</text></g><g><line style="stroke:#181818;stroke-width:1.5;" x1="384.0732" x2="426.0732" y1="725.7939" y2="725.7939"/><line style="stroke:#181818;stroke-width:1.5;" x1="426.0732" x2="426.0732" y1="725.7939" y2="738.7939"/><line style="stroke:#181818;stroke-width:1.5;" x1="385.0732" x2="426.0732" y1="738.7939" y2="738.7939"/><polygon fill="#181818" points="395.0732,734.7939,385.0732,738.7939,395.0732,742.7939,391.0732,738.7939" style="stroke:#181818;stroke-width:1;"/><text fill="#000000" font-family="sans-serif" font-size="13" lengthAdjust="spacing" textLength="128.0259" x="391.0732" y="720.3916">&#35774;&#32622; SecurityContext</text></g><g><polygon fill="#181818" points="239.3745,765.9517,229.3745,769.9517,239.3745,773.9517,235.3745,769.9517" style="stroke:#181818;stroke-width:1;"/><line style="stroke:#181818;stroke-width:1.5;stroke-dasharray:2.0,2.0;" x1="233.3745" x2="383.0732" y1="769.9517" y2="769.9517"/><text fill="#000000" font-family="sans-serif" font-size="13" lengthAdjust="spacing" textLength="26" x="245.3745" y="764.5493">&#25918;&#34892;</text></g><g><polygon fill="#181818" points="33,797.1094,23,801.1094,33,805.1094,29,801.1094" style="stroke:#181818;stroke-width:1;"/><line style="stroke:#181818;stroke-width:1.5;stroke-dasharray:2.0,2.0;" x1="27" x2="227.3745" y1="801.1094" y2="801.1094"/><text fill="#000000" font-family="sans-serif" font-size="13" lengthAdjust="spacing" textLength="52" x="39" y="795.707">&#36820;&#22238;&#36164;&#28304;</text></g><rect fill="#EEEEEE" height="3" rx="4" ry="4" style="stroke:#EEEEEE;stroke-width:1;" width="1032.4453" x="0" y="830.6882"/><line style="stroke:#000000;stroke-width:1;" x1="0" x2="1032.4453" y1="830.6882" y2="830.6882"/><line style="stroke:#000000;stroke-width:1;" x1="0" x2="1032.4453" y1="833.6882" y2="833.6882"/><rect fill="#EEEEEE" height="25.1577" rx="4" ry="4" style="stroke:#000000;stroke-width:2;" width="69.8721" x="481.2866" y="819.1094"/><text fill="#000000" font-family="sans-serif" font-size="13" font-weight="bold" lengthAdjust="spacing" textLength="52" x="487.2866" y="836.8647">&#30331;&#20986;&#38454;&#27573;</text><g><polygon fill="#181818" points="216.3745,873.4248,226.3745,877.4248,216.3745,881.4248,220.3745,877.4248" style="stroke:#181818;stroke-width:1;"/><line style="stroke:#181818;stroke-width:1.5;" x1="22" x2="222.3745" y1="877.4248" y2="877.4248"/><text fill="#000000" font-family="sans-serif" font-size="13" lengthAdjust="spacing" textLength="84.062" x="29" y="872.0225">POST /logout</text></g><g><line style="stroke:#181818;stroke-width:1.5;" x1="228.3745" x2="270.3745" y1="908.5825" y2="908.5825"/><line style="stroke:#181818;stroke-width:1.5;" x1="270.3745" x2="270.3745" y1="908.5825" y2="921.5825"/><line style="stroke:#181818;stroke-width:1.5;" x1="229.3745" x2="270.3745" y1="921.5825" y2="921.5825"/><polygon fill="#181818" points="239.3745,917.5825,229.3745,921.5825,239.3745,925.5825,235.3745,921.5825" style="stroke:#181818;stroke-width:1;"/><text fill="#000000" font-family="sans-serif" font-size="13" lengthAdjust="spacing" textLength="141.6987" x="235.3745" y="903.1802">LogoutSuccessHandler</text></g><g><polygon fill="#181818" points="990.3232,948.7402,1000.3232,952.7402,990.3232,956.7402,994.3232,952.7402" style="stroke:#181818;stroke-width:1;"/><line style="stroke:#181818;stroke-width:1.5;" x1="228.3745" x2="996.3232" y1="952.7402" y2="952.7402"/><text fill="#000000" font-family="sans-serif" font-size="13" lengthAdjust="spacing" textLength="68.0278" x="235.3745" y="947.3379">&#21024;&#38500; Token</text></g><g><polygon fill="#181818" points="33,979.8979,23,983.8979,33,987.8979,29,983.8979" style="stroke:#181818;stroke-width:1;"/><line style="stroke:#181818;stroke-width:1.5;stroke-dasharray:2.0,2.0;" x1="27" x2="227.3745" y1="983.8979" y2="983.8979"/><text fill="#000000" font-family="sans-serif" font-size="13" lengthAdjust="spacing" textLength="52" x="39" y="978.4956">&#30331;&#20986;&#25104;&#21151;</text></g><!--SRC=[ZP9FInj16CRlyoa6UucqQV5GA48AQJGD4gbq8xtqCjqCSSWwayxErdYhKabGWoaeQlygf98AHdgmeHRDbt4scs_HcVrNjtee2ylkF3-UztsVUUqgeJN4qI9yXSngXJE7bdFCOXpUoK_h1zWnuOicunHp-EZQkOrVEvYQECivMoej4BDAiMt3YViFRu7c41V493L41LHsc5k4OW044HQ6tc5NjdQyNiSxNO5tuSoB4fJzRrSNdzopbM5t0m1a2jNQSBlhDlkWTirgpC2cmubOpXDBO9vRG8IEGMH38vzBWZDB8c1yMPL8obb7B62g_f4WZCuYYYeXcfrDalCsvbDO86BP1kPlY8bzR7xAI795LY7KS4nJXL90j6o5VaMZa0IVupAnVSd_0Y2JWSFzt_9YPxJtq-sTmKm61AF3z6Cz69o4Sy-C4dnWwH8lQSfHBL6qYE_16hBj9SRBuq1p2i_EAjhTQb-TTu9yPUD4lO4wLwfgMiaMGsKzrPFb-T0eDGwqb8uClC6s_FW5NXlTDuZR2QpTPbkkVuqggpcLmcWosJ0GLK3hCJOykPHRx_sRBx4gff7g9w9qUR8dLxk11bEbKd4IJiZEzz15WM50SQj_dNISNcymskt9hTshmMTtlUETlNFFsxVb-dHQnOfg1AOA6AajdOH2csJgzNeSgRPMcMuSkSrZxxJl_bW5-YXMHiURUe_rZnwhtOhaQ1Ztu50nuJ3ktgbi7ydDNwEr5WY8z3zMexSVl44ZMSJhNGulUZ1Q_noZ0jT5mCJJkDkNtk5cqFVDZ88KudLhdF_7kZ57H344Ij4_IwvvHCINrpmOxNV2wxZHJ50xt9q_]--></g></svg>