<svg xmlns="http://www.w3.org/2000/svg" xmlns:xlink="http://www.w3.org/1999/xlink" contentStyleType="text/css" data-diagram-type="SEQUENCE" height="968px" preserveAspectRatio="none" style="width:1422px;height:968px;background:#FEFEFE;" version="1.1" viewBox="0 0 1422 968" width="1422px" zoomAndPan="magnify"><title>OAuth2 &#31532;&#19977;&#26041;&#30331;&#24405;&#24037;&#20316;&#27969;&#31243; (GitHub)</title><defs/><g><rect fill="#FEFEFE" height="968" style="stroke:#FFFFFF00;stroke-width:1;" width="1422" x="0" y="0"/><text fill="#000000" font-family="sans-serif" font-size="14" font-weight="bold" lengthAdjust="spacing" textLength="250.3184" x="581.8545" y="29.8135">OAuth2 &#31532;&#19977;&#26041;&#30331;&#24405;&#24037;&#20316;&#27969;&#31243; (GitHub)</text><g><title>&lt;u&gt;&#29992;&#25143;</title><rect fill="#FFFFFF" fill-opacity="0.00000" height="762.6274" width="8" x="18" y="122.9551"/><line style="stroke:#181818;stroke-width:0.5;stroke-dasharray:5.0,5.0;" x1="22" x2="22" y1="122.9551" y2="885.5825"/></g><g><title>&lt;u&gt;&#27983;&#35272;&#22120;</title><rect fill="#FFFFFF" fill-opacity="0.00000" height="762.6274" width="8" x="157.356" y="122.9551"/><line style="stroke:#181818;stroke-width:0.5;stroke-dasharray:5.0,5.0;" x1="161.356" x2="161.356" y1="122.9551" y2="885.5825"/></g><g><title>&lt;u&gt;SecurityFilterChain</title><rect fill="#FFFFFF" fill-opacity="0.00000" height="762.6274" width="8" x="393.8882" y="122.9551"/><line style="stroke:#181818;stroke-width:0.5;stroke-dasharray:5.0,5.0;" x1="397.4692" x2="397.4692" y1="122.9551" y2="885.5825"/></g><g><title>&lt;u&gt;OAuth2AuthorizationRequestRedirectFilter</title><rect fill="#FFFFFF" fill-opacity="0.00000" height="762.6274" width="8" x="623.4551" y="122.9551"/><line style="stroke:#181818;stroke-width:0.5;stroke-dasharray:5.0,5.0;" x1="627.3071" x2="627.3071" y1="122.9551" y2="885.5825"/></g><g><title>&lt;u&gt;GitHub</title><rect fill="#FFFFFF" fill-opacity="0.00000" height="762.6274" width="8" x="907.7153" y="122.9551"/><line style="stroke:#181818;stroke-width:0.5;stroke-dasharray:5.0,5.0;" x1="910.8408" x2="910.8408" y1="122.9551" y2="885.5825"/></g><g><title>&lt;u&gt;OAuth2LoginAuthenticationFilter</title><rect fill="#FFFFFF" fill-opacity="0.00000" height="762.6274" width="8" x="1134.5801" y="122.9551"/><line style="stroke:#181818;stroke-width:0.5;stroke-dasharray:5.0,5.0;" x1="1137.6943" x2="1137.6943" y1="122.9551" y2="885.5825"/></g><g><title>&lt;u&gt;OAuth2UserService</title><rect fill="#FFFFFF" fill-opacity="0.00000" height="762.6274" width="8" x="1334.2466" y="122.9551"/><line style="stroke:#181818;stroke-width:0.5;stroke-dasharray:5.0,5.0;" x1="1337.4658" x2="1337.4658" y1="122.9551" y2="885.5825"/></g><g><text fill="#000000" font-family="sans-serif" font-size="14" lengthAdjust="spacing" text-decoration="underline" textLength="28" x="5" y="119.291">&#29992;&#25143;</text><ellipse cx="22" cy="52.9775" fill="#E2E2F0" rx="8" ry="8" style="stroke:#181818;stroke-width:0.5;"/><path d="M22,60.9775 L22,87.9775 M9,68.9775 L35,68.9775 M22,87.9775 L9,102.9775 M22,87.9775 L35,102.9775 " fill="#FFFFFF" fill-opacity="0.00000" style="stroke:#181818;stroke-width:0.5;"/></g><g><text fill="#000000" font-family="sans-serif" font-size="14" lengthAdjust="spacing" text-decoration="underline" textLength="28" x="5" y="899.396">&#29992;&#25143;</text><ellipse cx="22" cy="911.5601" fill="#E2E2F0" rx="8" ry="8" style="stroke:#181818;stroke-width:0.5;"/><path d="M22,919.5601 L22,946.5601 M9,927.5601 L35,927.5601 M22,946.5601 L9,961.5601 M22,946.5601 L35,961.5601 " fill="#FFFFFF" fill-opacity="0.00000" style="stroke:#181818;stroke-width:0.5;"/></g><g><rect fill="#E2E2F0" height="32.4775" rx="4" ry="4" style="stroke:#181818;stroke-width:0.5;" width="56" x="133.356" y="89.4775"/><text fill="#000000" font-family="sans-serif" font-size="14" lengthAdjust="spacing" text-decoration="underline" textLength="42" x="140.356" y="111.291">&#27983;&#35272;&#22120;</text></g><g><rect fill="#E2E2F0" height="32.4775" rx="4" ry="4" style="stroke:#181818;stroke-width:0.5;" width="56" x="133.356" y="884.5825"/><text fill="#000000" font-family="sans-serif" font-size="14" lengthAdjust="spacing" text-decoration="underline" textLength="42" x="140.356" y="906.396">&#27983;&#35272;&#22120;</text></g><g><rect fill="#E2E2F0" height="32.4775" rx="4" ry="4" style="stroke:#181818;stroke-width:0.5;" width="138.8379" x="328.4692" y="89.4775"/><text fill="#000000" font-family="sans-serif" font-size="14" lengthAdjust="spacing" text-decoration="underline" textLength="124.8379" x="335.4692" y="111.291">SecurityFilterChain</text></g><g><rect fill="#E2E2F0" height="32.4775" rx="4" ry="4" style="stroke:#181818;stroke-width:0.5;" width="138.8379" x="328.4692" y="884.5825"/><text fill="#000000" font-family="sans-serif" font-size="14" lengthAdjust="spacing" text-decoration="underline" textLength="124.8379" x="335.4692" y="906.396">SecurityFilterChain</text></g><g><rect fill="#E2E2F0" height="32.4775" rx="4" ry="4" style="stroke:#181818;stroke-width:0.5;" width="300.2959" x="477.3071" y="89.4775"/><text fill="#000000" font-family="sans-serif" font-size="14" lengthAdjust="spacing" text-decoration="underline" textLength="286.2959" x="484.3071" y="111.291">OAuth2AuthorizationRequestRedirectFilter</text></g><g><rect fill="#E2E2F0" height="32.4775" rx="4" ry="4" style="stroke:#181818;stroke-width:0.5;" width="300.2959" x="477.3071" y="884.5825"/><text fill="#000000" font-family="sans-serif" font-size="14" lengthAdjust="spacing" text-decoration="underline" textLength="286.2959" x="484.3071" y="906.396">OAuth2AuthorizationRequestRedirectFilter</text></g><g><rect fill="#E2E2F0" height="32.4775" rx="4" ry="4" style="stroke:#181818;stroke-width:0.5;" width="61.749" x="880.8408" y="89.4775"/><text fill="#000000" font-family="sans-serif" font-size="14" lengthAdjust="spacing" text-decoration="underline" textLength="47.749" x="887.8408" y="111.291">GitHub</text></g><g><rect fill="#E2E2F0" height="32.4775" rx="4" ry="4" style="stroke:#181818;stroke-width:0.5;" width="61.749" x="880.8408" y="884.5825"/><text fill="#000000" font-family="sans-serif" font-size="14" lengthAdjust="spacing" text-decoration="underline" textLength="47.749" x="887.8408" y="906.396">GitHub</text></g><g><rect fill="#E2E2F0" height="32.4775" rx="4" ry="4" style="stroke:#181818;stroke-width:0.5;" width="235.7715" x="1020.6943" y="89.4775"/><text fill="#000000" font-family="sans-serif" font-size="14" lengthAdjust="spacing" text-decoration="underline" textLength="221.7715" x="1027.6943" y="111.291">OAuth2LoginAuthenticationFilter</text></g><g><rect fill="#E2E2F0" height="32.4775" rx="4" ry="4" style="stroke:#181818;stroke-width:0.5;" width="235.7715" x="1020.6943" y="884.5825"/><text fill="#000000" font-family="sans-serif" font-size="14" lengthAdjust="spacing" text-decoration="underline" textLength="221.7715" x="1027.6943" y="906.396">OAuth2LoginAuthenticationFilter</text></g><g><rect fill="#E2E2F0" height="32.4775" rx="4" ry="4" style="stroke:#181818;stroke-width:0.5;" width="143.5615" x="1266.4658" y="89.4775"/><text fill="#000000" font-family="sans-serif" font-size="14" lengthAdjust="spacing" text-decoration="underline" textLength="129.5615" x="1273.4658" y="111.291">OAuth2UserService</text></g><g><rect fill="#E2E2F0" height="32.4775" rx="4" ry="4" style="stroke:#181818;stroke-width:0.5;" width="143.5615" x="1266.4658" y="884.5825"/><text fill="#000000" font-family="sans-serif" font-size="14" lengthAdjust="spacing" text-decoration="underline" textLength="129.5615" x="1273.4658" y="906.396">OAuth2UserService</text></g><rect fill="#EEEEEE" height="3" rx="4" ry="4" style="stroke:#EEEEEE;stroke-width:1;" width="1415.0273" x="0" y="154.5339"/><line style="stroke:#000000;stroke-width:1;" x1="0" x2="1415.0273" y1="154.5339" y2="154.5339"/><line style="stroke:#000000;stroke-width:1;" x1="0" x2="1415.0273" y1="157.5339" y2="157.5339"/><rect fill="#EEEEEE" height="25.1577" rx="4" ry="4" style="stroke:#000000;stroke-width:2;" width="69.8721" x="672.5776" y="142.9551"/><text fill="#000000" font-family="sans-serif" font-size="13" font-weight="bold" lengthAdjust="spacing" textLength="52" x="678.5776" y="160.7104">&#36339;&#36716;&#25480;&#26435;</text><g><polygon fill="#181818" points="149.356,197.2705,159.356,201.2705,149.356,205.2705,153.356,201.2705" style="stroke:#181818;stroke-width:1;"/><line style="stroke:#181818;stroke-width:1.5;" x1="22" x2="155.356" y1="201.2705" y2="201.2705"/><text fill="#000000" font-family="sans-serif" font-size="13" lengthAdjust="spacing" textLength="115.356" x="29" y="195.8682">&#28857;&#20987; "GitHub &#30331;&#24405;"</text></g><g><polygon fill="#181818" points="385.8882,228.4282,395.8882,232.4282,385.8882,236.4282,389.8882,232.4282" style="stroke:#181818;stroke-width:1;"/><line style="stroke:#181818;stroke-width:1.5;" x1="161.356" x2="391.8882" y1="232.4282" y2="232.4282"/><text fill="#000000" font-family="sans-serif" font-size="13" lengthAdjust="spacing" textLength="212.5322" x="168.356" y="227.0259">GET /oauth2/authorization/github</text></g><g><polygon fill="#181818" points="615.4551,259.5859,625.4551,263.5859,615.4551,267.5859,619.4551,263.5859" style="stroke:#181818;stroke-width:1;"/><line style="stroke:#181818;stroke-width:1.5;" x1="397.8882" x2="621.4551" y1="263.5859" y2="263.5859"/><text fill="#000000" font-family="sans-serif" font-size="13" lengthAdjust="spacing" textLength="104" x="404.8882" y="258.1836">&#37325;&#23450;&#21521;&#21040;&#25480;&#26435;&#39029;&#38754;</text></g><g><polygon fill="#181818" points="899.7153,290.7437,909.7153,294.7437,899.7153,298.7437,903.7153,294.7437" style="stroke:#181818;stroke-width:1;"/><line style="stroke:#181818;stroke-width:1.5;" x1="627.4551" x2="905.7153" y1="294.7437" y2="294.7437"/><text fill="#000000" font-family="sans-serif" font-size="13" lengthAdjust="spacing" textLength="260.2603" x="634.4551" y="289.3413">https://github.com/login/oauth/authorize</text></g><g><polygon fill="#181818" points="172.356,321.9014,162.356,325.9014,172.356,329.9014,168.356,325.9014" style="stroke:#181818;stroke-width:1;"/><line style="stroke:#181818;stroke-width:1.5;stroke-dasharray:2.0,2.0;" x1="166.356" x2="910.7153" y1="325.9014" y2="325.9014"/><text fill="#000000" font-family="sans-serif" font-size="13" lengthAdjust="spacing" textLength="78" x="178.356" y="320.499">&#23637;&#31034;&#25480;&#26435;&#39029;&#38754;</text></g><g><polygon fill="#181818" points="149.356,353.0591,159.356,357.0591,149.356,361.0591,153.356,357.0591" style="stroke:#181818;stroke-width:1;"/><line style="stroke:#181818;stroke-width:1.5;" x1="22" x2="155.356" y1="357.0591" y2="357.0591"/><text fill="#000000" font-family="sans-serif" font-size="13" lengthAdjust="spacing" textLength="52" x="29" y="351.6567">&#30830;&#35748;&#25480;&#26435;</text></g><g><line style="stroke:#181818;stroke-width:1.5;" x1="911.7153" x2="953.7153" y1="388.2168" y2="388.2168"/><line style="stroke:#181818;stroke-width:1.5;" x1="953.7153" x2="953.7153" y1="388.2168" y2="401.2168"/><line style="stroke:#181818;stroke-width:1.5;" x1="912.7153" x2="953.7153" y1="401.2168" y2="401.2168"/><polygon fill="#181818" points="922.7153,397.2168,912.7153,401.2168,922.7153,405.2168,918.7153,401.2168" style="stroke:#181818;stroke-width:1;"/><text fill="#000000" font-family="sans-serif" font-size="13" lengthAdjust="spacing" textLength="65" x="918.7153" y="382.8145">&#29983;&#25104;&#25480;&#26435;&#30721;</text></g><rect fill="#EEEEEE" height="3" rx="4" ry="4" style="stroke:#EEEEEE;stroke-width:1;" width="1415.0273" x="0" y="430.7957"/><line style="stroke:#000000;stroke-width:1;" x1="0" x2="1415.0273" y1="430.7957" y2="430.7957"/><line style="stroke:#000000;stroke-width:1;" x1="0" x2="1415.0273" y1="433.7957" y2="433.7957"/><rect fill="#EEEEEE" height="25.1577" rx="4" ry="4" style="stroke:#000000;stroke-width:2;" width="69.8721" x="672.5776" y="419.2168"/><text fill="#000000" font-family="sans-serif" font-size="13" font-weight="bold" lengthAdjust="spacing" textLength="52" x="678.5776" y="436.9722">&#22238;&#35843;&#35748;&#35777;</text><g><polygon fill="#181818" points="172.356,490.6899,162.356,494.6899,172.356,498.6899,168.356,494.6899" style="stroke:#181818;stroke-width:1;"/><line style="stroke:#181818;stroke-width:1.5;stroke-dasharray:2.0,2.0;" x1="166.356" x2="910.7153" y1="494.6899" y2="494.6899"/><text fill="#000000" font-family="sans-serif" font-size="13" lengthAdjust="spacing" textLength="78.0571" x="178.356" y="472.1299">302 Redirect</text><text fill="#000000" font-family="sans-serif" font-size="13" lengthAdjust="spacing" textLength="115.8701" x="178.356" y="489.2876">callback?code=xxx</text></g><g><polygon fill="#181818" points="385.8882,521.8477,395.8882,525.8477,385.8882,529.8477,389.8882,525.8477" style="stroke:#181818;stroke-width:1;"/><line style="stroke:#181818;stroke-width:1.5;" x1="161.356" x2="391.8882" y1="525.8477" y2="525.8477"/><text fill="#000000" font-family="sans-serif" font-size="13" lengthAdjust="spacing" textLength="149.5381" x="168.356" y="520.4453">GET /callback?code=xxx</text></g><g><polygon fill="#181818" points="1126.5801,553.0054,1136.5801,557.0054,1126.5801,561.0054,1130.5801,557.0054" style="stroke:#181818;stroke-width:1;"/><line style="stroke:#181818;stroke-width:1.5;" x1="397.8882" x2="1132.5801" y1="557.0054" y2="557.0054"/><text fill="#000000" font-family="sans-serif" font-size="13" lengthAdjust="spacing" textLength="52" x="404.8882" y="551.603">&#22788;&#29702;&#22238;&#35843;</text></g><g><polygon fill="#181818" points="922.7153,601.3208,912.7153,605.3208,922.7153,609.3208,918.7153,605.3208" style="stroke:#181818;stroke-width:1;"/><line style="stroke:#181818;stroke-width:1.5;" x1="916.7153" x2="1137.5801" y1="605.3208" y2="605.3208"/><text fill="#000000" font-family="sans-serif" font-size="13" lengthAdjust="spacing" textLength="202.8647" x="928.7153" y="582.7607">POST /login/oauth/access_token</text><text fill="#000000" font-family="sans-serif" font-size="13" lengthAdjust="spacing" textLength="39.1587" x="928.7153" y="599.9185">(code)</text></g><g><polygon fill="#181818" points="1126.5801,632.4785,1136.5801,636.4785,1126.5801,640.4785,1130.5801,636.4785" style="stroke:#181818;stroke-width:1;"/><line style="stroke:#181818;stroke-width:1.5;stroke-dasharray:2.0,2.0;" x1="911.7153" x2="1132.5801" y1="636.4785" y2="636.4785"/><text fill="#000000" font-family="sans-serif" font-size="13" lengthAdjust="spacing" textLength="113.4707" x="918.7153" y="631.0762">&#36820;&#22238; Access Token</text></g><g><polygon fill="#181818" points="1326.2466,663.6362,1336.2466,667.6362,1326.2466,671.6362,1330.2466,667.6362" style="stroke:#181818;stroke-width:1;"/><line style="stroke:#181818;stroke-width:1.5;" x1="1138.5801" x2="1332.2466" y1="667.6362" y2="667.6362"/><text fill="#000000" font-family="sans-serif" font-size="13" lengthAdjust="spacing" textLength="63.9717" x="1145.5801" y="662.2339">loadUser()</text></g><g><polygon fill="#181818" points="922.7153,694.7939,912.7153,698.7939,922.7153,702.7939,918.7153,698.7939" style="stroke:#181818;stroke-width:1;"/><line style="stroke:#181818;stroke-width:1.5;" x1="916.7153" x2="1337.2466" y1="698.7939" y2="698.7939"/><text fill="#000000" font-family="sans-serif" font-size="13" lengthAdjust="spacing" textLength="140.5942" x="928.7153" y="693.3916">GET /user (&#25658;&#24102; Token)</text></g><g><polygon fill="#181818" points="1326.2466,725.9517,1336.2466,729.9517,1326.2466,733.9517,1330.2466,729.9517" style="stroke:#181818;stroke-width:1;"/><line style="stroke:#181818;stroke-width:1.5;stroke-dasharray:2.0,2.0;" x1="911.7153" x2="1332.2466" y1="729.9517" y2="729.9517"/><text fill="#000000" font-family="sans-serif" font-size="13" lengthAdjust="spacing" textLength="78" x="918.7153" y="724.5493">&#36820;&#22238;&#29992;&#25143;&#20449;&#24687;</text></g><g><polygon fill="#181818" points="1149.5801,757.1094,1139.5801,761.1094,1149.5801,765.1094,1145.5801,761.1094" style="stroke:#181818;stroke-width:1;"/><line style="stroke:#181818;stroke-width:1.5;stroke-dasharray:2.0,2.0;" x1="1143.5801" x2="1337.2466" y1="761.1094" y2="761.1094"/><text fill="#000000" font-family="sans-serif" font-size="13" lengthAdjust="spacing" textLength="76.2861" x="1155.5801" y="755.707">OAuth2User</text></g><g><line style="stroke:#181818;stroke-width:1.5;" x1="1138.5801" x2="1180.5801" y1="792.2671" y2="792.2671"/><line style="stroke:#181818;stroke-width:1.5;" x1="1180.5801" x2="1180.5801" y1="792.2671" y2="805.2671"/><line style="stroke:#181818;stroke-width:1.5;" x1="1139.5801" x2="1180.5801" y1="805.2671" y2="805.2671"/><polygon fill="#181818" points="1149.5801,801.2671,1139.5801,805.2671,1149.5801,809.2671,1145.5801,805.2671" style="stroke:#181818;stroke-width:1;"/><text fill="#000000" font-family="sans-serif" font-size="13" lengthAdjust="spacing" textLength="128.0259" x="1145.5801" y="786.8647">&#35774;&#32622; SecurityContext</text></g><g><polygon fill="#181818" points="408.8882,832.4248,398.8882,836.4248,408.8882,840.4248,404.8882,836.4248" style="stroke:#181818;stroke-width:1;"/><line style="stroke:#181818;stroke-width:1.5;stroke-dasharray:2.0,2.0;" x1="402.8882" x2="1137.5801" y1="836.4248" y2="836.4248"/><text fill="#000000" font-family="sans-serif" font-size="13" lengthAdjust="spacing" textLength="52" x="414.8882" y="831.0225">&#35748;&#35777;&#25104;&#21151;</text></g><g><polygon fill="#181818" points="33,863.5825,23,867.5825,33,871.5825,29,867.5825" style="stroke:#181818;stroke-width:1;"/><line style="stroke:#181818;stroke-width:1.5;stroke-dasharray:2.0,2.0;" x1="27" x2="396.8882" y1="867.5825" y2="867.5825"/><text fill="#000000" font-family="sans-serif" font-size="13" lengthAdjust="spacing" textLength="117" x="39" y="862.1802">&#30331;&#24405;&#25104;&#21151;&#65292;&#36339;&#36716;&#39318;&#39029;</text></g><!--SRC=[TPDTQrCn6CVlyod2lEakjkf4a46LMhTM43RQxcuWMHhQqBEavkHezQvEN7sli0scpZcPinUbcyZOctLVPkUbLtu5avEUhMMLmg4al_oV__FF4xjCMGK9j0WN42uN1NTO8SKjBk2LwIdz0_Ov4MvYBXWHy6RVkaqUEeHXaXI2FywNA2upOjlmslYD8T0i4f9YMa5CGYL7X4KP0K1IQH4uatHaQGBwhTRPuKjlxSXVFt4xg-x1zxFEPs-_vZTVmrYQoeopC0e0mbBPz5UQNlq0LFfaHxpzzy6FkhlU7878XdUKAvk8GIH7i2EeV39DBKb4geGe2-7ST6eGD9RqXmlw54dAMLQtOiiiAL11i3GIuUdirDrxsS7pncwucyuCaxxFYvJfVuIfhR10d-9CSYu_zDYSQYb7n2EAYG7dSW0a4Z0u-1LqMjwxkhUn11C9OFA1OxUY7E0az9yTkSidaJTeKXu14Q1O5OFYqbDv6ET8bukZ_WJYHIfBpWBGcAB3jXNVNNxhjZ-wZGzkVSyuw6xjTpU-0GCeCfrHM4dAYZqPxucCOxuOjtG8fjHv9G8KFJPWtFsvwcyV3qWFxM-h7RIt3HQAz0hxAvjUlM7M_Q-rC2_tqvTWRqdXmMvDvtMfvlMh4p2wwdc6aMNfbt8Rym99LAlL_wHscUjb5LweRcNxkTzuOQe3inZPd9t9AOM1I31MB-g1v6N2vbbCQuv6JYF1u7H5gS5aYCAyHYzqrNGenEAeeEScDWhqGbGlDEpe7c9UuzWzt36dBog4Xus-YVliTCkhxHgHFWiNazbNERBN_kDtsZ1wTodE9AdAY3iFpro4kYNtrQQ9J6trxdYoDwbcz-_lDsRMkpjhQXR0Fm00]--></g></svg>