<svg xmlns="http://www.w3.org/2000/svg" xmlns:xlink="http://www.w3.org/1999/xlink" contentStyleType="text/css" height="1089px" preserveAspectRatio="none" style="width:540px;height:1089px;background:#FFFFFF;" version="1.1" viewBox="0 0 540 1089" width="540px" zoomAndPan="magnify"><title>Spring Security &#35748;&#35777;&#25480;&#26435;&#27969;&#31243;</title><defs/><g><text fill="#000000" font-family="sans-serif" font-size="14" font-weight="bold" lengthAdjust="spacing" textLength="195.3232" x="171.0464" y="34.8135">Spring Security &#35748;&#35777;&#25480;&#26435;&#27969;&#31243;</text><ellipse cx="202.5217" cy="59.4775" fill="#222222" rx="10" ry="10" style="stroke:#222222;stroke-width:1;"/><rect fill="#F1F1F1" height="35.8379" rx="12.5" ry="12.5" style="stroke:#181818;stroke-width:0.5;" width="141.4824" x="131.7805" y="89.4775"/><text fill="#000000" font-family="sans-serif" font-size="12" lengthAdjust="spacing" textLength="121.4824" x="141.7805" y="112.1748">&#23458;&#25143;&#31471;&#21457;&#36215; HTTP &#35831;&#27714;</text><rect fill="#F1F1F1" height="35.8379" rx="12.5" ry="12.5" style="stroke:#181818;stroke-width:0.5;" width="154.5547" x="125.2444" y="145.3154"/><text fill="#000000" font-family="sans-serif" font-size="12" lengthAdjust="spacing" textLength="134.5547" x="135.2444" y="168.0127">&#36827;&#20837; SecurityFilterChain</text><rect fill="#F1F1F1" height="35.8379" rx="12.5" ry="12.5" style="stroke:#181818;stroke-width:0.5;" width="192.6934" x="106.175" y="250.4124"/><text fill="#000000" font-family="sans-serif" font-size="12" lengthAdjust="spacing" textLength="172.6934" x="116.175" y="273.1096">&#25552;&#21462;&#20973;&#35777; (&#20174;&#35831;&#27714;&#22836;/&#21442;&#25968;&#20013;&#33719;&#21462;)</text><rect fill="#F1F1F1" height="35.8379" rx="12.5" ry="12.5" style="stroke:#181818;stroke-width:0.5;" width="207.9043" x="98.5696" y="306.2502"/><text fill="#000000" font-family="sans-serif" font-size="12" lengthAdjust="spacing" textLength="187.9043" x="108.5696" y="328.9475">AuthenticationManager &#25191;&#34892;&#35748;&#35777;</text><polygon fill="#F1F1F1" points="177.8657,362.0881,227.1777,362.0881,239.1777,374.0881,227.1777,386.0881,177.8657,386.0881,165.8657,374.0881,177.8657,362.0881" style="stroke:#181818;stroke-width:0.5;"/><text fill="#000000" font-family="sans-serif" font-size="11" lengthAdjust="spacing" textLength="49.312" x="177.8657" y="378.4683">&#35748;&#35777;&#25104;&#21151;?</text><text fill="#000000" font-family="sans-serif" font-size="11" lengthAdjust="spacing" textLength="11" x="154.8657" y="371.2092">&#26159;</text><text fill="#000000" font-family="sans-serif" font-size="11" lengthAdjust="spacing" textLength="11" x="239.1777" y="371.2092">&#21542;</text><rect fill="#F1F1F1" height="35.8379" rx="12.5" ry="12.5" style="stroke:#181818;stroke-width:0.5;" width="138.1777" x="33.9915" y="396.0881"/><text fill="#000000" font-family="sans-serif" font-size="12" lengthAdjust="spacing" textLength="118.1777" x="43.9915" y="418.7854">&#20889;&#20837; SecurityContext</text><rect fill="#F1F1F1" height="35.8379" rx="12.5" ry="12.5" style="stroke:#181818;stroke-width:0.5;" width="219.5879" x="192.1692" y="396.0881"/><text fill="#000000" font-family="sans-serif" font-size="12" lengthAdjust="spacing" textLength="199.5879" x="202.1692" y="418.7854">ExceptionTranslationFilter &#25429;&#33719;&#24322;&#24120;</text><rect fill="#F1F1F1" height="35.8379" rx="12.5" ry="12.5" style="stroke:#181818;stroke-width:0.5;" width="191.8789" x="206.0237" y="451.926"/><text fill="#000000" font-family="sans-serif" font-size="12" lengthAdjust="spacing" textLength="171.8789" x="216.0237" y="474.6233">&#35843;&#29992; AuthenticationEntryPoint</text><rect fill="#F1F1F1" height="35.8379" rx="12.5" ry="12.5" style="stroke:#181818;stroke-width:0.5;" width="68.6621" x="267.6321" y="507.7639"/><text fill="#000000" font-family="sans-serif" font-size="12" lengthAdjust="spacing" textLength="48.6621" x="277.6321" y="530.4612">&#36820;&#22238; 401</text><ellipse cx="301.9631" cy="574.6018" fill="none" rx="11" ry="11" style="stroke:#222222;stroke-width:1;"/><ellipse cx="301.9631" cy="574.6018" fill="#222222" rx="6" ry="6" style="stroke:#222222;stroke-width:1;"/><polygon fill="#F1F1F1" points="177.8657,201.1533,227.1777,201.1533,239.1777,213.1533,227.1777,225.1533,177.8657,225.1533,165.8657,213.1533,177.8657,201.1533" style="stroke:#181818;stroke-width:0.5;"/><text fill="#000000" font-family="sans-serif" font-size="11" lengthAdjust="spacing" textLength="11" x="206.5217" y="236.7925">&#26159;</text><text fill="#000000" font-family="sans-serif" font-size="11" lengthAdjust="spacing" textLength="49.312" x="177.8657" y="217.5334">&#23384;&#22312;&#20973;&#35777;?</text><text fill="#000000" font-family="sans-serif" font-size="11" lengthAdjust="spacing" textLength="11" x="239.1777" y="210.2744">&#21542;</text><polygon fill="#F1F1F1" points="202.5217,605.6018,214.5217,617.6018,202.5217,629.6018,190.5217,617.6018,202.5217,605.6018" style="stroke:#181818;stroke-width:0.5;"/><rect fill="#F1F1F1" height="35.8379" rx="12.5" ry="12.5" style="stroke:#181818;stroke-width:0.5;" width="181.168" x="111.9377" y="649.6018"/><text fill="#000000" font-family="sans-serif" font-size="12" lengthAdjust="spacing" textLength="161.168" x="121.9377" y="672.2991">chain.doFilter &#20256;&#36882;&#19979;&#19968; Filter</text><rect fill="#F1F1F1" height="35.8379" rx="12.5" ry="12.5" style="stroke:#181818;stroke-width:0.5;" width="178.4961" x="113.2737" y="705.4397"/><text fill="#000000" font-family="sans-serif" font-size="12" lengthAdjust="spacing" textLength="158.4961" x="123.2737" y="728.137">AuthorizationFilter &#26657;&#39564;&#26435;&#38480;</text><polygon fill="#F1F1F1" points="183.3657,761.2776,221.6777,761.2776,233.6777,773.2776,221.6777,785.2776,183.3657,785.2776,171.3657,773.2776,183.3657,761.2776" style="stroke:#181818;stroke-width:0.5;"/><text fill="#000000" font-family="sans-serif" font-size="11" lengthAdjust="spacing" textLength="38.312" x="183.3657" y="777.6577">&#26377;&#26435;&#38480;?</text><text fill="#000000" font-family="sans-serif" font-size="11" lengthAdjust="spacing" textLength="11" x="160.3657" y="770.3987">&#26159;</text><text fill="#000000" font-family="sans-serif" font-size="11" lengthAdjust="spacing" textLength="11" x="233.6777" y="770.3987">&#21542;</text><rect fill="#F1F1F1" height="35.8379" rx="12.5" ry="12.5" style="stroke:#181818;stroke-width:0.5;" width="104" x="11" y="795.2776"/><text fill="#000000" font-family="sans-serif" font-size="12" lengthAdjust="spacing" textLength="84" x="21" y="817.9749">&#25918;&#34892;&#21040;&#19994;&#21153;&#25509;&#21475;</text><rect fill="#F1F1F1" height="35.8379" rx="12.5" ry="12.5" style="stroke:#181818;stroke-width:0.5;" width="89.6094" x="18.1953" y="851.1155"/><text fill="#000000" font-family="sans-serif" font-size="12" lengthAdjust="spacing" textLength="69.6094" x="28.1953" y="873.8127">&#36820;&#22238; 200 OK</text><rect fill="#F1F1F1" height="35.8379" rx="12.5" ry="12.5" style="stroke:#181818;stroke-width:0.5;" width="219.5879" x="232.2495" y="795.2776"/><text fill="#000000" font-family="sans-serif" font-size="12" lengthAdjust="spacing" textLength="199.5879" x="242.2495" y="817.9749">ExceptionTranslationFilter &#25429;&#33719;&#24322;&#24120;</text><polygon fill="#F1F1F1" points="317.3875,851.1155,366.6995,851.1155,378.6995,863.1155,366.6995,875.1155,317.3875,875.1155,305.3875,863.1155,317.3875,851.1155" style="stroke:#181818;stroke-width:0.5;"/><text fill="#000000" font-family="sans-serif" font-size="11" lengthAdjust="spacing" textLength="49.312" x="317.3875" y="867.4956">&#35748;&#35777;&#24322;&#24120;?</text><text fill="#000000" font-family="sans-serif" font-size="11" lengthAdjust="spacing" textLength="11" x="294.3875" y="860.2366">&#26159;</text><text fill="#000000" font-family="sans-serif" font-size="11" lengthAdjust="spacing" textLength="11" x="378.6995" y="860.2366">&#21542;</text><rect fill="#F1F1F1" height="35.8379" rx="12.5" ry="12.5" style="stroke:#181818;stroke-width:0.5;" width="191.8789" x="145" y="885.1155"/><text fill="#000000" font-family="sans-serif" font-size="12" lengthAdjust="spacing" textLength="171.8789" x="155" y="907.8127">&#35843;&#29992; AuthenticationEntryPoint</text><rect fill="#F1F1F1" height="35.8379" rx="12.5" ry="12.5" style="stroke:#181818;stroke-width:0.5;" width="68.6621" x="206.6084" y="940.9534"/><text fill="#000000" font-family="sans-serif" font-size="12" lengthAdjust="spacing" textLength="48.6621" x="216.6084" y="963.6506">&#36820;&#22238; 401</text><rect fill="#F1F1F1" height="35.8379" rx="12.5" ry="12.5" style="stroke:#181818;stroke-width:0.5;" width="172.5371" x="356.8789" y="885.1155"/><text fill="#000000" font-family="sans-serif" font-size="12" lengthAdjust="spacing" textLength="152.5371" x="366.8789" y="907.8127">&#35843;&#29992; AccessDeniedHandler</text><rect fill="#F1F1F1" height="35.8379" rx="12.5" ry="12.5" style="stroke:#181818;stroke-width:0.5;" width="68.6621" x="408.8164" y="940.9534"/><text fill="#000000" font-family="sans-serif" font-size="12" lengthAdjust="spacing" textLength="48.6621" x="418.8164" y="963.6506">&#36820;&#22238; 403</text><polygon fill="#F1F1F1" points="342.0435,982.7913,354.0435,994.7913,342.0435,1006.7913,330.0435,994.7913,342.0435,982.7913" style="stroke:#181818;stroke-width:0.5;"/><polygon fill="#F1F1F1" points="202.5217,1012.7913,214.5217,1024.7913,202.5217,1036.7913,190.5217,1024.7913,202.5217,1012.7913" style="stroke:#181818;stroke-width:0.5;"/><ellipse cx="202.5217" cy="1067.7913" fill="none" rx="11" ry="11" style="stroke:#222222;stroke-width:1;"/><ellipse cx="202.5217" cy="1067.7913" fill="#222222" rx="6" ry="6" style="stroke:#222222;stroke-width:1;"/><line style="stroke:#181818;stroke-width:1;" x1="202.5217" x2="202.5217" y1="69.4775" y2="89.4775"/><polygon fill="#181818" points="198.5217,79.4775,202.5217,89.4775,206.5217,79.4775,202.5217,83.4775" style="stroke:#181818;stroke-width:1;"/><line style="stroke:#181818;stroke-width:1;" x1="202.5217" x2="202.5217" y1="125.3154" y2="145.3154"/><polygon fill="#181818" points="198.5217,135.3154,202.5217,145.3154,206.5217,135.3154,202.5217,139.3154" style="stroke:#181818;stroke-width:1;"/><line style="stroke:#181818;stroke-width:1;" x1="202.5217" x2="202.5217" y1="286.2502" y2="306.2502"/><polygon fill="#181818" points="198.5217,296.2502,202.5217,306.2502,206.5217,296.2502,202.5217,300.2502" style="stroke:#181818;stroke-width:1;"/><line style="stroke:#181818;stroke-width:1;" x1="301.9631" x2="301.9631" y1="431.926" y2="451.926"/><polygon fill="#181818" points="297.9631,441.926,301.9631,451.926,305.9631,441.926,301.9631,445.926" style="stroke:#181818;stroke-width:1;"/><line style="stroke:#181818;stroke-width:1;" x1="301.9631" x2="301.9631" y1="487.7639" y2="507.7639"/><polygon fill="#181818" points="297.9631,497.7639,301.9631,507.7639,305.9631,497.7639,301.9631,501.7639" style="stroke:#181818;stroke-width:1;"/><line style="stroke:#181818;stroke-width:1;" x1="301.9631" x2="301.9631" y1="543.6018" y2="563.6018"/><polygon fill="#181818" points="297.9631,553.6018,301.9631,563.6018,305.9631,553.6018,301.9631,557.6018" style="stroke:#181818;stroke-width:1;"/><line style="stroke:#181818;stroke-width:1;" x1="165.8657" x2="103.0803" y1="374.0881" y2="374.0881"/><line style="stroke:#181818;stroke-width:1;" x1="103.0803" x2="103.0803" y1="374.0881" y2="396.0881"/><polygon fill="#181818" points="99.0803,386.0881,103.0803,396.0881,107.0803,386.0881,103.0803,390.0881" style="stroke:#181818;stroke-width:1;"/><line style="stroke:#181818;stroke-width:1;" x1="239.1777" x2="301.9631" y1="374.0881" y2="374.0881"/><line style="stroke:#181818;stroke-width:1;" x1="301.9631" x2="301.9631" y1="374.0881" y2="396.0881"/><polygon fill="#181818" points="297.9631,386.0881,301.9631,396.0881,305.9631,386.0881,301.9631,390.0881" style="stroke:#181818;stroke-width:1;"/><line style="stroke:#181818;stroke-width:1;" x1="103.0803" x2="103.0803" y1="431.926" y2="590.6018"/><line style="stroke:#181818;stroke-width:1;" x1="103.0803" x2="202.5217" y1="590.6018" y2="590.6018"/><line style="stroke:#181818;stroke-width:1;" x1="202.5217" x2="202.5217" y1="590.6018" y2="605.6018"/><polygon fill="#181818" points="198.5217,595.6018,202.5217,605.6018,206.5217,595.6018,202.5217,599.6018" style="stroke:#181818;stroke-width:1;"/><line style="stroke:#181818;stroke-width:1;" x1="202.5217" x2="202.5217" y1="342.0881" y2="362.0881"/><polygon fill="#181818" points="198.5217,352.0881,202.5217,362.0881,206.5217,352.0881,202.5217,356.0881" style="stroke:#181818;stroke-width:1;"/><line style="stroke:#181818;stroke-width:1;" x1="202.5217" x2="202.5217" y1="225.1533" y2="250.4124"/><polygon fill="#181818" points="198.5217,240.4124,202.5217,250.4124,206.5217,240.4124,202.5217,244.4124" style="stroke:#181818;stroke-width:1;"/><line style="stroke:#181818;stroke-width:1;" x1="239.1777" x2="431.7571" y1="213.1533" y2="213.1533"/><polygon fill="#181818" points="427.7571,418.5071,431.7571,428.5071,435.7571,418.5071,431.7571,422.5071" style="stroke:#181818;stroke-width:1;"/><line style="stroke:#181818;stroke-width:1;" x1="431.7571" x2="431.7571" y1="213.1533" y2="617.6018"/><line style="stroke:#181818;stroke-width:1;" x1="431.7571" x2="214.5217" y1="617.6018" y2="617.6018"/><polygon fill="#181818" points="224.5217,613.6018,214.5217,617.6018,224.5217,621.6018,220.5217,617.6018" style="stroke:#181818;stroke-width:1;"/><line style="stroke:#181818;stroke-width:1;" x1="202.5217" x2="202.5217" y1="181.1533" y2="201.1533"/><polygon fill="#181818" points="198.5217,191.1533,202.5217,201.1533,206.5217,191.1533,202.5217,195.1533" style="stroke:#181818;stroke-width:1;"/><line style="stroke:#181818;stroke-width:1;" x1="202.5217" x2="202.5217" y1="629.6018" y2="649.6018"/><polygon fill="#181818" points="198.5217,639.6018,202.5217,649.6018,206.5217,639.6018,202.5217,643.6018" style="stroke:#181818;stroke-width:1;"/><line style="stroke:#181818;stroke-width:1;" x1="202.5217" x2="202.5217" y1="685.4397" y2="705.4397"/><polygon fill="#181818" points="198.5217,695.4397,202.5217,705.4397,206.5217,695.4397,202.5217,699.4397" style="stroke:#181818;stroke-width:1;"/><line style="stroke:#181818;stroke-width:1;" x1="63" x2="63" y1="831.1155" y2="851.1155"/><polygon fill="#181818" points="59,841.1155,63,851.1155,67,841.1155,63,845.1155" style="stroke:#181818;stroke-width:1;"/><line style="stroke:#181818;stroke-width:1;" x1="240.9395" x2="240.9395" y1="920.9534" y2="940.9534"/><polygon fill="#181818" points="236.9395,930.9534,240.9395,940.9534,244.9395,930.9534,240.9395,934.9534" style="stroke:#181818;stroke-width:1;"/><line style="stroke:#181818;stroke-width:1;" x1="443.1475" x2="443.1475" y1="920.9534" y2="940.9534"/><polygon fill="#181818" points="439.1475,930.9534,443.1475,940.9534,447.1475,930.9534,443.1475,934.9534" style="stroke:#181818;stroke-width:1;"/><line style="stroke:#181818;stroke-width:1;" x1="305.3875" x2="240.9395" y1="863.1155" y2="863.1155"/><line style="stroke:#181818;stroke-width:1;" x1="240.9395" x2="240.9395" y1="863.1155" y2="885.1155"/><polygon fill="#181818" points="236.9395,875.1155,240.9395,885.1155,244.9395,875.1155,240.9395,879.1155" style="stroke:#181818;stroke-width:1;"/><line style="stroke:#181818;stroke-width:1;" x1="378.6995" x2="443.1475" y1="863.1155" y2="863.1155"/><line style="stroke:#181818;stroke-width:1;" x1="443.1475" x2="443.1475" y1="863.1155" y2="885.1155"/><polygon fill="#181818" points="439.1475,875.1155,443.1475,885.1155,447.1475,875.1155,443.1475,879.1155" style="stroke:#181818;stroke-width:1;"/><line style="stroke:#181818;stroke-width:1;" x1="240.9395" x2="240.9395" y1="976.7913" y2="994.7913"/><line style="stroke:#181818;stroke-width:1;" x1="240.9395" x2="330.0435" y1="994.7913" y2="994.7913"/><polygon fill="#181818" points="320.0435,990.7913,330.0435,994.7913,320.0435,998.7913,324.0435,994.7913" style="stroke:#181818;stroke-width:1;"/><line style="stroke:#181818;stroke-width:1;" x1="443.1475" x2="443.1475" y1="976.7913" y2="994.7913"/><line style="stroke:#181818;stroke-width:1;" x1="443.1475" x2="354.0435" y1="994.7913" y2="994.7913"/><polygon fill="#181818" points="364.0435,990.7913,354.0435,994.7913,364.0435,998.7913,360.0435,994.7913" style="stroke:#181818;stroke-width:1;"/><line style="stroke:#181818;stroke-width:1;" x1="342.0435" x2="342.0435" y1="831.1155" y2="851.1155"/><polygon fill="#181818" points="338.0435,841.1155,342.0435,851.1155,346.0435,841.1155,342.0435,845.1155" style="stroke:#181818;stroke-width:1;"/><line style="stroke:#181818;stroke-width:1;" x1="171.3657" x2="63" y1="773.2776" y2="773.2776"/><line style="stroke:#181818;stroke-width:1;" x1="63" x2="63" y1="773.2776" y2="795.2776"/><polygon fill="#181818" points="59,785.2776,63,795.2776,67,785.2776,63,789.2776" style="stroke:#181818;stroke-width:1;"/><line style="stroke:#181818;stroke-width:1;" x1="233.6777" x2="342.0435" y1="773.2776" y2="773.2776"/><line style="stroke:#181818;stroke-width:1;" x1="342.0435" x2="342.0435" y1="773.2776" y2="795.2776"/><polygon fill="#181818" points="338.0435,785.2776,342.0435,795.2776,346.0435,785.2776,342.0435,789.2776" style="stroke:#181818;stroke-width:1;"/><line style="stroke:#181818;stroke-width:1;" x1="63" x2="63" y1="886.9534" y2="1024.7913"/><line style="stroke:#181818;stroke-width:1;" x1="63" x2="190.5217" y1="1024.7913" y2="1024.7913"/><polygon fill="#181818" points="180.5217,1020.7913,190.5217,1024.7913,180.5217,1028.7913,184.5217,1024.7913" style="stroke:#181818;stroke-width:1;"/><line style="stroke:#181818;stroke-width:1;" x1="342.0435" x2="342.0435" y1="1006.7913" y2="1024.7913"/><line style="stroke:#181818;stroke-width:1;" x1="342.0435" x2="214.5217" y1="1024.7913" y2="1024.7913"/><polygon fill="#181818" points="224.5217,1020.7913,214.5217,1024.7913,224.5217,1028.7913,220.5217,1024.7913" style="stroke:#181818;stroke-width:1;"/><line style="stroke:#181818;stroke-width:1;" x1="202.5217" x2="202.5217" y1="741.2776" y2="761.2776"/><polygon fill="#181818" points="198.5217,751.2776,202.5217,761.2776,206.5217,751.2776,202.5217,755.2776" style="stroke:#181818;stroke-width:1;"/><line style="stroke:#181818;stroke-width:1;" x1="202.5217" x2="202.5217" y1="1036.7913" y2="1056.7913"/><polygon fill="#181818" points="198.5217,1046.7913,202.5217,1056.7913,206.5217,1046.7913,202.5217,1050.7913" style="stroke:#181818;stroke-width:1;"/><!--SRC=[dL7BIYD15DtNLznbij7uMAKNWpYA8A9WVg3fb5hGL8Vk4jILHaRZAnqb4JFn5PzXXXW59GtA-3DTbSvVs6MrZwYRSLctpZtdt7COOIQ6oOnDw3HCOcFM9cmUWgkpeB4ayZbni2pkbbgr3OGSfjiC9VdLYSWrMtyRtDqExfemaafDGD1eYfkiXfB1OuN_Edyb6YOcm_RWZ4weXX2PWXYlx_7z6b-jX_m_ui1cC8MOs6l44K1Ik0NkxgfFYFdtUSNBpswxkPiLfMlVgmVvPeY9Qn8_C2lt6J5qHYmwfbDz6jiWrYw3wgOwGSAaR7HGhi3NZpxAXaHyfVpUzg156PvZSXcR3WvT5ouYvD2SWJDIBMNhr36VXTML8BPAqjn3bdkUfj31zNAhM8DEdqEKsVCJ5g7i1VLOv9L3w4_qg873h8oKfcaoXTuPK0EKD6IUNMahqlKVZjkBExwtuNkBe6PX4rBJiib2XyFZQllFPjXfkro8-X3xQ-hzkOpYlp16dWj3_ytNgo9_pjtJvzWZlxs918oFQgWZely9wAqODVkYcEy4-B6o5mx3m8xp4rE2qoCwJPiofixrFkqjTfMrhE89]--></g></svg>